<?xml version="1.0" encoding="utf-8"?>
<!-- Generator: Adobe Illustrator 24.0.1, SVG Export Plug-In . SVG Version: 6.00 Build 0)  -->
<svg version="1.1" xmlns="http://www.w3.org/2000/svg" xmlns:xlink="http://www.w3.org/1999/xlink" x="0px" y="0px"
	 viewBox="0 0 244 68" style="enable-background:new 0 0 244 68;" xml:space="preserve">
<style type="text/css">
	.st0{display:none;}
	.st1{display:inline;fill:#333333;}
	.st2{display:inline;fill:#FF8700;}
	.st3{display:inline;}
	.st4{fill:#999999;}
	.st5{fill:#321788;}
	.st6{fill:#5F5342;}
	.st7{fill:#FFFFFF;}
</style>
<g id="Ebene_1" class="st0">
	<title>Zeichenfläche 1</title>
	<path class="st1" d="M86.1,13.7v22.5h-5.3V13.7h-5.6V9h16.5v4.7H86.1z"/>
	<path class="st1" d="M105,24.2v12h-5.4v-12L92.4,9h5.8l4.3,10.5L106.8,9h5.5L105,24.2z"/>
	<path class="st1" d="M123,26.8h-2.2v9.4h-5.3V9c0,0,3.9-0.4,7.2-0.4c7,0,9,3.3,9,9.1C131.6,24.4,128.6,26.8,123,26.8z M123.3,13.2
		c-0.8,0-1.7,0.1-2.5,0.2v8.7h2.4c1.8,0,3-1.7,3-4.3C126.2,14.9,125.5,13.2,123.3,13.2L123.3,13.2z"/>
	<path class="st1" d="M144,36.6c-7.7,0-9.1-4.8-9.1-14.3c0-9.1,1.6-13.7,9.1-13.7s9.1,4.5,9.1,13.7C153.1,31.8,151.7,36.6,144,36.6z
		 M144,12.8c-2.8,0-3.7,1.7-3.7,9.7s0.9,9.9,3.7,9.9s3.7-2.1,3.7-9.9S146.8,12.8,144,12.8L144,12.8z"/>
	<path class="st1" d="M162.9,36.5c-1.8-0.1-3.7-0.3-5.5-0.7v-4.3c1.6,0.4,3.2,0.6,4.9,0.7c1.9,0,3.1-1.3,3.1-3.7
		c0-3-0.8-4.3-3.1-4.3h-3V20h2.6c2.2,0,3.1-1.4,3.1-3.7s-0.8-3.3-2.7-3.3c-1.5,0.1-3.1,0.3-4.6,0.7V9.3c1.7-0.4,3.4-0.6,5.1-0.7
		c5,0,7.4,1.8,7.4,7.7c0,2.3-0.8,4.7-2.9,5.5c2.1,0.4,3.4,2.4,3.4,6.3C170.5,34.6,167.2,36.5,162.9,36.5z"/>
	<path class="st1" d="M199.5,35.9c-1.5,0.3-3.1,0.5-4.7,0.6c-6,0-8.6-2.5-8.6-14.3s3.2-13.4,9.1-13.4c1.4,0.1,2.8,0.2,4.2,0.5V14
		c-1.5-0.4-3.1-0.5-4.7-0.6c-2.3,0-3.2,1-3.2,9.1s0.9,9.4,3.2,9.4c1.6,0,3.2-0.2,4.7-0.6V35.9z"/>
	<path class="st1" d="M219.4,36.2V12.9L216,27h-4l-3.5-14.1v23.3h-4.8V9h8.1l2.3,10.5L216.5,9h7.7v27.2H219.4z"/>
	<path class="st1" d="M233.7,36.4c-1.9,0-3.7-0.2-5.5-0.6v-4.6c1.7,0.4,3.4,0.6,5.1,0.6c2.4,0,4-0.9,4-3.4c0-2.8-1.2-3.7-3.3-4.2
		c-4.3-0.9-6-3.3-6-7.8c0-5.8,3.3-7.8,9.3-7.8c1.6,0,3.2,0.2,4.8,0.6v4.6c-1.7-0.3-3.5-0.5-5.2-0.6c-2.2,0-3.5,0.8-3.5,2.8
		c0,2.5,0.6,3,3.1,3.5c3.7,0.8,6.3,2.7,6.3,8.5C242.6,35.4,238.8,36.4,233.7,36.4z"/>
	<path class="st2" d="M45.8,43.4c-0.8,0.3-1.7,0.4-2.5,0.4c-7.6,0-18.8-26.6-18.8-35.5c0-3.3,0.8-4.4,1.9-5.3
		C17,4.1,5.8,7.5,2.3,11.8c-0.9,1.5-1.4,3.2-1.3,5C1,30.6,15.8,62,26.2,62C31,62,39.1,54.1,45.8,43.4"/>
	<path class="st2" d="M41,2c9.6,0,19.3,1.6,19.3,7c0,11-7,24.4-10.6,24.4c-6.4,0-14.3-17.7-14.3-26.6C35.4,2.8,36.9,2,41,2"/>
	<g class="st3">
		<path class="st4" d="M75.1,60.7v-1.5h1.4V48.1h-1.4v-1.5h4.6v1.5h-1.4v11.1h1.4v1.5C79.7,60.7,75.1,60.7,75.1,60.7z"/>
		<path class="st4" d="M86.2,60.7l-3.1-12.6v12.6h-1.6V46.6h2.9l3.1,12.6V46.6H89v14.1C89,60.7,86.2,60.7,86.2,60.7z"/>
		<path class="st4" d="M95.1,48.1v12.5h-1.7V48.1h-3.1v-1.5h7.9v1.5H95.1z"/>
		<path class="st4" d="M104.6,54.6l2.7,6.1h-1.9l-2.6-5.8H101v5.8h-1.7V46.6c0,0,1.7-0.1,3.4-0.1c3.1,0,3.9,1.6,3.9,4.1
			C106.6,52.6,106.1,54,104.6,54.6z M103,47.9c-1.1,0-1.9,0.1-1.9,0.1v5.3h1.9c1.1,0,1.9-0.5,1.9-2.7
			C104.9,48.8,104.4,47.9,103,47.9z"/>
		<path class="st4" d="M112.5,60.8c-3.3,0-4.2-2.4-4.2-7.3c0-4.7,0.9-7,4.2-7s4.2,2.3,4.2,7C116.7,58.4,115.8,60.8,112.5,60.8z
			 M112.5,47.9c-1.8,0-2.4,1.2-2.4,5.6c0,4.3,0.6,5.8,2.4,5.8s2.4-1.4,2.4-5.8C114.9,49.2,114.3,47.9,112.5,47.9z"/>
		<path class="st4" d="M122.4,60.8c-1.6,0-3.5-0.1-3.5-0.1V46.6c0,0,1.9-0.1,3.3-0.1c2.8,0,4.3,1,4.3,6.9
			C126.4,59.4,125.1,60.8,122.4,60.8z M122.6,47.9c-0.7,0-1.9,0.1-1.9,0.1v11.2c0,0,1.1,0.1,1.9,0.1c1.2,0,2.1-1.4,2.1-5.8
			C124.7,48.8,123.8,47.9,122.6,47.9z"/>
		<path class="st4" d="M136.1,56.9c0,2.7-1.4,3.9-3.8,3.9c-2.3,0-3.8-1.1-3.8-3.9V46.6h1.7v10.7c0,1.4,0.8,2,2,2s2-0.6,2-2V46.6h1.7
			v10.3H136.1z"/>
		<path class="st4" d="M144.5,60.5c-0.4,0.1-1.6,0.3-2.2,0.3c-2.9,0-4.1-1.4-4.1-7.4c0-5.9,1.4-6.9,4.3-6.9c0.6,0,1.4,0.1,2,0.3v1.5
			c-0.7-0.2-1.6-0.3-2.3-0.3c-1.5,0-2.1,0.7-2.1,5.6c0,5.1,0.7,5.7,2.2,5.7c0.8,0,1.8-0.2,2.3-0.3L144.5,60.5L144.5,60.5z"/>
		<path class="st4" d="M149.7,48.1v12.5H148V48.1h-3.1v-1.5h7.9v1.5H149.7z"/>
		<path class="st4" d="M153.2,60.7v-1.5h1.4V48.1h-1.4v-1.5h4.6v1.5h-1.4v11.1h1.4v1.5C157.8,60.7,153.2,60.7,153.2,60.7z"/>
		<path class="st4" d="M163.3,60.8c-3.3,0-4.2-2.4-4.2-7.3c0-4.7,0.9-7,4.2-7s4.2,2.3,4.2,7C167.5,58.4,166.7,60.8,163.3,60.8z
			 M163.3,47.9c-1.8,0-2.4,1.2-2.4,5.6c0,4.3,0.6,5.8,2.4,5.8c1.8,0,2.4-1.4,2.4-5.8C165.8,49.2,165.2,47.9,163.3,47.9z"/>
		<path class="st4" d="M174.4,60.7l-3.1-12.6v12.6h-1.6V46.6h2.8l3.1,12.6V46.6h1.6v14.1C177.2,60.7,174.4,60.7,174.4,60.7z"/>
		<path class="st4" d="M187.8,55.4h-1.7v5.3h-1.7V46.6c0,0,1.7-0.1,3.4-0.1c3.1,0,3.9,1.9,3.9,4.4C191.7,53.9,190.6,55.4,187.8,55.4
			z M188,47.9c-1.1,0-1.9,0.1-1.9,0.1v5.9h1.9c1.1,0,1.9-0.7,1.9-2.9C189.9,49,189.4,47.9,188,47.9z"/>
		<path class="st4" d="M198.8,60.7l-0.8-3.6h-3.9l-0.8,3.6h-1.8l3.4-14.1h2.3l3.3,14.1C200.5,60.7,198.8,60.7,198.8,60.7z
			 M196.1,47.9l-1.6,7.7h3.3L196.1,47.9z"/>
		<path class="st4" d="M207.5,60.5c-0.4,0.1-1.6,0.3-2.2,0.3c-2.9,0-4.1-1.4-4.1-7.4c0-5.9,1.4-6.9,4.3-6.9c0.6,0,1.4,0.1,2,0.3v1.5
			c-0.7-0.2-1.6-0.3-2.3-0.3c-1.5,0-2.1,0.7-2.1,5.6c0,5.1,0.7,5.7,2.2,5.7c0.8,0,1.8-0.2,2.3-0.3L207.5,60.5L207.5,60.5z"/>
		<path class="st4" d="M214.9,60.7l-3.1-6.4l-0.7,1.2v5.2h-1.7V46.6h1.7v6.2l3.8-6.2h1.9l-3.8,6.1l4,7.9h-2.1V60.7z"/>
		<path class="st4" d="M224.4,60.7l-0.8-3.6h-3.9l-0.8,3.6h-1.8l3.4-14.1h2.3l3.3,14.1C226.1,60.7,224.4,60.7,224.4,60.7z
			 M221.7,47.9l-1.6,7.7h3.3L221.7,47.9z"/>
		<path class="st4" d="M234.1,60.5c-1.1,0.2-2.1,0.3-3.2,0.3c-3.1,0-4.2-1.4-4.2-7.4c0-5.9,1.5-6.9,4.7-6.9c0.7,0,1.7,0.2,2.2,0.3
			v1.4c-0.8-0.2-1.7-0.3-2.6-0.3c-1.7,0-2.5,0.8-2.5,5.6c0,5.1,0.7,5.8,2.3,5.8c0.5,0,1.1-0.1,1.6-0.1v-4.5h-1.8v-1.5h3.5V60.5z"/>
		<path class="st4" d="M236.4,60.7V46.6h6.6v1.5h-4.8v4.6h4.3v1.5h-4.3v5.1h4.8v1.5L236.4,60.7L236.4,60.7z"/>
	</g>
</g>
<g id="AU_Logo_4c">
	<g>
		<path class="st5" d="M66.3,29.9c-0.3-0.6-0.4-1.3-0.4-2.1v-6.8h2v6.7c0,0.6,0.1,1.1,0.3,1.5c0.4,0.8,1.1,1.2,2.2,1.2
			c1.1,0,1.9-0.4,2.2-1.2c0.2-0.4,0.3-0.9,0.3-1.5v-6.7h2v6.8c0,0.8-0.1,1.6-0.4,2.1c-0.7,1.4-2.1,2.1-4.1,2.1
			C68.3,32,66.9,31.3,66.3,29.9L66.3,29.9z"/>
		<path class="st5" d="M78.4,20.9h2l4.7,6c0.5,0.6,0.9,1.2,1.2,1.7h0c0-0.6,0-1.2,0-1.8v-5.8h2v10.9h-1.8l-4.8-6.2
			c-0.5-0.6-0.9-1.2-1.2-1.7h0c0,0.4,0,1.1,0,1.7v6.2h-2V20.9L78.4,20.9z"/>
		<polygon class="st5" points="91.9,20.9 93.9,20.9 93.9,31.8 91.9,31.8 91.9,20.9 		"/>
		<path class="st5" d="M106,26.4c0-2.4-1.3-3.9-3.4-3.9c-2,0-3.4,1.4-3.4,3.9c0,2.5,1.4,3.9,3.4,3.9C104.6,30.3,106,28.9,106,26.4
			L106,26.4z M97.1,26.4c0-3.3,2.3-5.6,5.5-5.6c3.2,0,5.5,2.3,5.5,5.6c0,3.3-2.3,5.6-5.5,5.6C99.4,32,97.1,29.7,97.1,26.4L97.1,26.4
			z"/>
		<path class="st5" d="M111.3,20.9h2l4.7,6c0.5,0.6,0.9,1.2,1.2,1.7h0c0-0.6,0-1.2,0-1.8v-5.8h2v10.9h-1.8l-4.8-6.2
			c-0.5-0.6-0.9-1.2-1.2-1.7h0c0,0.4,0,1.1,0,1.7v6.2h-2V20.9L111.3,20.9z"/>
		<path class="st6" d="M67.5,46.4c2.5,0,3.3-1.5,3.3-3.3c0-1.8-1-3.1-3.3-3.1h-0.9v6.4H67.5L67.5,46.4z M65.6,39.2h1.9
			c2.8,0,4.2,1.7,4.2,3.9c0,2.3-1.4,4-4.2,4h-1.9V39.2L65.6,39.2z"/>
		<polygon class="st6" points="74.2,39.2 78,39.2 77.7,39.9 75,39.9 75,42.7 77.7,42.7 77.7,43.4 75,43.4 75,46.4 78.1,46.4
			78.1,47.1 74.2,47.1 74.2,39.2 		"/>
		<path class="st6" d="M82.1,43c0.4,0,0.8-0.1,1.1-0.3c0.4-0.2,0.7-0.7,0.7-1.3c0-0.5-0.2-0.9-0.5-1.1c-0.3-0.2-0.7-0.4-1.3-0.4
			h-0.8V43H82.1L82.1,43z M80.5,39.2h1.6c0.8,0,1.4,0.2,1.8,0.4c0.6,0.4,0.9,1,0.9,1.7c0,1.1-0.6,1.8-1.6,2.1v0
			c0.2,0.1,0.5,0.6,1,1.3l1.4,2.4h-1l-1.4-2.3c-0.4-0.6-0.7-1-0.9-1.1h-0.9v3.4h-0.9V39.2L80.5,39.2z"/>
		<path class="st6" d="M93,46.4c2.5,0,3.3-1.5,3.3-3.3c0-1.8-1-3.1-3.3-3.1h-0.9v6.4H93L93,46.4z M91.2,39.2h1.9
			c2.8,0,4.2,1.7,4.2,3.9c0,2.3-1.4,4-4.2,4h-1.9V39.2L91.2,39.2z"/>
		<polygon class="st6" points="99.7,39.2 103.5,39.2 103.2,39.9 100.6,39.9 100.6,42.7 103.2,42.7 103.2,43.4 100.6,43.4
			100.6,46.4 103.6,46.4 103.6,47.1 99.7,47.1 99.7,39.2 		"/>
		<path class="st6" d="M106.2,45.5c-0.1-0.4-0.2-0.8-0.2-1.3v-5.1h0.9v5c0,0.4,0,0.8,0.2,1.1c0.3,0.7,0.9,1.2,1.9,1.2
			c1,0,1.6-0.4,1.9-1.2c0.1-0.3,0.2-0.7,0.2-1.1v-5h0.9v5.1c0,0.5-0.1,0.9-0.2,1.3c-0.4,1.1-1.3,1.7-2.7,1.7
			C107.5,47.2,106.6,46.6,106.2,45.5L106.2,45.5z"/>
		<polygon class="st6" points="116.1,39.9 113.8,39.9 113.8,39.2 119.5,39.2 119.2,39.9 117,39.9 117,47.1 116.1,47.1 116.1,39.9
			"/>
		<path class="st6" d="M121.3,45.9c0.4,0.3,1,0.5,1.7,0.5c0.9,0,1.6-0.3,1.6-1.3c0-1.9-3.5-1.7-3.5-4c0-1.1,0.9-2,2.3-2
			c0.7,0,1.4,0.2,1.7,0.4v0.8c-0.5-0.3-1.1-0.4-1.7-0.4c-0.7,0-1.4,0.3-1.4,1.2c0,1.8,3.5,1.6,3.5,4.1c0,1.3-1,2.1-2.5,2.1
			c-0.9,0-1.6-0.3-2.1-0.6L121.3,45.9L121.3,45.9z"/>
		<path class="st6" d="M133.6,46.7c-0.7,0.4-1.5,0.6-2.2,0.6c-2.4,0-3.8-1.7-3.8-4c0-2.3,1.6-4.1,3.9-4.1c0.8,0,1.6,0.2,2,0.4v0.8
			c-0.6-0.3-1.1-0.5-1.9-0.5c-1.9,0-3,1.4-3,3.3c0,1.9,1.1,3.3,2.9,3.3c0.7,0,1.3-0.2,1.9-0.5L133.6,46.7L133.6,46.7z"/>
		<polygon class="st6" points="135.8,39.2 136.7,39.2 136.7,42.7 141,42.7 141,39.2 141.9,39.2 141.9,47.1 141,47.1 141,43.4
			136.7,43.4 136.7,47.1 135.8,47.1 135.8,39.2 		"/>
		<polygon class="st6" points="144.7,39.2 148.6,39.2 148.3,39.9 145.6,39.9 145.6,42.7 148.2,42.7 148.2,43.4 145.6,43.4
			145.6,46.4 148.6,46.4 148.6,47.1 144.7,47.1 144.7,39.2 		"/>
		<path class="st6" d="M151.1,39.2h0.9l3.7,4.8c0.5,0.7,0.9,1.2,1.1,1.6h0c0-0.4,0-0.8,0-1.4v-5h0.9v7.9h-0.7l-3.8-5
			c-0.5-0.6-0.8-1.1-1.1-1.5h0c0,0.4,0,0.7,0,1.4v5.2h-0.9V39.2L151.1,39.2z"/>
		<path class="st6" d="M167.2,44.2l-0.8-2.3c-0.2-0.7-0.4-1.1-0.5-1.4h0c-0.1,0.3-0.2,0.7-0.5,1.4l-0.8,2.3H167.2L167.2,44.2z
			 M165.6,39.2h0.6l3,8h-1l-0.8-2.1h-3.2l-0.8,2.1h-0.9L165.6,39.2L165.6,39.2z"/>
		<polygon class="st6" points="171.2,39.2 172.1,39.2 172.1,42.8 172.1,42.8 175.1,39.2 176.2,39.2 172.9,43.1 176.4,47.1
			175.3,47.1 172.1,43.5 172.1,43.5 172.1,47.1 171.2,47.1 171.2,39.2 		"/>
		<path class="st6" d="M182.2,44.2l-0.8-2.3c-0.2-0.7-0.4-1.1-0.5-1.4h0c-0.1,0.3-0.2,0.7-0.5,1.4l-0.8,2.3H182.2L182.2,44.2z
			 M180.6,39.2h0.6l3,8h-1l-0.8-2.1h-3.2l-0.8,2.1h-0.9L180.6,39.2L180.6,39.2z"/>
		<path class="st6" d="M188,46.4c2.5,0,3.3-1.5,3.3-3.3c0-1.8-1-3.1-3.3-3.1h-0.9v6.4H188L188,46.4z M186.2,39.2h1.9
			c2.8,0,4.2,1.7,4.2,3.9c0,2.3-1.4,4-4.2,4h-1.9V39.2L186.2,39.2z"/>
		<polygon class="st6" points="194.7,39.2 198.5,39.2 198.3,39.9 195.6,39.9 195.6,42.7 198.2,42.7 198.2,43.4 195.6,43.4
			195.6,46.4 198.6,46.4 198.6,47.1 194.7,47.1 194.7,39.2 		"/>
		<path class="st6" d="M201.1,39.2h0.8l2.2,3.3c0.3,0.5,0.5,0.8,0.7,1.1h0c0.2-0.3,0.4-0.7,0.7-1.2l2.1-3.3h0.8v7.9h-0.9V42
			c0-0.4,0-0.9,0-1.3h0c-0.2,0.3-0.4,0.7-0.6,1l-2,3.1h-0.5l-2.1-3.2c-0.2-0.2-0.4-0.6-0.5-0.9h0c0,0.4,0,0.9,0,1.3v5.1h-0.9V39.2
			L201.1,39.2z"/>
		<polygon class="st6" points="211.3,39.2 212.2,39.2 212.2,47.1 211.3,47.1 211.3,39.2 		"/>
		<polygon class="st6" points="215,39.2 218.8,39.2 218.5,39.9 215.9,39.9 215.9,42.7 218.5,42.7 218.5,43.4 215.9,43.4 215.9,46.4
			218.9,46.4 218.9,47.1 215,47.1 215,39.2 		"/>
		<path class="st6" d="M221.4,39.2h0.9l3.7,4.8c0.5,0.7,0.9,1.2,1.1,1.6h0c0-0.4,0-0.8,0-1.4v-5h0.9v7.9h-0.7l-3.8-5
			c-0.5-0.6-0.8-1.1-1.1-1.5h0c0,0.4,0,0.7,0,1.4v5.2h-0.9V39.2L221.4,39.2z"/>
		<path class="st6" d="M67.5,60.2c2.5,0,3.3-1.5,3.3-3.3c0-1.8-1-3.1-3.3-3.1h-0.9v6.4H67.5L67.5,60.2z M65.6,53h1.9
			c2.8,0,4.2,1.7,4.2,3.9c0,2.3-1.4,4-4.2,4h-1.9V53L65.6,53z"/>
		<polygon class="st6" points="74.2,53 78,53 77.7,53.8 75,53.8 75,56.5 77.7,56.5 77.7,57.3 75,57.3 75,60.2 78.1,60.2 78.1,61
			74.2,61 74.2,53 		"/>
		<path class="st6" d="M82.1,56.8c0.4,0,0.8-0.1,1.1-0.3c0.4-0.2,0.7-0.7,0.7-1.3c0-0.5-0.2-0.9-0.5-1.1c-0.3-0.2-0.7-0.4-1.3-0.4
			h-0.8v3.1H82.1L82.1,56.8z M80.5,53h1.6c0.8,0,1.4,0.2,1.8,0.4c0.6,0.4,0.9,1,0.9,1.7c0,1.1-0.6,1.8-1.6,2.1v0
			c0.2,0.1,0.5,0.6,1,1.3l1.4,2.4h-1l-1.4-2.3c-0.4-0.6-0.7-1-0.9-1.1h-0.9V61h-0.9V53L80.5,53z"/>
		<path class="st6" d="M89.9,53h1l1.5,4.8c0.2,0.5,0.4,1.2,0.5,1.8h0c0.2-0.7,0.4-1.2,0.6-1.8l1.2-3.4L94.3,53h1l1.6,4.8
			c0.2,0.5,0.4,1.1,0.6,1.7h0c0.2-0.6,0.3-1.2,0.5-1.7l1.5-4.8h0.9l-2.6,8H97l-1.3-3.7c-0.2-0.6-0.4-1.1-0.6-1.7h0
			c-0.2,0.6-0.3,1-0.6,1.7L93.3,61h-0.7L89.9,53L89.9,53z"/>
		<polygon class="st6" points="102.3,53 103.2,53 103.2,61 102.3,61 102.3,53 		"/>
		<path class="st6" d="M106,59.8c0.4,0.3,1,0.5,1.7,0.5c0.9,0,1.6-0.3,1.6-1.3c0-1.9-3.5-1.7-3.5-4c0-1.1,0.9-2,2.3-2
			c0.7,0,1.4,0.2,1.7,0.4v0.8c-0.5-0.3-1.1-0.4-1.7-0.4c-0.7,0-1.4,0.3-1.4,1.2c0,1.8,3.5,1.6,3.5,4.1c0,1.3-1,2.1-2.5,2.1
			c-0.9,0-1.6-0.3-2.1-0.6L106,59.8L106,59.8z"/>
		<path class="st6" d="M112.6,59.8c0.4,0.3,1,0.5,1.7,0.5c0.9,0,1.6-0.3,1.6-1.3c0-1.9-3.5-1.7-3.5-4c0-1.1,0.9-2,2.3-2
			c0.7,0,1.4,0.2,1.7,0.4v0.8c-0.5-0.3-1.1-0.4-1.7-0.4c-0.7,0-1.4,0.3-1.4,1.2c0,1.8,3.5,1.6,3.5,4.1c0,1.3-1,2.1-2.5,2.1
			c-0.9,0-1.6-0.3-2.1-0.6L112.6,59.8L112.6,59.8z"/>
		<polygon class="st6" points="119.3,53 123.1,53 122.8,53.8 120.2,53.8 120.2,56.5 122.8,56.5 122.8,57.3 120.2,57.3 120.2,60.2
			123.2,60.2 123.2,61 119.3,61 119.3,53 		"/>
		<path class="st6" d="M125.6,53h0.9l3.7,4.8c0.5,0.7,0.9,1.2,1.1,1.6h0c0-0.4,0-0.8,0-1.4v-5h0.9V61h-0.7l-3.8-5
			c-0.5-0.6-0.8-1.1-1.1-1.5h0c0,0.4,0,0.7,0,1.4V61h-0.9V53L125.6,53z"/>
		<path class="st6" d="M135,59.8c0.4,0.3,1,0.5,1.7,0.5c0.9,0,1.6-0.3,1.6-1.3c0-1.9-3.5-1.7-3.5-4c0-1.1,0.9-2,2.3-2
			c0.7,0,1.4,0.2,1.7,0.4v0.8c-0.5-0.3-1.1-0.4-1.7-0.4c-0.7,0-1.4,0.3-1.4,1.2c0,1.8,3.5,1.6,3.5,4.1c0,1.3-1,2.1-2.5,2.1
			c-0.9,0-1.6-0.3-2.1-0.6L135,59.8L135,59.8z"/>
		<path class="st6" d="M147.2,60.5c-0.7,0.4-1.5,0.6-2.2,0.6c-2.4,0-3.8-1.7-3.8-4c0-2.3,1.6-4.1,3.9-4.1c0.8,0,1.6,0.2,2,0.4v0.8
			c-0.6-0.3-1.1-0.5-2-0.5c-1.9,0-3,1.4-3,3.3c0,1.9,1.1,3.3,2.9,3.3c0.7,0,1.3-0.2,1.9-0.5L147.2,60.5L147.2,60.5z"/>
		<polygon class="st6" points="149.5,53 150.3,53 150.3,56.5 154.7,56.5 154.7,53 155.6,53 155.6,61 154.7,61 154.7,57.3
			150.3,57.3 150.3,61 149.5,61 149.5,53 		"/>
		<path class="st6" d="M162.2,58.1l-0.8-2.3c-0.2-0.7-0.4-1.1-0.5-1.4h0c-0.1,0.3-0.2,0.7-0.5,1.4l-0.8,2.3H162.2L162.2,58.1z
			 M160.6,53h0.6l3,8h-1l-0.8-2.1h-3.2l-0.8,2.1h-0.9L160.6,53L160.6,53z"/>
		<polygon class="st6" points="166.2,53 170,53 169.7,53.8 167.1,53.8 167.1,56.5 169.7,56.5 169.7,57.3 167.1,57.3 167.1,61
			166.2,61 166.2,53 		"/>
		<polygon class="st6" points="173.8,53.8 171.5,53.8 171.5,53 177.2,53 176.9,53.8 174.6,53.8 174.6,61 173.8,61 173.8,53.8 		"/>
		<polygon class="st6" points="179,53 182.8,53 182.5,53.8 179.9,53.8 179.9,56.5 182.5,56.5 182.5,57.3 179.9,57.3 179.9,60.2
			182.9,60.2 182.9,61 179,61 179,53 		"/>
		<path class="st6" d="M185.3,53h0.9l3.7,4.8c0.5,0.7,0.9,1.2,1.1,1.6h0c0-0.4,0-0.8,0-1.4v-5h0.9V61h-0.7l-3.8-5
			c-0.5-0.6-0.8-1.1-1.1-1.5h0c0,0.4,0,0.7,0,1.4V61h-0.9V53L185.3,53z"/>
		<path class="st5" d="M9.1,45.8c1.8,4.7,6.4,7.6,12.3,7.6v-0.1c-0.2,0-0.4,0-0.6,0c-4-0.2-6.9-2.5-8.3-6.8l-0.1-0.2
			c-0.3-0.9-0.9-3.1-0.9-7.2V23.2V21H8v18.1c0,0.5,0,0.9,0,1.3c0.2,2.7,0.7,4.3,1,5.1L9.1,45.8L9.1,45.8z"/>
		<path class="st5" d="M54.8,60.7v-3.6H28.1c-2.3,1.9-5.3,3.2-8.7,3.6H54.8L54.8,60.7z"/>
		<polygon class="st6" points="74,10.1 69,6.5 33.6,6.5 33.6,10.1 74,10.1 		"/>
		<path class="st6" d="M32,52c-0.2,0.5-0.5,1-0.8,1.5h23.5v-3.6h-22C32.6,50.8,32.3,51.4,32,52L32,52z"/>
		<path class="st5" d="M33.4,46.3L33.4,46.3h21.4v-3.6H33.6v0.5C33.6,44.3,33.5,45.3,33.4,46.3L33.4,46.3z"/>
		<polygon class="st6" points="54.8,39 54.8,35.4 33.6,35.4 33.6,39 54.8,39 		"/>
		<polygon class="st5" points="33.6,17.4 54.8,17.4 54.8,13.8 33.6,13.8 33.6,17.4 		"/>
		<polygon class="st6" points="54.8,24.6 54.8,21 33.6,21 33.6,24.6 54.8,24.6 		"/>
		<polygon class="st5" points="54.8,31.8 54.8,28.2 33.6,28.2 33.6,31.8 54.8,31.8 		"/>
	</g>
</g>
<g id="AU_Logo_weiss" class="st0">
	<g class="st3">
		<path class="st7" d="M82.4-11.6c-0.2-0.5-0.3-1.1-0.3-1.8V-19h1.6v5.6c0,0.5,0.1,0.9,0.2,1.2c0.3,0.6,0.9,1,1.9,1
			c0.9,0,1.5-0.4,1.9-1c0.2-0.3,0.2-0.7,0.2-1.2V-19h1.7v5.7c0,0.7-0.1,1.3-0.3,1.8c-0.6,1.2-1.7,1.7-3.4,1.7
			C84.1-9.8,82.9-10.4,82.4-11.6L82.4-11.6z"/>
		<path class="st7" d="M92.5-19h1.6l3.9,4.9c0.4,0.5,0.7,1,1,1.4h0c0-0.5,0-1,0-1.5V-19h1.7v9.1h-1.5l-4-5.2c-0.4-0.5-0.7-1-1-1.4h0
			c0,0.4,0,0.9,0,1.4v5.1h-1.7V-19L92.5-19z"/>
		<polygon class="st7" points="103.7,-19 105.4,-19 105.4,-10 103.7,-10 103.7,-19 		"/>
		<path class="st7" d="M115.4-14.5c0-2-1.1-3.3-2.8-3.3c-1.7,0-2.8,1.2-2.8,3.3c0,2,1.1,3.2,2.8,3.2
			C114.2-11.2,115.4-12.4,115.4-14.5L115.4-14.5z M108-14.5c0-2.8,1.9-4.6,4.6-4.6c2.7,0,4.6,1.9,4.6,4.6c0,2.8-1.9,4.6-4.6,4.6
			C109.9-9.8,108-11.7,108-14.5L108-14.5z"/>
		<path class="st7" d="M119.8-19h1.6l3.9,4.9c0.4,0.5,0.7,1,1,1.4h0c0-0.5,0-1,0-1.5V-19h1.7v9.1h-1.5l-4-5.2c-0.4-0.5-0.7-1-1-1.4
			h0c0,0.4,0,0.9,0,1.4v5.1h-1.7V-19L119.8-19z"/>
		<path class="st7" d="M83.4,2.1c2,0,2.7-1.3,2.7-2.7c0-1.5-0.9-2.6-2.8-2.6h-0.8v5.3H83.4L83.4,2.1z M81.9-3.9h1.6
			c2.4,0,3.5,1.4,3.5,3.3c0,1.9-1.1,3.3-3.5,3.3h-1.5V-3.9L81.9-3.9z"/>
		<polygon class="st7" points="89,-3.9 92.1,-3.9 91.9,-3.3 89.7,-3.3 89.7,-1 91.9,-1 91.9,-0.4 89.7,-0.4 89.7,2.1 92.2,2.1
			92.2,2.7 89,2.7 89,-3.9 		"/>
		<path class="st7" d="M95.6-0.7c0.4,0,0.6-0.1,0.9-0.2c0.3-0.2,0.6-0.6,0.6-1.1c0-0.4-0.1-0.7-0.4-0.9c-0.2-0.2-0.5-0.3-1-0.3H95
			v2.5H95.6L95.6-0.7z M94.2-3.9h1.3c0.7,0,1.1,0.1,1.5,0.3c0.5,0.3,0.8,0.9,0.8,1.4c0,0.9-0.5,1.5-1.3,1.7v0c0.2,0.1,0.5,0.5,0.8,1
			l1.2,2h-0.9l-1.1-1.9c-0.3-0.5-0.6-0.8-0.8-0.9H95v2.8h-0.7V-3.9L94.2-3.9z"/>
		<path class="st7" d="M104.6,2.1c2,0,2.7-1.3,2.7-2.7c0-1.5-0.9-2.6-2.8-2.6h-0.8v5.3H104.6L104.6,2.1z M103.1-3.9h1.6
			c2.4,0,3.5,1.4,3.5,3.3c0,1.9-1.1,3.3-3.5,3.3h-1.5V-3.9L103.1-3.9z"/>
		<polygon class="st7" points="110.2,-3.9 113.3,-3.9 113.1,-3.3 110.9,-3.3 110.9,-1 113.1,-1 113.1,-0.4 110.9,-0.4 110.9,2.1
			113.4,2.1 113.4,2.7 110.2,2.7 110.2,-3.9 		"/>
		<path class="st7" d="M115.5,1.4c-0.1-0.3-0.2-0.7-0.2-1.1v-4.2h0.7v4.2c0,0.3,0,0.7,0.1,0.9c0.2,0.6,0.8,1,1.6,1
			c0.8,0,1.3-0.4,1.6-1c0.1-0.3,0.1-0.6,0.1-0.9v-4.1h0.7v4.2c0,0.4-0.1,0.8-0.2,1.1c-0.3,0.9-1.1,1.4-2.3,1.4
			C116.6,2.8,115.9,2.3,115.5,1.4L115.5,1.4z"/>
		<polygon class="st7" points="123.8,-3.3 121.9,-3.3 121.9,-3.9 126.6,-3.9 126.4,-3.3 124.5,-3.3 124.5,2.7 123.8,2.7 123.8,-3.3
					"/>
		<path class="st7" d="M128.1,1.7c0.3,0.2,0.8,0.4,1.4,0.4c0.7,0,1.3-0.3,1.3-1.1c0-1.6-2.9-1.4-2.9-3.4c0-0.9,0.7-1.7,1.9-1.7
			c0.6,0,1.1,0.1,1.4,0.3v0.7c-0.4-0.2-0.9-0.4-1.4-0.4c-0.6,0-1.2,0.3-1.2,1c0,1.5,2.9,1.3,2.9,3.4c0,1.1-0.8,1.8-2.1,1.8
			c-0.8,0-1.3-0.2-1.7-0.5L128.1,1.7L128.1,1.7z"/>
		<path class="st7" d="M138.3,2.4c-0.6,0.3-1.2,0.5-1.8,0.5c-2,0-3.1-1.4-3.1-3.3c0-1.9,1.3-3.4,3.3-3.4c0.7,0,1.3,0.2,1.6,0.3v0.7
			c-0.5-0.2-0.9-0.4-1.6-0.4c-1.5,0-2.5,1.2-2.5,2.7c0,1.6,0.9,2.7,2.4,2.7c0.6,0,1.1-0.2,1.6-0.4L138.3,2.4L138.3,2.4z"/>
		<polygon class="st7" points="140.1,-3.9 140.9,-3.9 140.9,-1 144.5,-1 144.5,-3.9 145.2,-3.9 145.2,2.7 144.5,2.7 144.5,-0.3
			140.9,-0.3 140.9,2.7 140.1,2.7 140.1,-3.9 		"/>
		<polygon class="st7" points="147.5,-3.9 150.7,-3.9 150.5,-3.3 148.3,-3.3 148.3,-1 150.5,-1 150.5,-0.4 148.3,-0.4 148.3,2.1
			150.8,2.1 150.8,2.7 147.5,2.7 147.5,-3.9 		"/>
		<path class="st7" d="M152.8-3.9h0.7l3.1,4c0.4,0.6,0.7,1,0.9,1.3h0c0-0.4,0-0.6,0-1.2v-4.2h0.7v6.6h-0.6l-3.2-4.2
			c-0.4-0.5-0.7-0.9-0.9-1.3h0c0,0.3,0,0.6,0,1.1v4.3h-0.7V-3.9L152.8-3.9z"/>
		<path class="st7" d="M166.2,0.3l-0.7-1.9c-0.2-0.6-0.3-0.9-0.4-1.1h0c-0.1,0.3-0.2,0.6-0.4,1.1l-0.7,1.9H166.2L166.2,0.3z
			 M164.9-3.9h0.5l2.5,6.6h-0.8l-0.7-1.8h-2.6l-0.6,1.8h-0.8L164.9-3.9L164.9-3.9z"/>
		<polygon class="st7" points="169.5,-3.9 170.3,-3.9 170.3,-0.9 170.3,-0.9 172.8,-3.9 173.7,-3.9 170.9,-0.6 173.9,2.7 172.9,2.7
			170.3,-0.3 170.3,-0.3 170.3,2.7 169.5,2.7 169.5,-3.9 		"/>
		<path class="st7" d="M178.7,0.3L178-1.6c-0.2-0.6-0.3-0.9-0.4-1.1h0c-0.1,0.3-0.2,0.6-0.4,1.1l-0.7,1.9H178.7L178.7,0.3z
			 M177.3-3.9h0.5l2.5,6.6h-0.8l-0.7-1.8h-2.6l-0.7,1.8h-0.8L177.3-3.9L177.3-3.9z"/>
		<path class="st7" d="M183.5,2.1c2,0,2.7-1.3,2.7-2.7c0-1.5-0.9-2.6-2.8-2.6h-0.8v5.3H183.5L183.5,2.1z M182-3.9h1.6
			c2.4,0,3.5,1.4,3.5,3.3c0,1.9-1.1,3.3-3.5,3.3H182V-3.9L182-3.9z"/>
		<polygon class="st7" points="189,-3.9 192.2,-3.9 192,-3.3 189.8,-3.3 189.8,-1 192,-1 192,-0.4 189.8,-0.4 189.8,2.1 192.3,2.1
			192.3,2.7 189,2.7 189,-3.9 		"/>
		<path class="st7" d="M194.3-3.9h0.7l1.8,2.8c0.3,0.4,0.5,0.7,0.6,0.9h0c0.2-0.3,0.4-0.6,0.6-1l1.7-2.7h0.7v6.6h-0.7v-4.2
			c0-0.3,0-0.8,0-1.1h0c-0.1,0.3-0.3,0.6-0.5,0.8l-1.6,2.6h-0.4l-1.8-2.6c-0.1-0.2-0.3-0.5-0.5-0.7h0c0,0.3,0,0.8,0,1.1v4.2h-0.7
			V-3.9L194.3-3.9z"/>
		<polygon class="st7" points="202.8,-3.9 203.6,-3.9 203.6,2.7 202.8,2.7 202.8,-3.9 		"/>
		<polygon class="st7" points="205.9,-3.9 209.1,-3.9 208.8,-3.3 206.6,-3.3 206.6,-1 208.8,-1 208.8,-0.4 206.6,-0.4 206.6,2.1
			209.1,2.1 209.1,2.7 205.9,2.7 205.9,-3.9 		"/>
		<path class="st7" d="M211.2-3.9h0.7l3.1,4c0.4,0.6,0.7,1,0.9,1.3h0c0-0.4,0-0.6,0-1.2v-4.2h0.7v6.6H216l-3.2-4.2
			c-0.4-0.5-0.7-0.9-0.9-1.3h0c0,0.3,0,0.6,0,1.1v4.3h-0.7V-3.9L211.2-3.9z"/>
		<path class="st7" d="M83.4,13.6c2,0,2.7-1.3,2.7-2.7c0-1.5-0.9-2.6-2.8-2.6h-0.8v5.3H83.4L83.4,13.6z M81.9,7.6h1.6
			c2.4,0,3.5,1.4,3.5,3.3c0,1.9-1.1,3.3-3.5,3.3h-1.5V7.6L81.9,7.6z"/>
		<polygon class="st7" points="89,7.6 92.1,7.6 91.9,8.2 89.7,8.2 89.7,10.5 91.9,10.5 91.9,11.1 89.7,11.1 89.7,13.6 92.2,13.6
			92.2,14.2 89,14.2 89,7.6 		"/>
		<path class="st7" d="M95.6,10.8c0.4,0,0.6-0.1,0.9-0.2c0.3-0.2,0.6-0.6,0.6-1.1c0-0.4-0.1-0.7-0.4-0.9c-0.2-0.2-0.5-0.3-1-0.3H95
			v2.5H95.6L95.6,10.8z M94.2,7.6h1.3c0.7,0,1.1,0.1,1.5,0.3c0.5,0.3,0.8,0.9,0.8,1.4c0,0.9-0.5,1.5-1.3,1.7v0
			c0.2,0.1,0.5,0.5,0.8,1l1.2,2h-0.9l-1.1-1.9c-0.3-0.5-0.6-0.8-0.8-0.9H95v2.8h-0.7V7.6L94.2,7.6z"/>
		<path class="st7" d="M102,7.6h0.8l1.3,4c0.1,0.4,0.3,1,0.4,1.5h0c0.2-0.6,0.3-1,0.5-1.5l1-2.8l-0.4-1.1h0.8l1.3,4
			c0.1,0.4,0.3,0.9,0.5,1.4h0c0.1-0.5,0.3-1,0.4-1.4l1.2-4h0.8l-2.2,6.6h-0.6l-1-3.1c-0.2-0.5-0.3-0.9-0.5-1.4h0
			c-0.1,0.5-0.3,0.8-0.5,1.4l-1.1,3.1h-0.6L102,7.6L102,7.6z"/>
		<polygon class="st7" points="112.3,7.6 113.1,7.6 113.1,14.2 112.3,14.2 112.3,7.6 		"/>
		<path class="st7" d="M115.4,13.2c0.3,0.2,0.8,0.4,1.4,0.4c0.7,0,1.3-0.3,1.3-1.1c0-1.6-2.9-1.4-2.9-3.4c0-0.9,0.7-1.7,1.9-1.7
			c0.6,0,1.1,0.1,1.4,0.3v0.7c-0.4-0.2-0.9-0.4-1.4-0.4c-0.6,0-1.2,0.3-1.2,1c0,1.5,2.9,1.3,2.9,3.4c0,1.1-0.8,1.8-2.1,1.8
			c-0.8,0-1.3-0.2-1.7-0.5L115.4,13.2L115.4,13.2z"/>
		<path class="st7" d="M120.9,13.2c0.3,0.2,0.8,0.4,1.4,0.4c0.7,0,1.3-0.3,1.3-1.1c0-1.6-2.9-1.4-2.9-3.4c0-0.9,0.7-1.7,1.9-1.7
			c0.6,0,1.1,0.1,1.4,0.3v0.7c-0.4-0.2-0.9-0.4-1.4-0.4c-0.6,0-1.2,0.3-1.2,1c0,1.5,2.9,1.3,2.9,3.4c0,1.1-0.8,1.8-2.1,1.8
			c-0.8,0-1.3-0.2-1.7-0.5L120.9,13.2L120.9,13.2z"/>
		<polygon class="st7" points="126.4,7.6 129.6,7.6 129.4,8.2 127.1,8.2 127.1,10.5 129.3,10.5 129.3,11.1 127.1,11.1 127.1,13.6
			129.6,13.6 129.6,14.2 126.4,14.2 126.4,7.6 		"/>
		<path class="st7" d="M131.7,7.6h0.7l3.1,4c0.4,0.6,0.7,1,0.9,1.3h0c0-0.4,0-0.6,0-1.2V7.6h0.7v6.6h-0.6l-3.2-4.2
			c-0.4-0.5-0.7-0.9-0.9-1.3h0c0,0.3,0,0.6,0,1.1v4.3h-0.7V7.6L131.7,7.6z"/>
		<path class="st7" d="M139.4,13.2c0.3,0.2,0.8,0.4,1.4,0.4c0.7,0,1.3-0.3,1.3-1.1c0-1.6-2.9-1.4-2.9-3.4c0-0.9,0.7-1.7,1.9-1.7
			c0.6,0,1.1,0.1,1.4,0.3v0.7c-0.4-0.2-0.9-0.4-1.4-0.4c-0.6,0-1.2,0.3-1.2,1c0,1.5,2.9,1.3,2.9,3.4c0,1.1-0.8,1.8-2.1,1.8
			c-0.8,0-1.3-0.2-1.7-0.5L139.4,13.2L139.4,13.2z"/>
		<path class="st7" d="M149.6,13.9c-0.6,0.3-1.2,0.5-1.8,0.5c-2,0-3.1-1.4-3.1-3.3c0-1.9,1.3-3.4,3.3-3.4c0.7,0,1.3,0.2,1.6,0.3v0.7
			c-0.5-0.3-0.9-0.4-1.6-0.4c-1.5,0-2.5,1.2-2.5,2.7c0,1.6,0.9,2.7,2.4,2.7c0.6,0,1.1-0.2,1.6-0.4L149.6,13.9L149.6,13.9z"/>
		<polygon class="st7" points="151.5,7.6 152.2,7.6 152.2,10.5 155.8,10.5 155.8,7.6 156.6,7.6 156.6,14.2 155.8,14.2 155.8,11.2
			152.2,11.2 152.2,14.2 151.5,14.2 151.5,7.6 		"/>
		<path class="st7" d="M162,11.8l-0.7-1.9C161.2,9.3,161,9,161,8.8h0c-0.1,0.2-0.2,0.6-0.4,1.1l-0.7,1.9H162L162,11.8z M160.7,7.6
			h0.5l2.5,6.6h-0.8l-0.7-1.8h-2.6l-0.7,1.8h-0.8L160.7,7.6L160.7,7.6z"/>
		<polygon class="st7" points="165.4,7.6 168.5,7.6 168.3,8.2 166.1,8.2 166.1,10.5 168.3,10.5 168.3,11.1 166.1,11.1 166.1,14.2
			165.4,14.2 165.4,7.6 		"/>
		<polygon class="st7" points="171.7,8.2 169.8,8.2 169.8,7.6 174.5,7.6 174.3,8.2 172.4,8.2 172.4,14.2 171.7,14.2 171.7,8.2 		"/>
		<polygon class="st7" points="176,7.6 179.2,7.6 178.9,8.2 176.7,8.2 176.7,10.5 178.9,10.5 178.9,11.1 176.7,11.1 176.7,13.6
			179.2,13.6 179.2,14.2 176,14.2 176,7.6 		"/>
		<path class="st7" d="M181.3,7.6h0.7l3.1,4c0.4,0.6,0.7,1,0.9,1.3h0c0-0.4,0-0.6,0-1.2V7.6h0.7v6.6h-0.6l-3.2-4.2
			c-0.4-0.5-0.7-0.9-0.9-1.3h0c0,0.3,0,0.6,0,1.1v4.3h-0.7V7.6L181.3,7.6z"/>
		<path class="st7" d="M35,1.6c1.5,3.9,5.3,6.3,10.2,6.3v0c-0.2,0-0.3,0-0.5,0c-3.3-0.2-5.7-2.1-6.9-5.6l-0.1-0.2
			c-0.3-0.8-0.7-2.6-0.7-6v-13.2V-19h-3v15.1c0,0.4,0,0.8,0,1.1c0.2,2.3,0.6,3.6,0.8,4.2L35,1.6L35,1.6z"/>
		<path class="st7" d="M72.9,14v-3H50.7c-1.9,1.6-4.4,2.6-7.2,3H72.9L72.9,14z"/>
		<polygon class="st7" points="88.9,-28 84.7,-31 55.2,-31 55.2,-28 88.9,-28 		"/>
		<path class="st7" d="M54,6.8c-0.2,0.4-0.4,0.8-0.7,1.2h19.5V5H54.6C54.4,5.7,54.2,6.3,54,6.8L54,6.8z"/>
		<path class="st7" d="M72.9,2v-3H55.2v0.4c0,1,0,1.8-0.1,2.6H72.9L72.9,2z"/>
		<polygon class="st7" points="72.9,-4 72.9,-7 55.2,-7 55.2,-4 72.9,-4 		"/>
		<polygon class="st7" points="55.2,-22 72.9,-22 72.9,-25 55.2,-25 55.2,-22 		"/>
		<polygon class="st7" points="72.9,-16 72.9,-19 55.2,-19 55.2,-16 72.9,-16 		"/>
		<polygon class="st7" points="72.9,-10 72.9,-13 55.2,-13 55.2,-10 72.9,-10 		"/>
	</g>
</g>
</svg>
