<?xml version="1.0" encoding="utf-8"?>
<!-- Generator: Adobe Illustrator 24.0.1, SVG Export Plug-In . SVG Version: 6.00 Build 0)  -->
<!DOCTYPE svg PUBLIC "-//W3C//DTD SVG 1.1//EN" "http://www.w3.org/Graphics/SVG/1.1/DTD/svg11.dtd" [
	<!ENTITY ns_extend "http://ns.adobe.com/Extensibility/1.0/">
	<!ENTITY ns_ai "http://ns.adobe.com/AdobeIllustrator/10.0/">
	<!ENTITY ns_graphs "http://ns.adobe.com/Graphs/1.0/">
	<!ENTITY ns_vars "http://ns.adobe.com/Variables/1.0/">
	<!ENTITY ns_imrep "http://ns.adobe.com/ImageReplacement/1.0/">
	<!ENTITY ns_sfw "http://ns.adobe.com/SaveForWeb/1.0/">
	<!ENTITY ns_custom "http://ns.adobe.com/GenericCustomNamespace/1.0/">
	<!ENTITY ns_adobe_xpath "http://ns.adobe.com/XPath/1.0/">
]>
<svg version="1.1" id="Ebene_1" xmlns:x="&ns_extend;" xmlns:i="&ns_ai;" xmlns:graph="&ns_graphs;"
	 xmlns="http://www.w3.org/2000/svg" xmlns:xlink="http://www.w3.org/1999/xlink" x="0px" y="0px" viewBox="0 0 328 145.8"
	 style="enable-background:new 0 0 328 145.8;" xml:space="preserve">
<style type="text/css">
	.st0{fill:#ADB4B9;}
	.st1{fill:#BB1335;}
	.st2{fill-rule:evenodd;clip-rule:evenodd;fill:#ADB4B9;}
	.st3{fill-rule:evenodd;clip-rule:evenodd;fill:#020100;}
	.st4{fill:#020100;}
</style>
<metadata><?xpacket begin="﻿" id="W5M0MpCehiHzreSzNTczkc9d"?>
<x:xmpmeta xmlns:x="adobe:ns:meta/" x:xmptk="Adobe XMP Core 5.6-c148 79.164050, 2019/10/01-18:03:16        ">
   <rdf:RDF xmlns:rdf="http://www.w3.org/1999/02/22-rdf-syntax-ns#">
      <rdf:Description rdf:about=""
            xmlns:dc="http://purl.org/dc/elements/1.1/"
            xmlns:xmp="http://ns.adobe.com/xap/1.0/"
            xmlns:xmpGImg="http://ns.adobe.com/xap/1.0/g/img/"
            xmlns:xmpMM="http://ns.adobe.com/xap/1.0/mm/"
            xmlns:stRef="http://ns.adobe.com/xap/1.0/sType/ResourceRef#"
            xmlns:stEvt="http://ns.adobe.com/xap/1.0/sType/ResourceEvent#"
            xmlns:stMfs="http://ns.adobe.com/xap/1.0/sType/ManifestItem#"
            xmlns:illustrator="http://ns.adobe.com/illustrator/1.0/"
            xmlns:xmpTPg="http://ns.adobe.com/xap/1.0/t/pg/"
            xmlns:stDim="http://ns.adobe.com/xap/1.0/sType/Dimensions#"
            xmlns:xmpG="http://ns.adobe.com/xap/1.0/g/"
            xmlns:pdf="http://ns.adobe.com/pdf/1.3/">
         <dc:format>image/svg+xml</dc:format>
         <dc:title>
            <rdf:Alt>
               <rdf:li xml:lang="x-default">Video und Film</rdf:li>
            </rdf:Alt>
         </dc:title>
         <xmp:CreatorTool>Adobe Illustrator 24.0 (Windows)</xmp:CreatorTool>
         <xmp:CreateDate>2020-06-25T11:05:47+02:00</xmp:CreateDate>
         <xmp:ModifyDate>2020-06-25T11:05:47+02:00</xmp:ModifyDate>
         <xmp:MetadataDate>2020-06-25T11:05:47+02:00</xmp:MetadataDate>
         <xmp:Thumbnails>
            <rdf:Alt>
               <rdf:li rdf:parseType="Resource">
                  <xmpGImg:width>256</xmpGImg:width>
                  <xmpGImg:height>116</xmpGImg:height>
                  <xmpGImg:format>JPEG</xmpGImg:format>
                  <xmpGImg:image>/9j/4AAQSkZJRgABAgEASABIAAD/7QAsUGhvdG9zaG9wIDMuMAA4QklNA+0AAAAAABAASAAAAAEA&#xA;AQBIAAAAAQAB/+4ADkFkb2JlAGTAAAAAAf/bAIQABgQEBAUEBgUFBgkGBQYJCwgGBggLDAoKCwoK&#xA;DBAMDAwMDAwQDA4PEA8ODBMTFBQTExwbGxscHx8fHx8fHx8fHwEHBwcNDA0YEBAYGhURFRofHx8f&#xA;Hx8fHx8fHx8fHx8fHx8fHx8fHx8fHx8fHx8fHx8fHx8fHx8fHx8fHx8fHx8f/8AAEQgAdAEAAwER&#xA;AAIRAQMRAf/EAaIAAAAHAQEBAQEAAAAAAAAAAAQFAwIGAQAHCAkKCwEAAgIDAQEBAQEAAAAAAAAA&#xA;AQACAwQFBgcICQoLEAACAQMDAgQCBgcDBAIGAnMBAgMRBAAFIRIxQVEGE2EicYEUMpGhBxWxQiPB&#xA;UtHhMxZi8CRygvElQzRTkqKyY3PCNUQnk6OzNhdUZHTD0uIIJoMJChgZhJRFRqS0VtNVKBry4/PE&#xA;1OT0ZXWFlaW1xdXl9WZ2hpamtsbW5vY3R1dnd4eXp7fH1+f3OEhYaHiImKi4yNjo+Ck5SVlpeYmZ&#xA;qbnJ2en5KjpKWmp6ipqqusra6voRAAICAQIDBQUEBQYECAMDbQEAAhEDBCESMUEFURNhIgZxgZEy&#xA;obHwFMHR4SNCFVJicvEzJDRDghaSUyWiY7LCB3PSNeJEgxdUkwgJChgZJjZFGidkdFU38qOzwygp&#xA;0+PzhJSktMTU5PRldYWVpbXF1eX1RlZmdoaWprbG1ub2R1dnd4eXp7fH1+f3OEhYaHiImKi4yNjo&#xA;+DlJWWl5iZmpucnZ6fkqOkpaanqKmqq6ytrq+v/aAAwDAQACEQMRAD8A9U4q7FXYq7FXYq7FXYq7&#xA;FXYq7FXYq7FXYq7FXYq7FXYq7FXYq7FXYq7FXYqo3V5bWqB534hjRFoSzHwVRVmPsMVtDifVLjeC&#xA;BbWM9JLj4n/5FIR+Lg+2FDf6PuX/AL6/mbxWMRxr9FF5f8NitO/RcdSRcXIJ7+s5+4EkY2tONlfJ&#xA;vDfOfBJ0SRf+FEb/APDYrTX167t/97bf92OtxBWRB7slOa/QCPfFbRcM0U0aywuskbCqupBBHsRg&#xA;SvxV2KuxV2KuxV2KuxV2KuxV2KuxV2KuxV2KuxV2KuxV2KuxV2KuxV2KuxV2KoS8vXSRbW2QSXkg&#xA;5AGvBF6c5CO3gOp/EKLbtNPjhczSMZ7thR7h+tP5VHRF9hitIrFLsVdirsVdiqBnsJI5GubAiKdj&#xA;WWI7RS/6wHRv8ob+NcKKVrK9juoyyqY5EPCaF9mRx+yf4HvgUFEYpdirsVdirsVdirsVdirsVdir&#xA;sVdirsVdirsVdirsVdirsVdirsVdiqHvrsWtuXC85WISGLoXkbZV/r4DfFBasbP6tES7epcynncT&#xA;dOT+3go6KOwxUBE4pdiqmtzbtO0CyKZkALRgjkAa02+jFWrV7poq3MaxS8m+FG5DjX4d6Dt1xVVx&#xA;V2KuxVA6hDJE41C2UtNEKTRD/dsQ3K/6y9V+7vhQUZFLHNEksTB45FDIw6EEVBwJXYq7FXYq7FXY&#xA;q7FXYq7FXYq7FXYq7FXYq7FXYq7FXYq7FXYq7FXYqkl/qlvDqheVXkNqvC2hRSS87qGem1OQQqBv&#xA;+0cNMSURFrnMEm0mSg5NyMalVHUlXdH2+WNJtXTWNPIHOT0amlZlaMVrSgZgFP0HGltWb62bqJo2&#xA;j+qcT6gIJcsfslSNqYEtLYWi3j3qxgXUi8Hl3qVFNvDtitNzS3CzwpHD6kUhPqy8gOAAqNu9emKu&#xA;Npbm7F3x/fhDGGqfsk16dMVpZLqdjHIYjKHmHWGMGSQf7BAzfhjSLQk2sz9LaykmPYsaKfpQSU/2&#xA;VMNLaEPmaeNUimto1vWqTb+upoPcoHp9NMaRxIjRL+Fri5sVI5RUmRByoqy7ugLBahXrTboRiUgp&#xA;vgS7FXYq7FXYq7FXYq7FXYq7FXYq7FXYq7FXYq7FXYq7FXYq7FXGtDTr2r0xVgdtHDbzrJdxqY7p&#xA;TOSFiaKkjEjkboKqih2Cv88k1pt60c9pPFEVMUi1R1WqKwIZeXpNLHx5DfbFkoadezWM8yyJyhkZ&#xA;jJCzCtXqwWhogqeXFq0YUFdsUApxoksUfOxTaJR69nXasEprSh3+BiVp22wFkG7/AMyaVZXK20sh&#xA;aZjxIUCik/zMSFHXxxpTJH2tzFcwJPEaxuKg/TTAlL9VvIWnSxaTjHxM16RXaFBXjt/Oevt8xhCC&#xA;UIbv04Ymt4BBGUMcVggVfUmYAOSo4/BF9k++5oBXFCz4RBHBIyTyRRKrcWEq8gu/FTFO2KrJp5I7&#xA;dhO0kMSirfHNAKf7C1j/AAwqhdJjuxqNjKkZtrCQssTxszKwZTJRvVCk8zH/ACA++JQGYZFm7FXY&#xA;q7FXYq7FXYq7FXYq7FXYq7FXYq7FXYq7FXYq7FXYq7FWpCwjYqKsAeI98VQOn21vPotnDNGskXoQ&#xA;/AwBGygjb2woHJA3Hl6aNnmsZy0jNz4T0NKmvwSqA6bdOoxtFJa8pvF+p3A9G+hqgSai1515ROy/&#xA;C6vTZtjX4hXChqxuCSF9Ro5oP3sczqeaA/C7Sof2eQ4Tb9fi98VCbRaauo6NEZ1Rpy7XMdfijEjS&#xA;F1qP2l3479sCasL2vNWmtwljZCAj4WkkZCqsNiECk1oe5p8j0xTaVw2JDIIpfVmumJW4ejmRgP7w&#xA;Agj04xVgT9pqdgowsaRtt6SRyyBKFz9VtIm+0sEHwUC8HY8mBJ+E+/TAlAtLc3NwLSGJpZT9pGZS&#xA;I16cnEpuAB7cFr2GFCb2Hl2xt2WaZEnuQKc/TSNB/qxoAo+ZqffBbIBEapUGzp/y0x/iCMQpRuBL&#xA;sVdirsVdirsVdirsVdirsVdirsVdirsVdirsVdirsVdirsVdiqC0Wo0yCI7GAGAj3hYx/wDGuEoC&#xA;NwJS3WdMa6Rbi3qt5D9gg8eaftRsfA9q7V9q4QUEMerbySC4ZJCC/wC+C/BLBMpoZU2HegkoB4la&#xA;UwsU88t3lvJYNDHKHFvIUVqjeNzziPbqjAfOowFlEobzGbdIYrhWROMjRy28pKxyKTViUGzFacxW&#xA;tRXY4hBQ0kjjlBDOLnUZwInlRaRwRk14Iu9FHj3+ZwoUbm4Ny8NjpwD/AAiKNTQ0RRTlJX4WUbk1&#xA;DgnurbYqybTtOt7G3EUQqxoZJT9p2pTkxyLIBE4pQV9V72wiHaR5mH+SkbL/AMSkXCgo3Al2KuxV&#xA;2KuxV2KuxV2KuxV2KuxV2KuxV2KuxV2KuxV2KuxV2KuxVA23+j6lcW52S4/0mH50CSqPkeLf7LCh&#xA;HYEuxVLNR0KK5m+tW8htbzasqAENTpzU9dtq7Gm3TDaCEpn8s38LfWopEd0Kl44VaJ5FRy9Pt8eQ&#xA;rsSNz174bY8KodYi1TTb2No0aaJPrNsGGzxj9sA7ijKykf1xpN2lehQ6NdxG3uLuaCRDTiRHDHKr&#xA;D4D9jcsnZmJ6+OJYimYWGnWdhEY7ZOIahdiSzMQKVZjucizAROKXYqgbUi41G4uRvHAPq0R9weUp&#xA;H+y4r81woR2BLsVdirsVdirsVdirsVdirsVdirsVdirsVdirsVdirsVdirsVdiqF1G2lliWSCgur&#xA;dvUgJ2BIFCh9nUlfxxQVS0uorqBZo6gHZkbZlYbMrDsQdjilWxV2KqV3cfV7d5uDylaUjjBZiSaA&#xA;AD3OKvPbe+ktWHMRm7iSNLdpVeNGj4SmUNy4n4jIPatMm1WqaaIEt1t7aIXV1wpIIEB5GoqrEKwI&#xA;335DifZhXFIZrotlc2dkIrhwzliwRSSsanoiltyB/tbZEswGF615w161/OnQPK8Myro1/YPcXMBR&#xA;CzSKt0QQ5HIf3K9DlJkeMB6HT6DFLs3JnI/eRmADfT0dPiWb6jdSRqtvb0N5cVWEHcKB9qRv8lPx&#xA;NB3y154q1rbR21vHBHXhGKAnck9yT4k7nFKrirsVdirsVdirsVdirsVdirCPzi823nlPyaNbtrr6&#xA;msGoael3P6ay0tZbuNLgcGV+sTMNhXw3xVDD88fI8VrqUupC+0i50uOGabTtQtJbe8kiuX9KB4IC&#xA;C0okkPEceh+1TFVOf8+PItnptxeakuoabPZ3MFneaXd2csd7FJdo0luWgoSVkWNuJWtcVYtF+aHm&#xA;DUvMHmkHUrry7plnceW00y2vdNikuYf0m0sc0UkJMbj13CfE7ngNwO2Ksoi/PryDJqEtp/uQWC3v&#xA;jpV3qZspzZQXvq+ksMs6qyqXbp2oRWlcVRX5vec7vyjpehanDO8FtLrdna6kIoRPJJayCQyRInF2&#xA;LPxAHAcvDFULc/nz5DstPurvUhf6dPY3MFpeabd2csd5G90jSQMYKFikixtxK1xVW1T86NA0mxt9&#xA;Q1PRtds7GSNJru5l02YR2aSOUU3TCvD7NaCpAIr1xVZrP56eRtJ1XUdPuF1CUaM6LrF7bWU09raJ&#xA;KivHLNLGGAR+dBSp67UFcVS/8x/zs0TR9G8zWujNez6rpenysNVs7N7qys7ya3L2azzcXiBZ2Q7g&#xA;r/N3xVdYfnn5ZsdI05dYa9u7qDT7C48w6pa2cktpZy3kCSKbqWJQkXPnyoooB4Yqib78/fIFlqGo&#xA;2s318w6PdGz1fUY7KaWztH5BVeadAyhHY0UivypiqQ6V+eMOl+Y/Otl5k/SF5YaNqnCK7s7Bpraw&#xA;sGhQo1xLAgopk57tyb6MVZqfOvl70vMGt2NwWs/LgZtdopZJI47Vbv1IStebei60I+108CFFIJ/z&#xA;r8lLrV3pNL1pNOt473VLpbZzbWltLaC8Sa4m+yitGwA7ltqYpS//AJXp5T1BZdPt/wBJaRqV1p91&#xA;f6dcXunSoGt4Ldp/rcSycVlQKvJRX4um1cVReifm75dKW2nTz3mpz2Vhb3Gu6/HZNFYwGSzF16t0&#xA;wLJB6kfx8QWC141xVinnX89oRp3lrWNHtNVsNGuNesYbu+utNIS+sJ4rh2W0EiySOXMKlSih+lOu&#xA;Ksui/OnyMmj3V26Xtpc2N1Dp8uhy2U0Wo/W7pS1vAlqV5M0qAsnHam+Ksg8n+dtF812t1Lpy3EE9&#xA;hObXULC9he3ureYKH4SxPuKqwII2Pjirz3zbLLH/AM5GeVniiM0g0qQJGCBUlL0bk9Bvv7ZRL+8D&#xA;1uk/4xc3/DB9+N6vY2TxF57hhLeTU9WQV4gDoiA9FH49Tl7yICKxS7FXYq7FXYq7FXYq7FXYq7FW&#xA;F/m95S1zzX5MfSNEkgi1L63Z3MMl0W9Jfq1ykzFgoJOydO+KvPvOf5NfmD59utQ1vXptM0vWILO2&#xA;stCs7Oa4nt2+r3Yu5XuZWjhkUSMnFeC1UfLdVfD+Teu3B067OhaXo15ba7o9/eehqN7ftPaafI7z&#xA;82uUpX4/3aAeNTiqceZPyt8y6j5p81apbtbC21m+8s3NoHkYME0aYvdcxxNCR9jx9sVQ15+UfmSX&#xA;8qPMvlaP6oNV1fXZNVtnLkR+k2pRXQLvwqH9GMjp12riqY+ffyjkmtrC78kQwW+u22s2eqyPqNzd&#xA;SW7i1Z5KFWabjV2H2FBp0xVJNV/Kbz55i8zw+a9bGmwXx1nRJzpltLJLDFpulSSSS8pXij9WaRpT&#xA;QcAKbVxVD/mv+Tvn3zTrfmKa1+oalZatbwxaPJqF5dxHTPSj4ypFaxo8DmZ/iDncVP0qsgn/ACw1&#xA;9/LH5jacv1YXvmsBdOfmaUXT4rYCVuNVpIj9K7YqkV5+Vf5o6b5e80+XPLzaRcaZ5sg5zz3ssyT2&#xA;1xJZx21zGqpFIsqyen+6aq8O48VUqi/IDzNpt1dBNM0rzBZataWaTxX2oX9kLW6htkgnqtqpW4hd&#xA;l5CoDdvmpZPJ+UWuJ+X/AOY3l61Fql35o1O6utIJkbiLaRIFhWZypYFfSbbfFCXt+Wn5sWtv510n&#xA;Tf0M2lecpXRp7macTWsUtqltLKESFllLJUKhYUIB3BNFVurflJ+ZWmaX5q8u+VLrTZ9C8zWcFv8A&#xA;WL+SeO5tzBYJZSJwjR0f6wsQHLkOPcHFUde/lUYPLf5hvr93Dp9prWnWSjUY2d/Ri03S4oZXmQBe&#xA;SJLCzU3qvgTirAxfeZ/PHn3R9LF/ousy6X5d1e2e48vyS3FvGbyzFtHLcTMgCtLIV/dLXhTvXZVN&#xA;9R/KLWdWv7C2mNn5bt/0Umla7rNvcXaz38AsFtRFNZywxQOY5fiVy/2QPAUaW08m0fztq9p5M0rW&#xA;ZfL6weU9Y02/e9tL93NzDZRTRsy27wp6bUdTx5nfpjSLCF/ML8q9W8zeYNb1jS3glnl1HSdR0uF/&#xA;rKwzixtJLa4huJoVUxcxJ8LK9fljSbZt+W/krVtEttRkl0yx8uz6lMjzJY3V1qUrpFGFQyTXYVeY&#xA;JbopHGmKljutWkNr/wA5H+VUiB+LTJWdmJZmYx3oLMxqSdsol/eB6zR/8Y2b/hg+/G9jy95N2Ksc&#xA;8xebW0rUIrWOETLwEly9T8Cs3HthAYmVL9Y81rpurw2siK1rJbtcNLX4qgOVVe3xFAB88QFMqLo/&#xA;Ml2nluTWbu3SIne2hBPxAkKpNfE/hjW68W1rLbzXLN5du9SMCrc2j8JLck0rUD59GxpeLZS03zjc&#xA;yXlpbajZfVlvwGtZlbkrctlqPc7dcNIElukea9X1G8WNLOEW4l9OWT1VDAdyEYhjt4DEhRIlD6d5&#xA;+luIr157dI2t4DNEAT8TBgoU192GPCom2PPV3+hG1H6rHzFyLf0+TUoYy9fwx4V4tle581av+lrq&#xA;ws7OGX6s1OTyrGSP9mVH3Y0vEbTTzNrUukacLuONZWMix8WJAoQTXb5YAGUjSX2vm669eaz1Cy+q&#xA;3iQPPCA3JX4oXpt7Dxw0jiU9L816texPcNZwparHK/MSryrGpIHCvPcjwxIQJFbpXnS8ubyyhurN&#xA;I4b+ohlR6nZiu67/ALS0xIUSR+reY5dP1YWbxKYWtZLhJKmpaNXbj/wmABJNJdZ+drm5t7Yi2QXN&#xA;xdrbCPkaBGUHn97YaQJOHnmVdJlvHtlMq3P1aKMMQv2eXJiceFeJF3vma/0/RTfXtpGJnlEdukcg&#xA;dHBXlz5LXbY4KSZbLb7zJqtjov1+5tIlkaVUjVJA6MjKTyDKT3GNKZbKF15t1e00s3tzZQqxmSKN&#xA;VlVwQyOxJ4FqEcR1w0jiKvH5xV7q1X0h9Wmsmu5XBJZTGH5oB3oY6YKTxL9D8yX+oRvdzW0UOnIr&#xA;s8yyh3Th2ZOvbwxIUSW6X5k1jU7hZLbTf9xhl9M3DOAwWtOVNq070xIUSJQX+O5/0H+kPQi9f6z6&#xA;Hocj9j0+fPx67YeFHHsjvM3mt9IuoYIoBOSnqzkkjihbivTxNcACZSprVdZfTLu0tNJsoJPrqGRa&#xA;FYgadN/hHTxxAUyQ195p8x2T26T6ZEpuiEg/eq3Jtqj4WPc98NBBkXT+a9dj1D6gLCH60saySI8q&#xA;qASASORYL38caXiKuvm6ePXbbTLqBIxMkXqOrcuMksYbiCPhI5mmNJ4t0w8s61Lq+nG7kjWJhI0f&#xA;FSSKAA13+eAhMTbzjzJ/60l5U/7ZUv8AxC+zHl/eB67R/wDGNm/4YPvxvXcveSdirCL3ytruo3Wr&#xA;Xcr/AFYzfDBAQj+siUKLyDfB9hclbWYkqNx5W1vUptPF3B6Sw2Zt5ZS8Z4yR+p6RPFiTX4K42vCS&#xA;rzaT5o1DStO0u5g9BYJf39yXicemgAjPENVqAnb2xsJorW8t+YIF1m1VfrcV8iulxWOPnMHVj8Bb&#xA;4ftNjaOEr7HQPMF1faUb63W0tdKCcTzV2coQf2SepUY2kAqWheXtVstRSa40gSN64Zbs3CgxoTQn&#xA;grUagqemJKAENb+StXa3sUlg9NvXZbwc0NICUYHZt+jbYbXhKtc+V9cfRLi1S1/fPqHronOMfuvT&#xA;ZeVeVOp6YLXhNKl95e1NtevbxtJF/BK/KAm4WKlKb7MD9+NqRunfnDTb/UtGSC0i9Sf1Udk5KtAA&#xA;a7sQO+AMpCwlaaHr99qUuo31utsYrWSC2gDq5YtGyAVBI/bO5phtFFDaL5c1O1Ro5tIC3DRTp9e+&#xA;sKTV42Cj0w5XckLiSgBvQ/LGs6bf6beC2+KrpfLzjPFSxAb7X8pr8PhiSoiQmXnfQtR1EWkunxep&#xA;NF6iSAMq/A4H8xX3xBTIWgrDyrqMHmeCYw002Di4k5JTmIQPsg8vtjwxvZRHd1louqWmjXNvc6SL&#xA;317ouYDKikJwoHVlJoa7eONqBs7TdF1ez0KeG400XiTzhl09pFBjj4mrh67GtOm+NqAaQi+VtfPl&#xA;+4thBRpblJYbQyKSiqGDHkSBvUYbRwmlaby9qsmlC1t9IFmy3MMxAuFk5gI6s3xNtSo298FrSpae&#xA;WtWsfMU1zFbCawjSb6sC6cSHRmWPiTWnJuO4xtPCbW6Z5c1GbV5pjZfoqxmgkinhEgcMZEK/CAfE&#xA;8qdBTElAG6M0CHzPpDJpbWST2Ym2uw6jjGzfE1K/TTriaSLCSf4I1T9B/wC8X+5X6z/v1P8Aef0/&#xA;9fh9v6cNseHZM77yxrmp6jql3I/1VJF9O3jIST1Y1+yKhvgqUU4LZGJK2Py3ql5Jo0ep2hNvaxvD&#xA;dVkT7IJ9P7DculOmNrwpjr2gTu2jxabBW2sZuTjmPgTkp/bap6HEFJCA13y/qNx5imvBpgv7R0VV&#xA;UzLD8QUCuzK21MQUEbuuvLOpXVxdy/Vvq/Kzg+qASK3GeIIeANa7cSvI42vCm/k3TL7TtIa3vI/S&#xA;mMrPx5K2xCgGqkjtgJTEUHn/AJk/9aS8qf8AbKl/4hfZjy/vA9fo/wDjGzf8MH343ruXvJOxV2Ku&#xA;xV2KuxV2KuxV2KuxV2KuxV2KuxV2KuxV2KuxV2KuxV2KuxV2KuxV2KuxV2KuxV2KuxV2KvIvMn/r&#xA;SXlT/tlS/wDEL7KJf3get0f/ABjZv+GD78b13L3knYq7FXYq7FXYq7FXYq7FXYq7FXYq7FXYq7FX&#xA;Yq7FXYq7FXYq7FXYq7FXYq7FXYq7FXYq7FXYq7FWOX3+CP8AG+n/AFz6v/i76u36O5V9f0KS8uHa&#xA;lPV/HIGr83Y4/wA1+Vlw8X5fi9Xde3/HWR5N1zsVf//Z</xmpGImg:image>
               </rdf:li>
            </rdf:Alt>
         </xmp:Thumbnails>
         <xmpMM:OriginalDocumentID>uuid:AF0436EA903B11DB90DFD5CCDBF73423</xmpMM:OriginalDocumentID>
         <xmpMM:DocumentID>xmp.did:37e94e55-84f6-ee40-a7fe-9e664e52d200</xmpMM:DocumentID>
         <xmpMM:InstanceID>xmp.iid:37e94e55-84f6-ee40-a7fe-9e664e52d200</xmpMM:InstanceID>
         <xmpMM:RenditionClass>proof:pdf</xmpMM:RenditionClass>
         <xmpMM:DerivedFrom rdf:parseType="Resource">
            <stRef:instanceID>xmp.iid:4647f269-2853-f24e-81f9-e2b779b7b67b</stRef:instanceID>
            <stRef:documentID>xmp.did:4647f269-2853-f24e-81f9-e2b779b7b67b</stRef:documentID>
            <stRef:originalDocumentID>uuid:AF0436EA903B11DB90DFD5CCDBF73423</stRef:originalDocumentID>
            <stRef:renditionClass>proof:pdf</stRef:renditionClass>
         </xmpMM:DerivedFrom>
         <xmpMM:History>
            <rdf:Seq>
               <rdf:li rdf:parseType="Resource">
                  <stEvt:action>saved</stEvt:action>
                  <stEvt:instanceID>xmp.iid:e863d000-90c7-cc4e-8bea-82ba6beccf6b</stEvt:instanceID>
                  <stEvt:when>2020-06-25T10:56:50+02:00</stEvt:when>
                  <stEvt:softwareAgent>Adobe Illustrator 24.0 (Windows)</stEvt:softwareAgent>
                  <stEvt:changed>/</stEvt:changed>
               </rdf:li>
               <rdf:li rdf:parseType="Resource">
                  <stEvt:action>saved</stEvt:action>
                  <stEvt:instanceID>xmp.iid:37e94e55-84f6-ee40-a7fe-9e664e52d200</stEvt:instanceID>
                  <stEvt:when>2020-06-25T11:05:47+02:00</stEvt:when>
                  <stEvt:softwareAgent>Adobe Illustrator 24.0 (Windows)</stEvt:softwareAgent>
                  <stEvt:changed>/</stEvt:changed>
               </rdf:li>
            </rdf:Seq>
         </xmpMM:History>
         <xmpMM:Manifest>
            <rdf:Seq>
               <rdf:li rdf:parseType="Resource">
                  <stMfs:linkForm>EmbedByReference</stMfs:linkForm>
                  <stMfs:reference rdf:parseType="Resource">
                     <stRef:filePath>F:\02_ArbeitBackup\Kunden\BBAW\CD\logo\LOGOversionen\BBAW_Logo_hellerHintergrund.EPS</stRef:filePath>
                     <stRef:documentID>0</stRef:documentID>
                     <stRef:instanceID>0</stRef:instanceID>
                  </stMfs:reference>
               </rdf:li>
            </rdf:Seq>
         </xmpMM:Manifest>
         <xmpMM:Ingredients>
            <rdf:Bag>
               <rdf:li rdf:parseType="Resource">
                  <stRef:filePath>F:\02_ArbeitBackup\Kunden\BBAW\CD\logo\LOGOversionen\BBAW_Logo_hellerHintergrund.EPS</stRef:filePath>
                  <stRef:documentID>0</stRef:documentID>
                  <stRef:instanceID>0</stRef:instanceID>
               </rdf:li>
            </rdf:Bag>
         </xmpMM:Ingredients>
         <illustrator:StartupProfile>Video</illustrator:StartupProfile>
         <xmpTPg:NPages>1</xmpTPg:NPages>
         <xmpTPg:HasVisibleTransparency>False</xmpTPg:HasVisibleTransparency>
         <xmpTPg:HasVisibleOverprint>False</xmpTPg:HasVisibleOverprint>
         <xmpTPg:MaxPageSize rdf:parseType="Resource">
            <stDim:w>328.007681</stDim:w>
            <stDim:h>145.781191</stDim:h>
            <stDim:unit>Pixels</stDim:unit>
         </xmpTPg:MaxPageSize>
         <xmpTPg:PlateNames>
            <rdf:Seq>
               <rdf:li>Cyan</rdf:li>
               <rdf:li>Magenta</rdf:li>
               <rdf:li>Yellow</rdf:li>
               <rdf:li>Black</rdf:li>
            </rdf:Seq>
         </xmpTPg:PlateNames>
         <xmpTPg:SwatchGroups>
            <rdf:Seq>
               <rdf:li rdf:parseType="Resource">
                  <xmpG:groupName>Standard-Farbfeldgruppe</xmpG:groupName>
                  <xmpG:groupType>0</xmpG:groupType>
                  <xmpG:Colorants>
                     <rdf:Seq>
                        <rdf:li rdf:parseType="Resource">
                           <xmpG:swatchName>Weiß</xmpG:swatchName>
                           <xmpG:mode>RGB</xmpG:mode>
                           <xmpG:type>PROCESS</xmpG:type>
                           <xmpG:red>255</xmpG:red>
                           <xmpG:green>255</xmpG:green>
                           <xmpG:blue>255</xmpG:blue>
                        </rdf:li>
                        <rdf:li rdf:parseType="Resource">
                           <xmpG:swatchName>Schwarz</xmpG:swatchName>
                           <xmpG:mode>RGB</xmpG:mode>
                           <xmpG:type>PROCESS</xmpG:type>
                           <xmpG:red>0</xmpG:red>
                           <xmpG:green>0</xmpG:green>
                           <xmpG:blue>0</xmpG:blue>
                        </rdf:li>
                        <rdf:li rdf:parseType="Resource">
                           <xmpG:swatchName>RGB Rot</xmpG:swatchName>
                           <xmpG:mode>RGB</xmpG:mode>
                           <xmpG:type>PROCESS</xmpG:type>
                           <xmpG:red>255</xmpG:red>
                           <xmpG:green>0</xmpG:green>
                           <xmpG:blue>0</xmpG:blue>
                        </rdf:li>
                        <rdf:li rdf:parseType="Resource">
                           <xmpG:swatchName>RGB Gelb</xmpG:swatchName>
                           <xmpG:mode>RGB</xmpG:mode>
                           <xmpG:type>PROCESS</xmpG:type>
                           <xmpG:red>255</xmpG:red>
                           <xmpG:green>255</xmpG:green>
                           <xmpG:blue>0</xmpG:blue>
                        </rdf:li>
                        <rdf:li rdf:parseType="Resource">
                           <xmpG:swatchName>RGB Grün</xmpG:swatchName>
                           <xmpG:mode>RGB</xmpG:mode>
                           <xmpG:type>PROCESS</xmpG:type>
                           <xmpG:red>0</xmpG:red>
                           <xmpG:green>255</xmpG:green>
                           <xmpG:blue>0</xmpG:blue>
                        </rdf:li>
                        <rdf:li rdf:parseType="Resource">
                           <xmpG:swatchName>RGB Cyan</xmpG:swatchName>
                           <xmpG:mode>RGB</xmpG:mode>
                           <xmpG:type>PROCESS</xmpG:type>
                           <xmpG:red>0</xmpG:red>
                           <xmpG:green>255</xmpG:green>
                           <xmpG:blue>255</xmpG:blue>
                        </rdf:li>
                        <rdf:li rdf:parseType="Resource">
                           <xmpG:swatchName>RGB Blau</xmpG:swatchName>
                           <xmpG:mode>RGB</xmpG:mode>
                           <xmpG:type>PROCESS</xmpG:type>
                           <xmpG:red>0</xmpG:red>
                           <xmpG:green>0</xmpG:green>
                           <xmpG:blue>255</xmpG:blue>
                        </rdf:li>
                        <rdf:li rdf:parseType="Resource">
                           <xmpG:swatchName>RGB Magenta</xmpG:swatchName>
                           <xmpG:mode>RGB</xmpG:mode>
                           <xmpG:type>PROCESS</xmpG:type>
                           <xmpG:red>255</xmpG:red>
                           <xmpG:green>0</xmpG:green>
                           <xmpG:blue>255</xmpG:blue>
                        </rdf:li>
                        <rdf:li rdf:parseType="Resource">
                           <xmpG:swatchName>R=193 G=39 B=45</xmpG:swatchName>
                           <xmpG:mode>RGB</xmpG:mode>
                           <xmpG:type>PROCESS</xmpG:type>
                           <xmpG:red>193</xmpG:red>
                           <xmpG:green>39</xmpG:green>
                           <xmpG:blue>45</xmpG:blue>
                        </rdf:li>
                        <rdf:li rdf:parseType="Resource">
                           <xmpG:swatchName>R=237 G=28 B=36</xmpG:swatchName>
                           <xmpG:mode>RGB</xmpG:mode>
                           <xmpG:type>PROCESS</xmpG:type>
                           <xmpG:red>237</xmpG:red>
                           <xmpG:green>28</xmpG:green>
                           <xmpG:blue>36</xmpG:blue>
                        </rdf:li>
                        <rdf:li rdf:parseType="Resource">
                           <xmpG:swatchName>R=241 G=90 B=36</xmpG:swatchName>
                           <xmpG:mode>RGB</xmpG:mode>
                           <xmpG:type>PROCESS</xmpG:type>
                           <xmpG:red>241</xmpG:red>
                           <xmpG:green>90</xmpG:green>
                           <xmpG:blue>36</xmpG:blue>
                        </rdf:li>
                        <rdf:li rdf:parseType="Resource">
                           <xmpG:swatchName>R=247 G=147 B=30</xmpG:swatchName>
                           <xmpG:mode>RGB</xmpG:mode>
                           <xmpG:type>PROCESS</xmpG:type>
                           <xmpG:red>247</xmpG:red>
                           <xmpG:green>147</xmpG:green>
                           <xmpG:blue>30</xmpG:blue>
                        </rdf:li>
                        <rdf:li rdf:parseType="Resource">
                           <xmpG:swatchName>R=251 G=176 B=59</xmpG:swatchName>
                           <xmpG:mode>RGB</xmpG:mode>
                           <xmpG:type>PROCESS</xmpG:type>
                           <xmpG:red>251</xmpG:red>
                           <xmpG:green>176</xmpG:green>
                           <xmpG:blue>59</xmpG:blue>
                        </rdf:li>
                        <rdf:li rdf:parseType="Resource">
                           <xmpG:swatchName>R=252 G=238 B=33</xmpG:swatchName>
                           <xmpG:mode>RGB</xmpG:mode>
                           <xmpG:type>PROCESS</xmpG:type>
                           <xmpG:red>252</xmpG:red>
                           <xmpG:green>238</xmpG:green>
                           <xmpG:blue>33</xmpG:blue>
                        </rdf:li>
                        <rdf:li rdf:parseType="Resource">
                           <xmpG:swatchName>R=217 G=224 B=33</xmpG:swatchName>
                           <xmpG:mode>RGB</xmpG:mode>
                           <xmpG:type>PROCESS</xmpG:type>
                           <xmpG:red>217</xmpG:red>
                           <xmpG:green>224</xmpG:green>
                           <xmpG:blue>33</xmpG:blue>
                        </rdf:li>
                        <rdf:li rdf:parseType="Resource">
                           <xmpG:swatchName>R=140 G=198 B=63</xmpG:swatchName>
                           <xmpG:mode>RGB</xmpG:mode>
                           <xmpG:type>PROCESS</xmpG:type>
                           <xmpG:red>140</xmpG:red>
                           <xmpG:green>198</xmpG:green>
                           <xmpG:blue>63</xmpG:blue>
                        </rdf:li>
                        <rdf:li rdf:parseType="Resource">
                           <xmpG:swatchName>R=57 G=181 B=74</xmpG:swatchName>
                           <xmpG:mode>RGB</xmpG:mode>
                           <xmpG:type>PROCESS</xmpG:type>
                           <xmpG:red>57</xmpG:red>
                           <xmpG:green>181</xmpG:green>
                           <xmpG:blue>74</xmpG:blue>
                        </rdf:li>
                        <rdf:li rdf:parseType="Resource">
                           <xmpG:swatchName>R=0 G=146 B=69</xmpG:swatchName>
                           <xmpG:mode>RGB</xmpG:mode>
                           <xmpG:type>PROCESS</xmpG:type>
                           <xmpG:red>0</xmpG:red>
                           <xmpG:green>146</xmpG:green>
                           <xmpG:blue>69</xmpG:blue>
                        </rdf:li>
                        <rdf:li rdf:parseType="Resource">
                           <xmpG:swatchName>R=0 G=104 B=55</xmpG:swatchName>
                           <xmpG:mode>RGB</xmpG:mode>
                           <xmpG:type>PROCESS</xmpG:type>
                           <xmpG:red>0</xmpG:red>
                           <xmpG:green>104</xmpG:green>
                           <xmpG:blue>55</xmpG:blue>
                        </rdf:li>
                        <rdf:li rdf:parseType="Resource">
                           <xmpG:swatchName>R=34 G=181 B=115</xmpG:swatchName>
                           <xmpG:mode>RGB</xmpG:mode>
                           <xmpG:type>PROCESS</xmpG:type>
                           <xmpG:red>34</xmpG:red>
                           <xmpG:green>181</xmpG:green>
                           <xmpG:blue>115</xmpG:blue>
                        </rdf:li>
                        <rdf:li rdf:parseType="Resource">
                           <xmpG:swatchName>R=0 G=169 B=157</xmpG:swatchName>
                           <xmpG:mode>RGB</xmpG:mode>
                           <xmpG:type>PROCESS</xmpG:type>
                           <xmpG:red>0</xmpG:red>
                           <xmpG:green>169</xmpG:green>
                           <xmpG:blue>157</xmpG:blue>
                        </rdf:li>
                        <rdf:li rdf:parseType="Resource">
                           <xmpG:swatchName>R=41 G=171 B=226</xmpG:swatchName>
                           <xmpG:mode>RGB</xmpG:mode>
                           <xmpG:type>PROCESS</xmpG:type>
                           <xmpG:red>41</xmpG:red>
                           <xmpG:green>171</xmpG:green>
                           <xmpG:blue>226</xmpG:blue>
                        </rdf:li>
                        <rdf:li rdf:parseType="Resource">
                           <xmpG:swatchName>R=0 G=113 B=188</xmpG:swatchName>
                           <xmpG:mode>RGB</xmpG:mode>
                           <xmpG:type>PROCESS</xmpG:type>
                           <xmpG:red>0</xmpG:red>
                           <xmpG:green>113</xmpG:green>
                           <xmpG:blue>188</xmpG:blue>
                        </rdf:li>
                        <rdf:li rdf:parseType="Resource">
                           <xmpG:swatchName>R=46 G=49 B=146</xmpG:swatchName>
                           <xmpG:mode>RGB</xmpG:mode>
                           <xmpG:type>PROCESS</xmpG:type>
                           <xmpG:red>46</xmpG:red>
                           <xmpG:green>49</xmpG:green>
                           <xmpG:blue>146</xmpG:blue>
                        </rdf:li>
                        <rdf:li rdf:parseType="Resource">
                           <xmpG:swatchName>R=27 G=20 B=100</xmpG:swatchName>
                           <xmpG:mode>RGB</xmpG:mode>
                           <xmpG:type>PROCESS</xmpG:type>
                           <xmpG:red>27</xmpG:red>
                           <xmpG:green>20</xmpG:green>
                           <xmpG:blue>100</xmpG:blue>
                        </rdf:li>
                        <rdf:li rdf:parseType="Resource">
                           <xmpG:swatchName>R=102 G=45 B=145</xmpG:swatchName>
                           <xmpG:mode>RGB</xmpG:mode>
                           <xmpG:type>PROCESS</xmpG:type>
                           <xmpG:red>102</xmpG:red>
                           <xmpG:green>45</xmpG:green>
                           <xmpG:blue>145</xmpG:blue>
                        </rdf:li>
                        <rdf:li rdf:parseType="Resource">
                           <xmpG:swatchName>R=147 G=39 B=143</xmpG:swatchName>
                           <xmpG:mode>RGB</xmpG:mode>
                           <xmpG:type>PROCESS</xmpG:type>
                           <xmpG:red>147</xmpG:red>
                           <xmpG:green>39</xmpG:green>
                           <xmpG:blue>143</xmpG:blue>
                        </rdf:li>
                        <rdf:li rdf:parseType="Resource">
                           <xmpG:swatchName>R=158 G=0 B=93</xmpG:swatchName>
                           <xmpG:mode>RGB</xmpG:mode>
                           <xmpG:type>PROCESS</xmpG:type>
                           <xmpG:red>158</xmpG:red>
                           <xmpG:green>0</xmpG:green>
                           <xmpG:blue>93</xmpG:blue>
                        </rdf:li>
                        <rdf:li rdf:parseType="Resource">
                           <xmpG:swatchName>R=212 G=20 B=90</xmpG:swatchName>
                           <xmpG:mode>RGB</xmpG:mode>
                           <xmpG:type>PROCESS</xmpG:type>
                           <xmpG:red>212</xmpG:red>
                           <xmpG:green>20</xmpG:green>
                           <xmpG:blue>90</xmpG:blue>
                        </rdf:li>
                        <rdf:li rdf:parseType="Resource">
                           <xmpG:swatchName>R=237 G=30 B=121</xmpG:swatchName>
                           <xmpG:mode>RGB</xmpG:mode>
                           <xmpG:type>PROCESS</xmpG:type>
                           <xmpG:red>237</xmpG:red>
                           <xmpG:green>30</xmpG:green>
                           <xmpG:blue>121</xmpG:blue>
                        </rdf:li>
                        <rdf:li rdf:parseType="Resource">
                           <xmpG:swatchName>R=199 G=178 B=153</xmpG:swatchName>
                           <xmpG:mode>RGB</xmpG:mode>
                           <xmpG:type>PROCESS</xmpG:type>
                           <xmpG:red>199</xmpG:red>
                           <xmpG:green>178</xmpG:green>
                           <xmpG:blue>153</xmpG:blue>
                        </rdf:li>
                        <rdf:li rdf:parseType="Resource">
                           <xmpG:swatchName>R=153 G=134 B=117</xmpG:swatchName>
                           <xmpG:mode>RGB</xmpG:mode>
                           <xmpG:type>PROCESS</xmpG:type>
                           <xmpG:red>153</xmpG:red>
                           <xmpG:green>134</xmpG:green>
                           <xmpG:blue>117</xmpG:blue>
                        </rdf:li>
                        <rdf:li rdf:parseType="Resource">
                           <xmpG:swatchName>R=115 G=99 B=87</xmpG:swatchName>
                           <xmpG:mode>RGB</xmpG:mode>
                           <xmpG:type>PROCESS</xmpG:type>
                           <xmpG:red>115</xmpG:red>
                           <xmpG:green>99</xmpG:green>
                           <xmpG:blue>87</xmpG:blue>
                        </rdf:li>
                        <rdf:li rdf:parseType="Resource">
                           <xmpG:swatchName>R=83 G=71 B=65</xmpG:swatchName>
                           <xmpG:mode>RGB</xmpG:mode>
                           <xmpG:type>PROCESS</xmpG:type>
                           <xmpG:red>83</xmpG:red>
                           <xmpG:green>71</xmpG:green>
                           <xmpG:blue>65</xmpG:blue>
                        </rdf:li>
                        <rdf:li rdf:parseType="Resource">
                           <xmpG:swatchName>R=198 G=156 B=109</xmpG:swatchName>
                           <xmpG:mode>RGB</xmpG:mode>
                           <xmpG:type>PROCESS</xmpG:type>
                           <xmpG:red>198</xmpG:red>
                           <xmpG:green>156</xmpG:green>
                           <xmpG:blue>109</xmpG:blue>
                        </rdf:li>
                        <rdf:li rdf:parseType="Resource">
                           <xmpG:swatchName>R=166 G=124 B=82</xmpG:swatchName>
                           <xmpG:mode>RGB</xmpG:mode>
                           <xmpG:type>PROCESS</xmpG:type>
                           <xmpG:red>166</xmpG:red>
                           <xmpG:green>124</xmpG:green>
                           <xmpG:blue>82</xmpG:blue>
                        </rdf:li>
                        <rdf:li rdf:parseType="Resource">
                           <xmpG:swatchName>R=140 G=98 B=57</xmpG:swatchName>
                           <xmpG:mode>RGB</xmpG:mode>
                           <xmpG:type>PROCESS</xmpG:type>
                           <xmpG:red>140</xmpG:red>
                           <xmpG:green>98</xmpG:green>
                           <xmpG:blue>57</xmpG:blue>
                        </rdf:li>
                        <rdf:li rdf:parseType="Resource">
                           <xmpG:swatchName>R=117 G=76 B=36</xmpG:swatchName>
                           <xmpG:mode>RGB</xmpG:mode>
                           <xmpG:type>PROCESS</xmpG:type>
                           <xmpG:red>117</xmpG:red>
                           <xmpG:green>76</xmpG:green>
                           <xmpG:blue>36</xmpG:blue>
                        </rdf:li>
                        <rdf:li rdf:parseType="Resource">
                           <xmpG:swatchName>R=96 G=56 B=19</xmpG:swatchName>
                           <xmpG:mode>RGB</xmpG:mode>
                           <xmpG:type>PROCESS</xmpG:type>
                           <xmpG:red>96</xmpG:red>
                           <xmpG:green>56</xmpG:green>
                           <xmpG:blue>19</xmpG:blue>
                        </rdf:li>
                        <rdf:li rdf:parseType="Resource">
                           <xmpG:swatchName>R=66 G=33 B=11</xmpG:swatchName>
                           <xmpG:mode>RGB</xmpG:mode>
                           <xmpG:type>PROCESS</xmpG:type>
                           <xmpG:red>66</xmpG:red>
                           <xmpG:green>33</xmpG:green>
                           <xmpG:blue>11</xmpG:blue>
                        </rdf:li>
                     </rdf:Seq>
                  </xmpG:Colorants>
               </rdf:li>
               <rdf:li rdf:parseType="Resource">
                  <xmpG:groupName>Graustufen</xmpG:groupName>
                  <xmpG:groupType>1</xmpG:groupType>
                  <xmpG:Colorants>
                     <rdf:Seq>
                        <rdf:li rdf:parseType="Resource">
                           <xmpG:swatchName>R=0 G=0 B=0</xmpG:swatchName>
                           <xmpG:mode>RGB</xmpG:mode>
                           <xmpG:type>PROCESS</xmpG:type>
                           <xmpG:red>0</xmpG:red>
                           <xmpG:green>0</xmpG:green>
                           <xmpG:blue>0</xmpG:blue>
                        </rdf:li>
                        <rdf:li rdf:parseType="Resource">
                           <xmpG:swatchName>R=26 G=26 B=26</xmpG:swatchName>
                           <xmpG:mode>RGB</xmpG:mode>
                           <xmpG:type>PROCESS</xmpG:type>
                           <xmpG:red>26</xmpG:red>
                           <xmpG:green>26</xmpG:green>
                           <xmpG:blue>26</xmpG:blue>
                        </rdf:li>
                        <rdf:li rdf:parseType="Resource">
                           <xmpG:swatchName>R=51 G=51 B=51</xmpG:swatchName>
                           <xmpG:mode>RGB</xmpG:mode>
                           <xmpG:type>PROCESS</xmpG:type>
                           <xmpG:red>51</xmpG:red>
                           <xmpG:green>51</xmpG:green>
                           <xmpG:blue>51</xmpG:blue>
                        </rdf:li>
                        <rdf:li rdf:parseType="Resource">
                           <xmpG:swatchName>R=77 G=77 B=77</xmpG:swatchName>
                           <xmpG:mode>RGB</xmpG:mode>
                           <xmpG:type>PROCESS</xmpG:type>
                           <xmpG:red>77</xmpG:red>
                           <xmpG:green>77</xmpG:green>
                           <xmpG:blue>77</xmpG:blue>
                        </rdf:li>
                        <rdf:li rdf:parseType="Resource">
                           <xmpG:swatchName>R=102 G=102 B=102</xmpG:swatchName>
                           <xmpG:mode>RGB</xmpG:mode>
                           <xmpG:type>PROCESS</xmpG:type>
                           <xmpG:red>102</xmpG:red>
                           <xmpG:green>102</xmpG:green>
                           <xmpG:blue>102</xmpG:blue>
                        </rdf:li>
                        <rdf:li rdf:parseType="Resource">
                           <xmpG:swatchName>R=128 G=128 B=128</xmpG:swatchName>
                           <xmpG:mode>RGB</xmpG:mode>
                           <xmpG:type>PROCESS</xmpG:type>
                           <xmpG:red>128</xmpG:red>
                           <xmpG:green>128</xmpG:green>
                           <xmpG:blue>128</xmpG:blue>
                        </rdf:li>
                        <rdf:li rdf:parseType="Resource">
                           <xmpG:swatchName>R=153 G=153 B=153</xmpG:swatchName>
                           <xmpG:mode>RGB</xmpG:mode>
                           <xmpG:type>PROCESS</xmpG:type>
                           <xmpG:red>153</xmpG:red>
                           <xmpG:green>153</xmpG:green>
                           <xmpG:blue>153</xmpG:blue>
                        </rdf:li>
                        <rdf:li rdf:parseType="Resource">
                           <xmpG:swatchName>R=179 G=179 B=179</xmpG:swatchName>
                           <xmpG:mode>RGB</xmpG:mode>
                           <xmpG:type>PROCESS</xmpG:type>
                           <xmpG:red>179</xmpG:red>
                           <xmpG:green>179</xmpG:green>
                           <xmpG:blue>179</xmpG:blue>
                        </rdf:li>
                        <rdf:li rdf:parseType="Resource">
                           <xmpG:swatchName>R=204 G=204 B=204</xmpG:swatchName>
                           <xmpG:mode>RGB</xmpG:mode>
                           <xmpG:type>PROCESS</xmpG:type>
                           <xmpG:red>204</xmpG:red>
                           <xmpG:green>204</xmpG:green>
                           <xmpG:blue>204</xmpG:blue>
                        </rdf:li>
                        <rdf:li rdf:parseType="Resource">
                           <xmpG:swatchName>R=230 G=230 B=230</xmpG:swatchName>
                           <xmpG:mode>RGB</xmpG:mode>
                           <xmpG:type>PROCESS</xmpG:type>
                           <xmpG:red>230</xmpG:red>
                           <xmpG:green>230</xmpG:green>
                           <xmpG:blue>230</xmpG:blue>
                        </rdf:li>
                        <rdf:li rdf:parseType="Resource">
                           <xmpG:swatchName>R=242 G=242 B=242</xmpG:swatchName>
                           <xmpG:mode>RGB</xmpG:mode>
                           <xmpG:type>PROCESS</xmpG:type>
                           <xmpG:red>242</xmpG:red>
                           <xmpG:green>242</xmpG:green>
                           <xmpG:blue>242</xmpG:blue>
                        </rdf:li>
                     </rdf:Seq>
                  </xmpG:Colorants>
               </rdf:li>
               <rdf:li rdf:parseType="Resource">
                  <xmpG:groupName>Film und Video</xmpG:groupName>
                  <xmpG:groupType>1</xmpG:groupType>
                  <xmpG:Colorants>
                     <rdf:Seq>
                        <rdf:li rdf:parseType="Resource">
                           <xmpG:swatchName>R=123 G=112 B=49</xmpG:swatchName>
                           <xmpG:mode>RGB</xmpG:mode>
                           <xmpG:type>PROCESS</xmpG:type>
                           <xmpG:red>123</xmpG:red>
                           <xmpG:green>112</xmpG:green>
                           <xmpG:blue>49</xmpG:blue>
                        </rdf:li>
                        <rdf:li rdf:parseType="Resource">
                           <xmpG:swatchName>R=199 G=163 B=21</xmpG:swatchName>
                           <xmpG:mode>RGB</xmpG:mode>
                           <xmpG:type>PROCESS</xmpG:type>
                           <xmpG:red>199</xmpG:red>
                           <xmpG:green>163</xmpG:green>
                           <xmpG:blue>21</xmpG:blue>
                        </rdf:li>
                        <rdf:li rdf:parseType="Resource">
                           <xmpG:swatchName>R=182 G=165 B=85</xmpG:swatchName>
                           <xmpG:mode>RGB</xmpG:mode>
                           <xmpG:type>PROCESS</xmpG:type>
                           <xmpG:red>182</xmpG:red>
                           <xmpG:green>165</xmpG:green>
                           <xmpG:blue>85</xmpG:blue>
                        </rdf:li>
                        <rdf:li rdf:parseType="Resource">
                           <xmpG:swatchName>R=235 G=208 B=101</xmpG:swatchName>
                           <xmpG:mode>RGB</xmpG:mode>
                           <xmpG:type>PROCESS</xmpG:type>
                           <xmpG:red>235</xmpG:red>
                           <xmpG:green>208</xmpG:green>
                           <xmpG:blue>101</xmpG:blue>
                        </rdf:li>
                        <rdf:li rdf:parseType="Resource">
                           <xmpG:swatchName>R=122 G=111 B=185</xmpG:swatchName>
                           <xmpG:mode>RGB</xmpG:mode>
                           <xmpG:type>PROCESS</xmpG:type>
                           <xmpG:red>122</xmpG:red>
                           <xmpG:green>111</xmpG:green>
                           <xmpG:blue>185</xmpG:blue>
                        </rdf:li>
                     </rdf:Seq>
                  </xmpG:Colorants>
               </rdf:li>
            </rdf:Seq>
         </xmpTPg:SwatchGroups>
         <pdf:Producer>Adobe PDF library 10.01</pdf:Producer>
      </rdf:Description>
   </rdf:RDF>
</x:xmpmeta>
                                                                                                    
                                                                                                    
                                                                                                    
                                                                                                    
                                                                                                    
                                                                                                    
                                                                                                    
                                                                                                    
                                                                                                    
                                                                                                    
                                                                                                    
                                                                                                    
                                                                                                    
                                                                                                    
                                                                                                    
                                                                                                    
                                                                                                    
                                                                                                    
                                                                                                    
                                                                                                    
                           
<?xpacket end="w"?>
	</metadata>
<g>
	<path class="st0" d="M221.9,82c3.1,6.1,7.4,11.6,12.5,16.2h-1.2c-5-4.6-9.2-10.1-12.2-16.2L221.9,82L221.9,82z M268.4,82
		c0.3,0.4,0.5,0.5,0.5,0.5c-0.5,0.1-0.9-0.2-0.9-0.2c-0.2,0.6-0.1,1.4,0.2,2.1c0.3,0.8,0.2,1.3,0.2,1.3c-0.1-0.3-0.8-1-0.8-1
		c-0.3,1.1,0,1.7,0,1.7c0-0.2,0.1-0.6,0.2-0.6c0.1,0,0.4,0.5,0.6,0.5c0.2,0,0.2-0.1,0.7,0c0.4,0.1,1,1.3,1,1.3
		c0-0.7-0.3-2.6-0.3-2.6c0.3,0.3,0.7,0.7,0.7,0.7c0-1.4-0.5-2.9-0.5-2.9c0.5,0.3,0.8,0.8,0.8,0.8c0-0.5-0.2-1.2-0.3-1.7l0.3,0
		c0.2,0.2,0.4,0.4,0.4,0.4c0-0.1,0-0.3-0.1-0.4l2,0c0.7,0.6,0.9,1.2,1,1.6c0.1,0.6-0.2,1.1-0.2,1.1s0.4,0.6,0.5,0.9
		c0,0.3-0.1,0.5-0.2,1.1c-0.1,0.6,0.2,1,0.2,1c0-0.4,0.5-1.6,0.5-1.6c0.2,1,1,1.3,1,1.3c0.2-0.6,0.1-1.5,0.1-1.5
		c0.6,0.7,1.3,1.2,1.3,1.2c0.2-0.9-0.6-2.4-0.8-2.5c0.3,0,1,0.7,1,0.7s-0.1-0.7-0.7-1.4c-0.6-0.7-0.9-1.3-0.8-1.3
		c0.1,0.1,0.7,0.4,0.7,0.4c-0.1-0.2-0.2-0.5-0.4-1l0.6,0c0.1,0.2,0.2,0.3,0.3,0.5c0.4,0.6,1.1,1.4,2.1,2.6c1,1.2,1.6,2.1,2.2,3.1
		c0.7,1.1,1.5,1.6,2.7,1.7c1.2,0,1.8-1.3,1.8-1.3c-0.1,0-2.3-0.7-3.4-2l-2.9-3.3c-1.4,0-2.2-0.8-2.6-1.3l1.2,0
		c0.1,0.1,0.1,0.1,0.2,0.1c1.2,0.8,1.9,0.3,1.9,0.3c-0.1-0.1-0.1-0.3-0.2-0.4l0.7,0c0.1,0.3,0.3,0.5,0.3,0.6
		c0.2,0.3,0.5,0.3,0.5,0.4c0,0.1-0.6,0.1-0.7,0.1c-0.3,0.1-0.8,0.2-0.8,0.2l2.5,2.4c1.2,1.2,2.4,2,3.9,2.1c1.5,0.1,2.2-1.2,2.2-1.2
		s-1.2,0-2.3-0.4c-1.1-0.4-1.7-1.1-3-2.3c-0.7-0.7-1.4-1.4-1.8-1.8l0.7,0c0.8,0.6,1.6,1.3,2.1,1.7c0.8,0.8,1.6,1.6,3.5,2
		c1.8,0.5,2.4-0.3,2.4-0.3c-0.4-0.2-1.7-1.5-3.7-2.5c-0.6-0.3-1.3-0.7-1.9-1l1.9,0c0.7,0.3,1.3,0.6,1.8,0.9c1.3,0.8,2.2,1.9,2.4,2.3
		c0.1,0.3,0.4,0.8,0.4,0.8c-0.2,0.2-1.3,0.4-1.3,0.4c0.1,1.7-2.9,2.5-2.9,2.5c-0.3,2.1-2.9,2-2.9,2c-0.4,0.6-0.8,0.9-1.5,1
		c-0.7,0.2-1.6-0.1-1.6-0.1c-0.1,0.1-0.4,0.4-0.9,0.5c-0.5,0.1-1.3-0.3-1.3-0.3c-0.1,0.4-0.4,0.9-0.5,1.1c-0.2,0.2-0.7,0.2-0.7,0.2
		s0.2-0.3,0.3-0.6c0.1-0.3-0.2-0.4-0.2-0.4s-0.2,0.1-0.6-0.1c-0.4-0.2-0.6-0.4-0.6-0.4c-0.2,0.3-0.9,0.4-0.9,0.4
		c-0.3,0.6-0.8,1.1-0.8,1.1c-0.1-0.3-0.2-1.1-0.2-1.1s-0.3,0-0.7,0c-0.4-0.1-0.7-0.2-0.7-0.2c-0.1,0.1-0.5,0.3-0.5,0.3
		c0,0.3,0.5,0.7,0.5,0.7c-0.8,0.3-1.4-1-1.4-1c-0.3-0.2-0.5-0.4-0.5-0.5c-0.1-0.2-0.4,0-0.5,0.4c-0.1,0.4-0.3,0.5-0.5,0.7
		c-0.2,0.2-0.4,0.2-0.4,0.2s0.1-0.1,0.2-0.4c0.1-0.2,0-0.4,0-0.6c0-0.2-0.1-0.4-0.2-0.5c-0.1-0.2-0.2-0.1-0.4-0.2
		c-0.2-0.1-0.3-0.2-0.3-0.2c-0.5,0.3-0.8,0.4-0.8,0.4s-0.2,0.3-0.4,0.7c-0.2,0.4-0.4,0.5-0.4,0.5c-0.1-0.2-0.1-0.9-0.1-1.1
		c0-0.2-0.2-0.4-0.3-0.6c-0.2-0.2-0.3-0.4-0.3-0.4c-0.2,0.2-0.7,0.4-0.9,0.4c-0.2,0.1-0.4,0-0.6,0c-0.2,0-0.2,0.1-0.3,0.3
		c-0.1,0.1-0.2,0.1-0.3,0.3c-0.1,0.2,0,0.5,0,0.5c-0.3-0.1-0.4-0.3-0.5-0.8c0-0.5,0.4-0.9,0.4-0.9c-0.2-0.6,0.9-1.4,1.6-1.7
		c0.6-0.3,1.5-0.4,1.5-0.4c-1.8-1-0.4-3.9-0.4-3.9c-0.4-0.8-0.4-1.4-0.3-1.9L268.4,82L268.4,82z M320.1,82
		c-5.9,11.9-16,21.3-28.3,26.4l0-0.9c11.8-5,21.5-14.1,27.3-25.5L320.1,82L320.1,82z M268.5,87.3c-0.3,0-0.4,0.7-0.4,0.7
		c-2.6,0.4-3.3,1.4-3.3,1.6c0,0.2,0.2,0.5,0.4,0.5s0.4-0.5,0.6-0.6c0.3,0.1,0.4-0.3,0.5-0.3c0.1,0,0.3,0.2,0.3,0.2
		c0.2-0.1,0.2-0.4,0.3-0.5c0.2,0.1,0.4,0,0.5,0c0,0.4-0.2,0.6-0.2,0.8c0,0.3,0.2,0.5,0.6,0.6c0.5,0.1,0.5-0.2,0.6-0.3
		c0.1-0.1,0-0.2,0.1-0.4c0.1-0.2,0-0.4,0-0.5c0.2-0.2,0.4,0.2,0.4,0.2c0.3-0.1,0.5,0.3,0.5,0.3c0.3-0.1,0.3,0.2,0.4,0.4
		c0.1,0.2,0.4,0.5,0.6,0.5c0.2,0,0.4-0.1,0.4-0.4c0-0.3-0.3-0.7-0.8-1.1c-0.4-0.4-0.7-0.5-0.9-0.6c-0.2-0.1-0.1-0.2-0.1-0.5
		C269.2,87.6,268.8,87.3,268.5,87.3L268.5,87.3z M274.9,87.6c0.1,0.3-0.4,1.2-0.4,1.2c-0.9,0.1-2.3,1.2-2.8,1.6
		c-0.4,0.4,0.2,0.8,0.4,0.9c0.2,0,0.5-0.2,0.6-0.3c0.1-0.1,0-0.5,0.1-0.5c0.2,0.3,0.3,0.2,0.3,0.1c0-0.1,0-0.4,0.1-0.4
		c0.1,0,0.3,0.4,0.3,0.4c0.1-0.2,0.1-0.5,0.2-0.6c0.1,0,0.3,0.3,0.3,0.3c0.1-0.1,0.1-0.4,0.3-0.3c0.2,0,0.2,0.6,0.1,0.7
		c-0.1,0.1-0.1,0.3,0,0.6c0.1,0.3,0.4,0.4,0.5,0.4c0.1,0,0.2-0.1,0.4-0.1c0.2,0,0.4,0,0.4-0.4c0.1-0.4,0-1.3,0-1.3
		c0.2,0.2,0.4,0.6,0.4,0.6s0.2-0.1,0.3,0.1c0.1,0.2,0.2,0.6,0.2,0.6l0.2-0.3l0.2,0.4c0.2-0.1,0.3,0,0.4,0.3c0.1,0.4,0.3,0.2,0.5,0.1
		c0.2-0.1,0.3-0.3,0.2-0.6c-0.1-0.3-0.4-0.8-1-1.3c-0.5-0.5-1.5-0.8-1.5-0.8C275.7,87.7,274.9,87.6,274.9,87.6L274.9,87.6z
		 M271.7,82.1c0.3,1.3,0.1,2.1,0.1,2.1c-0.1-0.2-0.5-0.6-0.5-0.6c0.3,0.8,0,1.4,0,1.4c0.3,1.7,0,2.8,0,2.8c-0.1-0.1-0.4-0.1-0.4-0.1
		c0.1,0.6,0.1,1.2,0.1,1.2c0.3,0.3,0.7,0.8,0.7,0.8c0.8-0.7,2.1-1.2,2.1-1.2c-0.6-0.4-0.6-1-0.4-1.5c0.1-0.5,0.3-1,0.3-1.3
		c0-0.3-0.4-0.7-0.4-0.7c0.1-0.4,0.2-0.9-0.1-1.6C272.9,82.8,271.7,82.1,271.7,82.1L271.7,82.1z M278,87.4c0.1,0.8-0.2,1.1-0.2,1.1
		c-0.2-0.2-0.9-0.6-0.9-0.6c-0.1,0.3-0.5,0.8-0.5,0.8c0.9,0.4,1.5,1,2,1.4c0.4,0.4,0.6,1.1,0.6,1.1s0.3,0.1,0.7,0.2
		c0.4,0,0.7-0.1,0.7-0.1s-0.6-0.5-0.9-1.1c-0.3-0.6-0.4-1.1-0.7-1.7C278.5,87.8,278,87.4,278,87.4L278,87.4z M277.9,84.3
		c0,0,0.4,0.6,0.5,1.1c0.1,0.5,0.7,1.4,0.7,1.4c-0.4,0-1-0.2-1-0.2c0,0.3,0,0.6,0,0.6c0.3,0.2,0.9,1.2,1.7,2.4
		c0.7,1.2,1.3,1.4,2.1,1.5c0.7,0.1,1.2-0.4,1.2-0.4c-0.8-0.3-1.4-1.2-1.8-1.7c-0.3-0.6-0.6-1-1.6-2.7
		C278.6,84.5,277.9,84.3,277.9,84.3L277.9,84.3z M242.7,105c-0.5-0.3-1-0.6-1.5-0.9l0.1-0.9c0.5,0.3,0.9,0.6,1.4,0.9V105L242.7,105z
		 M269.6,111.7c5.7,0.1,11.1-0.7,16.3-2.2c0.5,0.2,1.1,0.3,1.8,0.3c-5.7,1.8-11.8,2.8-18.1,2.7c-5.4-0.1-10.5-0.9-15.4-2.5h3
		C261.1,111.1,265.3,111.7,269.6,111.7L269.6,111.7z"/>
	<path class="st0" d="M216.8,66.6c0.9,5.4,2.7,10.6,5.1,15.3l-0.9,0c-2.4-4.8-4.1-9.9-5-15.3L216.8,66.6L216.8,66.6z M244.5,66.6
		c0.3,0.3,0.7,0.7,0.9,0.8c0.2,0.1,1.1-0.3,2-0.8l0.4,0c-0.8,0.5-1.8,1.2-1.9,1.3c-0.1,0.3,0.3,1.2,1,1.4c0.6,0.1,2.7-1.4,3-1.6
		c0.2-0.2,0.3-0.2,0.2,0c-0.2,0.2-2.3,1.7-2.4,2s-0.1,0.6,0.8,0.9c0.9,0.3,2.6-1.4,2.8-1.6c0.1-0.2,0.3-0.4,0.1,0.1
		c-0.2,0.4-2.3,1.8-2.4,2.1c-0.1,0.4,0.3,0.9,1,1c0.7,0.1,2.4-1.5,2.6-1.7c0.2-0.2,0.3-0.3,0.1,0.1c-0.2,0.3-2,1.8-2.1,2.1
		c0,0.4,0,0.3,0.7,0.9c0.7,0.6,2.8-2,2.9-2.3c0,0.4-1.9,2.3-2,2.7c-0.1,0.4,0.7,0.9,1.3,0.9c0.6,0,1.7-2,1.9-2.3
		c0.2-0.3,0.4-0.4,0.2,0.1c-0.2,0.5-1.4,2.4-1.3,2.6c0.1,0.2,0.4,0.5,1,0.4c0.6-0.2,1.7-2.1,1.8-2.3c0.1-0.2,0.2-0.3,0.2,0.1
		c-0.1,0.4-1.2,2.1-1.1,2.4c0.1,0.3,0.6,0.4,1.4,0.2c0.8-0.2,1.4-2.1,1.4-2.1s0.4-0.6,0.2,0.1c-0.2,0.8-0.9,1.5-0.8,2
		c0.1,0.5,1.3,0.3,1.6,0c0.4-0.3,0.7-1.3,0.8-1.6c0.1-0.3,0.3-0.5,0.2,0c0,0.5-0.7,1.3-0.6,1.5c0.3,0.6,0.8,0.2,1.1,0
		c0.4-0.3,0.6-1,0.6-1c0.3,0.4,0,1,0,1.1c0.1,0.1,0.8,0.4,1.1,0c0.4-0.3,0-1.2,0-1.2l-1.3-1.1c-1.3,0.5-1.9-0.6-1.9-0.6
		c-1.6,0.1-1.9-1-1.9-1c-1.7,0.3-1.8-1.3-1.8-1.3c-2,0.5-2.1-1.5-2.1-1.5c-1.7,0.4-1.8-1.6-1.8-1.6c-1,0-1.3-0.7-1.4-1.3l0.7,0
		c0.1,0.2,0.3,0.4,0.6,0.5c0.4,0.1,0.7-0.2,1-0.5l0.4,0c-0.3,0.4-0.7,1.1-0.7,1.4c0,0.4,0.4,0.6,0.9,0.8c0.5,0.2,1.5-1.1,1.7-1.3
		c0.2-0.2,0.3,0,0.2,0.1c-0.1,0.1-0.1,0.2-0.5,0.6c-0.4,0.4-0.6,0.7-0.6,1.1c0,0.4,0.7,0.9,1.3,1c0.6,0.1,1.3-1.2,1.5-1.4
		c0.2-0.3,0.3-0.2,0.2,0.1c-0.1,0.3-0.6,0.9-0.8,1.5c-0.2,0.5,0.7,1.1,1.1,1.1c0.5,0,0.8-0.7,0.9-0.8c-0.4,1.1-0.1,1.2,0.3,1.7
		c0.5,0.5,0.9,0.2,1.1,0.1c0,1,1.1,0.9,1.1,0.9c-2.1-1.9-3.1-5-3.6-6.8l1,0c0.8,2.3,1.9,4.4,2.4,5.1c0.7,1,3.1,3.3,3.7,3.9
		c0.6,0.6,0.7,0.9,0.7,0.9c-0.3-0.3-1.2-0.7-1.2-0.7c0.5,1.9,3.1,3.4,4,4.1c0.9,0.8,1.2,1.5,1.2,1.5c-0.8-0.9-1.6-0.9-1.6-0.9
		c0.1,0.5,0.4,1,0.6,1.3l-1.6,0c0.1-0.5,0.2-0.7,0.2-0.7c-0.5-0.5-0.6-1.4-0.6-1.4c-1.7-1.1-2.6-3.1-2.6-3.1s-0.6,0.2-1.1,0.2
		c-0.5,0.1-1-0.3-1-0.3s-0.6,0.2-1.1,0.3c-0.4,0-0.8-0.2-0.8-0.2s-0.8,0.2-1.2,0.2c-0.4,0-0.8-0.3-0.8-0.3s-0.9,0.3-1.5,0.2
		c-0.6-0.2-0.9-0.5-0.9-0.5s-0.7,0-1.2-0.2c-0.6-0.3-0.9-0.7-0.9-0.7s-0.5,0-1-0.3c-0.5-0.3-0.8-0.9-0.8-0.9s-0.7-0.1-1.1-0.5
		c-0.4-0.4-0.5-0.9-0.5-0.9s-0.7-0.2-1.2-0.6c-0.4-0.4-0.4-1.1-0.4-1.1s-0.6-0.2-1-0.6c-0.5-0.4-0.6-0.9-0.6-0.9s-0.7-0.1-1.2-0.8
		c-0.3-0.4-0.3-1.1-0.3-1.1c-0.2-0.1-0.8-0.5-1.2-1c0-0.1-0.1-0.1-0.1-0.2L244.5,66.6L244.5,66.6z M277.9,66.6
		c-1.4,1.3-3.5,0.1-3.5,0.1s1.4,2.2,2.3,4c0.9,1.8,1.2,3.7,1.2,3.7s0.1,0.2,0.5,0.3c0.3,0.1,0.4-0.3,0.3-0.5c-0.1-0.2,0.2,0,0.6,0.4
		c0.5,0.4,1.1,0.3,1.2,0.1c0.1-0.2-0.3-0.9-0.6-1.1c-0.2-0.3-0.1-0.3,0.1-0.1c0.2,0.2,1,1,1.5,1.3c0.5,0.3,0.9,0.2,1.3,0.2
		c0.4,0,0.3-0.1,0-0.3c-0.3-0.2-1.2-1.6-1.5-1.8c-0.2-0.2-0.1-0.3,0.2-0.1c0.3,0.3,1.6,1.5,2.2,1.7c0.6,0.2,1.4,0.2,1.4,0
		c0-0.1-0.4-0.3-0.8-0.7c-0.4-0.4-1.2-1.5-1.3-1.7c-0.1-0.2-0.1-0.3,0.1-0.1c0.2,0.1,0.9,0.7,1.8,1.3c0.9,0.6,1.2,0.8,1.7,0.8
		c0.5,0,0.9-0.3,0.9-0.5c0-0.2-0.4-0.4-1-0.7c-0.6-0.4-1.5-1.5-1.7-1.8c-0.2-0.3,0.1-0.2,1.2,0.7c1.1,0.9,2.3,1.4,2.8,1.3
		c0.5,0,1-0.5,0.9-0.7c0-0.2-0.7-0.4-1.4-0.9c-0.7-0.5-1.6-1.5-1.9-1.8c-0.3-0.2-0.2-0.3,0.1-0.1c0.3,0.2,2.1,1.4,3.2,2
		c1.1,0.6,1.5,0.1,1.8-0.1c0.3-0.2,0.1-0.4-0.1-0.4c-0.2-0.1-0.8-0.3-1.7-0.9c-0.9-0.6-2.2-2-2.3-2c-0.1-0.1-0.1-0.4,0.1-0.2
		c0.2,0.2,2.1,1.3,3.6,2.2c1.5,0.9,1.7,0.3,2.2-0.1c0.4-0.4,0.2-0.7-0.2-0.9c-0.4-0.1-1.4-0.7-2.1-1.2c-0.5-0.3-1.2-0.9-1.7-1.3
		l0.5,0c0.4,0.2,0.9,0.5,1.5,0.9c1.7,1,2.4,1.2,3.1,1.1c0.7-0.1,0.8-0.8,1-1c0.1-0.2-0.2-0.2-0.6-0.3c-0.3,0-0.8-0.3-1.5-0.7l1.8,0
		c0.1,0,0.2,0,0.3,0c0,0,0.1,0,0.2,0l1.5,0c-0.4,0.4-0.7,0.6-0.7,0.6c-0.3,1.7-1.8,2.2-1.8,2.2c-0.4,1.9-1.9,1.9-1.9,1.9
		c-0.3,1.1-2,1.3-2,1.3c-0.7,1.4-2.2,1.2-2.2,1.2c-0.5,1.3-2.6,1-2.6,1c-0.3,0.5-1.9,0.3-1.9,0.3c-0.8,0.8-2.7,0.2-2.7,0.2
		c-0.5,0.3-1.9,0.1-1.9,0.1c-0.4,0.2-1.1-0.1-1.1-0.1c0.1,0.3,0.7,1.7,1.5,2.7c0.8,1,1.8,1.3,2.9,2.1c0.7,0.5,2.3,1.1,3.7,1.8
		l-1.9,0c-1.6-0.9-3.1-1.7-3.1-1.7s0.3,0.4,0.1,0.5c-0.1,0.1-0.7-0.1-1.1-0.1c-0.4,0-0.3,0.1-0.3,0.1c0.1,0.2,0.4,0.8,0.7,1.3
		l-0.7,0c-0.5-0.8-1.5-1.8-1.8-2c-0.3-0.2-1-0.5-1-0.7c0-0.2,0.9,0.2,1,0.1c0.1-0.1-0.3-0.6-0.5-0.9c-0.1-0.3-0.1-0.6,0.2-0.2
		c0.3,0.4,0.8,0.6,1.5,1.3c0.7,0.6,0.5,0,0.1-0.4c-0.3-0.4-1.8-2.1-2.4-3.6c-0.5-1.5-1.4-4.2-2.4-6.1c-0.5-0.9-1.1-1.9-1.6-2.8
		L277.9,66.6L277.9,66.6z M286.4,66.6c-0.1,0.4-0.3,1-0.8,1.2c0,0,0,1.3-1.4,1.7c0,0-0.1,1.3-1.7,1.4c0,0-0.4,0.9-1.3,1
		c0,0-0.3,0.9-1.8,0.9c0,0-0.5,1.1-1.7,0.2l0-0.1c0.2,0.1,0.8,0.1,0.9-0.1c0.2-0.1-0.6-0.7-1-1c-0.4-0.3-0.2-0.3,0.1-0.1
		c0.2,0.1,1,0.9,1.7,0.8c0.8,0,1-0.2,1.1-0.4c0.1-0.3-0.4-0.3-1.5-1c-0.8-0.6-1-0.7-1.1-0.8c-0.3-0.4-0.3-0.4,0-0.2
		c0.3,0.2,1.1,0.8,2,1.1c0.9,0.4,1.1,0.6,1.6,0.3c0.5-0.3,0.6-0.4,0.6-0.6c0-0.1,0,0.1-0.6-0.2c-0.6-0.2-1.7-1-1.9-1.2
		c0.3,0,1.5,0.7,2.2,0.9c0.8,0.1,1.1,0.1,1.5-0.1c0.4-0.2,0.5-0.5,0.4-0.6c-0.1-0.1-0.5,0.1-0.9-0.3c-0.5-0.4-1.2-0.8-1.5-1
		c-0.3-0.2-0.3-0.4,0-0.2c0.3,0.2,1,0.6,1.7,0.8c0.7,0.3,1,0.3,1.5-0.2c0.6-0.5,0.5-0.6,0.5-0.7c-0.1-0.2-0.5,0.2-1,0
		c-0.5-0.2-1.4-0.6-1.7-0.8c-0.2-0.2-0.1-0.3,0.1-0.2c0.2,0.1,1.2,0.7,1.8,0.7c0.6,0,1.2-0.2,1.5-0.7c0.1-0.2,0.2-0.3,0.1-0.4
		L286.4,66.6L286.4,66.6z M325.1,66.6c-0.9,5.4-2.6,10.6-5,15.3l-0.9,0c2.4-4.7,4.2-9.9,5.1-15.3L325.1,66.6L325.1,66.6z M270.5,82
		c-0.1-0.3-0.1-0.4-0.1-0.4c0.2,0.2,0.3,0.3,0.5,0.4L270.5,82L270.5,82z M271.1,82c-0.4-1.5-1.4-2.4-1.9-2.8
		c-0.6-0.4-0.9-1.1-1.5-1.7c-0.6-0.6-1-1.3-1-1.3s0.6,0.4,1.4,1.2c0.7,0.7,1.4,1.1,1.4,1.1s-0.2-1-0.4-1.5c-0.2-0.5-0.2-1-0.2-1.2
		l-0.1-0.6c0,0,0.4,0.2,0.7,1.1c0.3,0.9,1.8,4.4,3.1,5.2c0.3,0.2,0.5,0.4,0.7,0.5L271.1,82L271.1,82z M276.4,82
		c-0.3-0.9-0.7-2.2-0.7-2.3c0-0.1,0-0.3,0.1-0.2c0.1,0.1,1.3,1.6,2.5,2.5l-1.2,0c-0.2-0.3-0.3-0.5-0.3-0.5s0,0.2,0.2,0.5L276.4,82
		L276.4,82z M281.5,82c-0.4-0.4-0.6-0.7-0.7-0.7c-0.1-0.1-0.3-0.3,0.1-0.1c0.2,0.1,0.7,0.4,1.3,0.9L281.5,82L281.5,82z M264,70.8
		c0,0,0.2,0.4,0.6,1c0.4,0.6,0.7,1.1,1.1,2c0.4,0.9,0.4,1.6,0.4,1.6s-0.5-0.6-0.7-1c0,0-1.4-0.3-2.2-1.8c0,0,0.1,0,0.6,0.4
		c0.6,0.4,1,0.6,1,0.6s-0.5-1.5-0.8-2.2C263.8,70.8,264,70.8,264,70.8L264,70.8z M274.9,77.3c0.1-0.1,0.4,0.1,0.4,0.3
		c0,0.2,0.1,0.4,0.3,0.8c0.2,0.3,0.2,0.6,0.1,0.6c-0.1,0-0.4-0.2-0.5-0.5c-0.1-0.3-0.2-0.6-0.2-0.8C275,77.5,274.8,77.4,274.9,77.3
		L274.9,77.3z M276.7,75.6c0.2-0.1,0.5,0.6,0.6,0.9c0.1,0.3,0.3,1,0.2,1c-0.1,0-0.5-0.4-0.7-0.9C276.5,76.1,276.4,75.7,276.7,75.6
		L276.7,75.6z M274.9,70.6c0.1,0.2,0.6,1.1,0.8,3.5c0.2,2.3,0.5,3,1.2,4.5c0.7,1.6,0.9,2.2,1.2,2.6c0.4,0.4,0.1,0.3-0.1,0.1
		c-0.2-0.2-1.6-2-2.3-4.1c-1-2.9-0.6-4.7-0.7-5.4c-0.1-0.7-0.1-0.9-0.3-1.1C274.6,70.5,274.8,70.4,274.9,70.6L274.9,70.6z
		 M273.3,69.6c0,0,0.7,0.6,0.9,1.4c0.1,0.9,0.2,1.7,0.2,2c0,0.3-0.1,0.1-0.3-0.1c-0.2-0.3-0.8-0.9-1.1-1.4c-0.3-0.5-0.9-1.3-1.1-1.5
		c0.3,0,1.5,1.1,1.8,1.5C273.7,71.4,273.9,70.6,273.3,69.6L273.3,69.6z M268.2,68.2c0,0,0.6,0.8,0.7,1.3c0.1,0.5,0.5,2.3,0.5,2.3
		s-0.6-1.1-0.7-1.6c-0.1-0.6-0.1-0.9-0.3-1.3C268.3,68.5,268.2,68.2,268.2,68.2L268.2,68.2z"/>
	<path class="st0" d="M216,66.6c-0.6-3.4-0.8-6.8-0.8-10.4c0.1-3.3,0.4-6.4,1-9.5c-0.9-0.2-1.5-0.5-1.5-0.9c0-0.3,0.9-0.8,1.9-1
		c0.1-0.6,0.3-1.2,0.4-1.7c-0.9-0.1-1.9-0.2-1.8-0.9c0.1-0.5,1.1-0.8,2.3-1c7-23.1,28.6-39.8,54-39.4c23.9,0.4,43.9,15.9,51.3,37.2
		c0.6,0.1,1.2,0.3,1.2,0.6c0,0.2-0.3,0.4-0.8,0.6c0.3,0.9,0.6,1.8,0.8,2.8l0.7,0c1.1,0.1,1.7,0.3,1.8,0.7c0.1,0.4-0.3,0.7-1.9,1.2
		c0.9,4.3,1.3,8.7,1.3,13.2c-0.1,2.9-0.3,5.7-0.8,8.4l-0.8,0c0.5-2.7,0.8-5.6,0.8-8.5c0.1-3.4-0.2-6.8-0.7-10.1
		c-0.4,0.3-1.1,0.6-1.7,0.7c-0.9,0.2-1.2,0-1.6,0.1c-0.3,0.1-1.3,0.4-1.3,0.4c-0.7,0.5-1.9,0.8-1.9,0.8s1.5,0.2,1.5,0.9
		c0,0.7-3.5,0.9-3.5,0.9c-0.6,0.4-2.5,0.6-2.5,0.6s0.7,0.1,0.6,0.6c-0.1,0.8-4.2,2.1-4.2,2.1c0,1-3.3,2-3.3,2
		c-0.1,1.3-2.2,1.9-2.2,1.9c-0.6,1.4-2.3,2-2.3,2c-1.4,2-2.7,2.3-2.7,2.3c-0.2,1.1-1.5,1.9-1.5,1.9c-0.1,0.5-0.4,1-0.8,1.3l-1.5,0
		c0.4-0.1,0.9-0.6,1.1-0.8c0.2-0.2,0.3-0.5,0-0.5c-0.3-0.1-1.4-0.6-2.5-1.2c-1.1-0.6-3-1.9-3.1-2c-0.1-0.1-0.2-0.3,0.1-0.1
		c0.3,0.2,4.3,2.1,5.3,2.4c1,0.4,1.2,0,1.5-0.3c0.3-0.3,0.4-0.7,0.3-0.8c-0.1-0.2-1.4-0.7-2.9-1.4c-1.6-0.7-3.4-1.5-3.7-1.6
		c-0.3-0.1-0.2-0.2,0-0.2c0.3,0.1,3.1,1,4.7,1.6c1.6,0.6,1.9,0.7,2.8,0.6c0.9-0.1,1.5-0.9,1.7-1.1c0.2-0.2,0-0.3-0.3-0.4
		c-0.3-0.1-7.6-2.2-7.8-2.3c-0.2-0.1-0.3-0.2,0-0.1c0.4,0.1,7.3,1.8,8.1,1.9c0.8,0.1,1.4-0.3,1.8-0.5c0.4-0.2,0.7-0.6,0.7-0.7
		c0-0.1-1.9-0.4-4-0.8c-2.1-0.5-5-1.6-5.3-1.7c-0.3-0.1-0.3-0.2,0-0.1c0.9,0.2,7.9,1.8,8.8,1.9c0.9,0.1,1.4-0.4,1.9-0.6
		c0.5-0.2,0.7-0.3,0.7-0.4c0-0.1-1.5-0.4-4.4-1.2c-2.9-0.8-6.1-2-6.3-2.1c1.9,0.5,7.8,1.8,9.2,2.1c1.4,0.3,2.2,0.1,3.1-0.2
		c0.9-0.3,1.3-0.6,1.3-0.8c0-0.2-0.5-0.3-1.4-0.4c-1-0.2-2.1-0.4-4.2-0.9c-2.1-0.5-6.7-1.8-7-1.9c-0.3-0.1-0.3-0.2,0-0.2
		c0.3,0.1,4.5,0.9,6.9,1.5c2.4,0.6,5.8,1,6.6,0.9c0.9,0,1.3-0.3,2.1-0.6c0.8-0.3,1.6-0.6,1.6-0.8c0-0.2-2.7-0.6-6.6-1.1
		c-3.9-0.5-9-1.5-9.3-1.5c-0.3,0-0.4-0.3,0-0.2c0.4,0.1,11.9,1.3,13.5,1.5c1.6,0.2,1.9,0,2.9-0.1c1-0.1,1.6-0.3,2.4-0.4
		c0.8-0.1,1.8,0,1.9-0.4c0-0.4-3.8-0.7-7.3-1.1c-3.5-0.4-11.1-1.3-11.2-1.3c0.2-0.1,11.4,0.7,13.8,0.9c2.5,0.2,3,0,4.3-0.1
		c1.3-0.1,2.1-0.7,2.9-0.9c0.8-0.2,1.9-0.3,2.3-0.3c0.4,0,1.3-0.1,1.3-0.4c0-0.3-7-0.5-10.9-0.6c-3.9-0.1-12.6-0.4-12.9-0.4
		c-0.2,0-0.3-0.1,0-0.1c0.3,0,12.6,0,15,0c2.4,0,3.8-0.3,4.7-0.5c0.9-0.2,1.8-0.7,3.2-1.1c1.4-0.4,2.6-0.7,2.5-1
		c-0.1-0.3-6.6-0.1-10.7,0.1c-4.1,0.2-14.2,0.7-14.3,0.7c0.2-0.2,8.4-1,11.2-1.2c2.8-0.2,3.2-0.4,4.2-0.7c1-0.2,2.4-1.1,3.8-1.7
		c1.4-0.6,2.8-0.8,2.8-1.2c0-0.4-7.4,0.5-10.7,1c-3.3,0.5-11.5,1.9-11.7,1.9c0.2-0.2,7.8-1.8,9.4-2.1c1.7-0.3,2.2-0.7,3.3-1.4
		c1.1-0.8,1.9-1.1,2.8-1.4c0.9-0.3,2.5-0.8,2.4-1.1c-0.1-0.3-5.8,0.7-9.5,1.5c-3.7,0.8-10,2-10.4,2.1c-0.4,0.1-0.3-0.1-0.3-0.1
		c2.6-0.5,7.1-1.8,8.9-2.4c1.7-0.6,2.2-1.3,2.3-1.4c-0.8-0.1-6.4,1.1-10.5,2.1c-4.1,1.1-10.3,3.3-11.6,3.7c-1.3,0.4-1.5,1.2-1.5,1.2
		c-1.3,2.8-3.4,6.2-6.2,9.4c-2.8,3.1-8.2,5.8-9.2,6.1c-1,0.3-1.8,0.4-2.1,0.2c-0.3-0.2-1.2-1.2-2.4-3c-1.2-1.8-1.7-3.2-1.7-3.2
		l-0.8,0.3c-0.3,0.1-0.8,0.5-0.8,0.5c-0.3-1.1,0.2-1.7,0.5-2.2c0.3-0.5,1.2-1,1.2-1c0-0.2,0.1-0.4,0.2-0.8c0.1-0.4-0.1-0.3-0.1-0.3
		c-0.1,0.6-0.2,1.1-1.2,1.5c-1,0.4-1.7-0.6-1.7-0.6c-0.3,0.1-1.7,0.7-1.7,0.7c0.4-0.3,1.5-1,1.9-1.2c0.4-0.2,1.4-0.4,1.7-0.5
		c0.3-0.1,1.1-0.5,1-0.7c-0.1-0.2-1.1-0.1-2.8,0.8c-1.5,0.8-2.2,1.3-2.3,1.3c0,0.3-0.4,3.2-0.7,4.5c-0.6,2.4-0.7,4.8-0.4,8
		c0.1,1,0.4,2.2,0.7,3.2l-1,0c-0.3-1-0.4-1.7-0.4-1.7c-0.8,1.2-2-0.2-2-0.2c-1.3,0.2-1.7-1.2-1.7-1.2c-1,0-1.3-1.1-1.3-1.1
		c-1.5,0-1.4-1.4-1.4-1.4c-1.4-0.3-1.2-1.7-1.2-1.7c-1.2-0.4-0.8-1.7-0.8-1.7c-0.9-0.3-0.8-1.4-0.8-1.4c-1.4-0.4-1.1-1.4-1.1-1.4
		c-1.2-0.4-1.2-1.6-1.2-1.6c-1.5-0.3-1.4-1.6-1.4-1.6c-1.2-0.5-1.3-1.2-1.3-1.2c-1,0-1.4-1.4-1.4-1.4c-1.2-0.1-1.7-1.8-1.7-1.8
		c-2.2-0.4-2.1-2.4-2.1-2.4c-1.7-1.1-0.8-2.5-0.8-2.5c-1.1-1.9,0.3-2.3,0.6-2.3c0.3-0.1,0.4,0,0.1,0.1c-0.2,0.1-0.5,0.4-0.6,1.1
		c-0.1,0.7,0.8,0.9,1.1,1c0.3,0,0.4,0.2,0,0.2c-0.3,0-0.7-0.2-0.9,1c-0.2,1.1,1.8,1.1,2,1.1c0.2,0,0.6,0.1,0,0.1
		c-0.6,0.1-1,0.5-0.7,1.3c0.3,0.8,2.4,0.6,2.6,0.6c0.2,0,0.5,0.1,0,0.2c-0.4,0.1-0.8,0.4-0.4,1.2s1.7,0.6,2,0.6
		c0.3,0,0.3,0.1,0.1,0.2c-0.6,0.2-0.8,0.6-0.5,0.9c0.3,0.3,0.9,0.3,1.1,0.2c0.2-0.1,0.3-0.1,0.1,0.1c-0.1,0.2-0.2,0.5,0.2,0.9
		c0.4,0.5,1.4,0.2,1.6,0.1c0.2-0.1,0.4,0,0.1,0.1c-0.3,0.2-0.9,0.6-0.5,1.4c0.4,0.7,1.4,0.5,1.6,0.4c0.2-0.1,0.3,0,0.1,0.1
		c-0.2,0.1-0.7,0.5-0.4,1.1c0.3,0.6,1.2,0.3,1.4,0.2c0.2-0.1,0.3-0.1,0.1,0.1c-0.2,0.2-0.7,0.7-0.5,1.2c0.3,0.4,1.1,0.2,1.3,0.1
		c0.2-0.1,0.4,0,0.1,0.2c-0.3,0.1-0.6,0.4-0.3,1.1c0.2,0.7,1.4,0.2,1.5,0.1c0.1-0.1,0.6,0,0.1,0.2c-0.5,0.2-0.9,0.7-0.7,1.3
		c0.2,0.6,1.4,0.4,1.6,0.3c0.2-0.1,0.3,0,0.1,0.1c-0.2,0.1-1.3,0.7-0.9,1.3c0.4,0.7,1.7,0,1.9-0.2c0.2-0.1,0.6-0.2,0.1,0.1
		c-0.5,0.3-1.2,0.8-0.7,1.5c0.5,0.7,1.6,0.1,1.7,0c0.1-0.1,0.4-0.1,0.1,0.1c-0.3,0.2-0.7,0.5-0.4,1c0.3,0.5,1.3-0.2,1.4-0.3
		c0.1-0.1,0.3,0,0.1,0.1c-0.6,0.4-0.7,1-0.1,1.6c0.6,0.6,1-0.5,1.1-0.7c0-0.3,0.1-0.1,0.1-0.1c-0.3,1.2,0.1,1.4,0.5,1.6
		c0.5,0.2,0.8-0.6,0.8-1.1c-0.1-0.5-0.2-1.6-0.2-1.6c-0.9-0.2-1.2-1.1-1.2-1.1c-1,0-1.7-1.4-1.7-1.4c-0.8-0.3-1.1-1.4-1.1-1.4
		c-1.3-0.6-1.6-1.9-1.6-1.9c-1-0.4-1.5-1.9-1.5-1.9c-1.2-0.4-1.6-2.2-1.6-2.2c-1.4-0.6-1.6-2.4-1.6-2.4c-1-0.3-1.8-1.5-1.8-1.5
		c-1.3-0.2-2.1-1.9-2.1-1.9c-2.1-0.5-2.1-2.5-2.1-2.5c-2.4-1.7-1.1-2.9-1.1-2.9c-0.1,2.1,1.8,2.4,1.8,2.4c-0.6,2.1,1.9,2.3,1.9,2.3
		c0.2,2.1,2.2,1.7,2.2,1.7c-0.5,1.1,1.7,1.7,1.7,1.7c-0.4,2.1,1.7,2.5,1.7,2.5c-0.2,1.3,1.5,2.2,1.5,2.2c-0.1,1.5,1.4,2.1,1.4,2.1
		c0.2,1.4,1.6,1.8,1.6,1.8c0,1.2,1.1,1.6,1.1,1.6c0.1,1.2,1.4,1.3,1.4,1.3c0.1,0.5,1.1,1.1,1.1,1.1c-0.1-0.8,0.3-3.9,0.3-3.9
		c-2.8-1.9-5.2-5.2-6.4-7c-1.2-1.9-2.7-5.2-3.1-6.4c-0.4-1.1-0.8-1.9-1.3-2.5c-0.6-0.6-3.8-1.6-8.3-2.6c-4.5-1-7.3-1.1-9.5-1.4
		c-2.2-0.3-3.6-0.3-3.7-0.1c-0.1,0.2,0.6,0.4,1.6,1.1c1,0.7,5.2,1.3,5.7,1.5c0.5,0.1,0.4,0.3,0,0.2c-0.4-0.1-7.5-1.2-8.9-1.4
		c-1.3-0.2-2.5-0.2-2.5,0c0,0.2,0.8,0.5,1.8,0.9c0.9,0.4,2.1,1.3,2.9,1.5c0.8,0.2,5.6,0.8,6.1,0.9c0.5,0.1,0.7,0.3,0,0.2
		c-0.8-0.1-4.8-0.4-6.6-0.6c-1.8-0.2-4.2-0.3-5.1-0.4c-0.9,0-3.1,0.2-3.1,0.5c0,0.3,1.6,0.4,2.3,0.5c0.7,0.1,2.8,1.1,3.5,1.4
		c0.7,0.3,2,0.7,2.9,0.7c0.9,0,6.3,0.2,6.9,0.2s0.9,0.3-0.1,0.3c-1,0-12.5-0.1-13.9,0c-1.4,0.1-2.6,0.4-2.6,0.7c0,0.3,2.6,0.1,4,0.5
		c1.5,0.4,3.2,1.2,3.2,1.2c1.1-0.1,10.3-0.4,10.5-0.4c0.3,0,0.7,0.2,0.1,0.3c-0.6,0.1-5.8,0.5-7.5,0.6c-1.7,0.1-4.8,0.9-5.9,1.2
		c-1.1,0.4-0.1,0.4,0.9,0.3c1,0,2.8,0.3,3.4,0.4c0.5,0.2,1.6,0,3.8-0.2c2.2-0.2,6.7-0.7,7.1-0.8c0.4-0.1,0.5,0.1,0.1,0.2
		c-0.5,0.1-1.2,0.3-3.6,0.7c-2.3,0.4-4.7,0.8-6.8,1.5c-2.1,0.7-1.2,0.9,1.5,0.9c2.7,0,9.7-1.6,10.2-1.8c0.5-0.2,0.5,0,0,0.2
		c-0.5,0.2-5,1.2-6.3,1.6c-1.3,0.5-3,1.3-3,1.8c0,0.4,2.6,0,5-0.5c2.4-0.5,5.1-1.3,5.6-1.5c0.4-0.2,0.5-0.1,0.1,0.2
		c-0.6,0.3-7.3,2-7.5,2.3c-0.2,0.3,0.3,0.4,1.1,0.8c0.8,0.4,6.6-1.3,7.2-1.4c0.6-0.1,0.5,0,0.1,0.2c-0.4,0.1-2,0.6-3,0.9
		c-1,0.3-2.4,0.5-2.6,0.8c-0.2,0.3,0.5,0.7,1.4,1c0.8,0.3,5.7-1.6,6-1.8c0.3-0.1,0.4,0,0.1,0.2c-0.2,0.2-1.8,0.8-2.9,1.3
		c-1.1,0.5-1.7,0.5-1.9,0.7c-0.2,0.2,0.5,0.6,1.4,0.9c0.9,0.3,4.9-1.3,5.2-1.4c0.3-0.2,0.4,0.1,0.2,0.2c-0.2,0.1-1.4,0.6-2.5,1
		c-1.1,0.4-2.1,0.5-2.3,0.8c-0.2,0.3,0.1,0.5,0.9,1c0.8,0.5,4.8-1.3,5-1.4c0.2-0.1,0.4,0,0.2,0.2c-0.2,0.2-1.6,0.7-2.3,1
		c-0.7,0.3-1.6,0.3-1.8,0.6c-0.2,0.3,0.1,0.5,0.9,1.1c0.8,0.5,3.9-1,4.2-1.1c0.2-0.1,0.3-0.1,0.1,0.1c-0.2,0.2-0.9,0.6-1.9,1
		c-0.9,0.4-1.9,0.4-2,0.6c-0.1,0.2,0.3,0.8,1.1,1.3c0.7,0.5,3.4-0.9,3.7-1c0.3-0.1,0.5-0.1,0.1,0.2c-0.4,0.3-3,1.2-3.1,1.6
		c-0.2,0.4,0.4,1.1,1.2,1.2c0.9,0.1,2.7-1,3-1.3c0.2-0.3,0.5-0.1,0.2,0.1c-0.2,0.2-0.7,0.6-1.4,1c-0.8,0.4-1.4,0.4-1.7,0.9
		c-0.1,0.2,0,0.5,0.2,0.7l-0.7,0c-0.3-0.5-0.2-0.9-0.2-0.9s-0.9-0.6-1.1-1c-0.2-0.4-0.4-1-0.4-1s-0.9-0.5-1.2-0.9
		c-0.2-0.4-0.3-0.9-0.3-0.9s-0.6-0.1-1.1-0.5c-0.4-0.4-0.6-1-0.6-1c-0.4,0-1.1-0.3-1.4-0.6c-0.3-0.3-0.5-1-0.5-1
		c-0.3-0.1-0.8-0.2-1.3-0.6c-0.5-0.4-0.7-1-0.7-1c-0.6,0.3-1.3,0-1.7-0.3c-0.5-0.3-0.7-1.1-0.7-1.1c-0.2,0.1-1.7-0.2-2.1-0.4
		c-0.5-0.2-0.7-0.8-0.7-0.8s-0.6,0.2-1.4,0.2c-0.8,0-1.8,0-2-0.5c-0.2-0.5,1.3-1.7,1.3-1.7s-0.5,0.1-1.7,0.2
		c-1.2,0.1-2.8-0.3-3.4-0.5c-0.6-0.2-0.1-0.6,0.4-0.9c0.6-0.3,0.7-0.6,0.7-0.6c-0.3,0-0.7-0.3-1.5-0.4c-0.8-0.2-1.5-0.2-2.6-0.2
		c-1,0-1.5-0.1-1.5-0.4s0.2-0.7,1.3-1.2c1-0.5,2-0.6,2-0.6c-1.1-0.8-3-1.1-4.5-1.2c-0.7,3-1,6.2-1.1,9.4c-0.1,3.5,0.2,7,0.8,10.4
		L216,66.6L216,66.6z M247.4,66.6c0.7-0.4,1.3-0.8,1.4-0.8c0.2-0.2,0.4-0.1,0.1,0.1c-0.1,0.1-0.5,0.4-1.1,0.7L247.4,66.6L247.4,66.6
		z M250.9,66.6c-0.1-0.4,0-0.7,0-0.7c-1.4,0-1.3-1.8-1.3-1.8c-1.5-0.2-1.3-2-1.3-2c-1.5-0.3-0.9-1.9-0.9-1.9c-1.9-0.2-1.1-2-1.1-2
		c-1.5-0.2-1.3-1.7-1.3-1.7c-1.8-0.3-1.3-1.6-1.3-1.6c-1.7-0.2-1.6-1.7-1.6-1.7c-1.6-0.5-1.3-1.6-1.3-1.6c-1.1-0.1-1.3-1.2-1.3-1.2
		c-2,0.1-1.6-1.3-1.6-1.3c-1.3-0.1-1.4-1.2-1.4-1.2c-2.4-0.6-1.4-1.9-1.4-1.9c-1.6-0.9-0.8-2.1-0.8-2.1c-1.6-1.3-0.2-2.5-0.2-2.5
		c-0.4-1,0.5-1.5,0.8-1.6c0.3-0.1,0.8-0.1,0.2,0.1c-0.5,0.3-0.5,0.7-0.4,1.2c0.1,0.4,0.5,0.4,0.8,0.4c0.3,0,0.4,0.2,0,0.2
		c-0.4,0-0.6-0.1-1.1,0.3c-0.5,0.4-0.2,1.2,0.3,1.5c0.5,0.4,0.9,0.2,1.3,0.2c0.3,0,0.4,0.2,0.1,0.2c-0.4,0-0.7-0.1-1,0.3
		c-0.4,0.3-0.2,1,0.3,1.3c0.5,0.3,1.1,0.1,1.4,0.1c0.3,0,0.3,0.1,0,0.2c-0.3,0.1-0.6,0-1.1,0.5c-0.5,0.5,0.3,1,0.9,1.2
		c0.5,0.1,1.2-0.2,1.5-0.3c0.4-0.1,0.4,0,0.1,0.1c-0.3,0.2-0.7,0.3-0.9,0.7c-0.2,0.3,0.2,0.5,0.6,0.7c0.4,0.2,1.1-0.2,1.2-0.2
		c0.2,0,0.3,0,0.1,0.1c-0.2,0.1-0.6,0.2-0.7,0.6c-0.1,0.4,0.2,0.6,0.8,0.8c0.6,0.2,1.1-0.2,1.5-0.4c0.3-0.2,0.3,0,0.1,0.1
		c-0.2,0.1-0.6,0.3-0.6,0.7c-0.1,0.4,0.2,0.5,0.9,0.7c0.7,0.2,1.1,0,1.3-0.1c0.2-0.1,0.3,0,0.1,0.1c-0.2,0.1-0.8,0.3-1,0.5
		c-0.2,0.2,0.4,0.9,0.9,1c0.4,0.1,1.1-0.2,1.4-0.3c0.3-0.1,0.5,0,0.1,0.2c-0.5,0.1-0.9,0.1-1,0.7c-0.1,0.6,0.6,0.9,1.1,1.1
		c0.5,0.2,0.9-0.3,1.1-0.3c0.2-0.1,0.3,0,0.1,0.1c-0.3,0.1-0.6,0.4-0.8,0.9c-0.2,0.5,0.2,0.7,0.7,1c0.5,0.3,0.9-0.2,1.1-0.3
		c0.2-0.1,0.3-0.1,0.1,0.1c-0.2,0.2-0.6,0.4-0.7,0.8c-0.1,0.5,0.4,0.8,0.8,1.1c0.4,0.2,0.8-0.1,1-0.3c0.2-0.1,0.3,0,0.1,0.1
		c-0.2,0.1-0.2,0.3-0.6,0.9c-0.4,0.6,0.2,1,0.6,1.2c0.4,0.1,0.6-0.3,0.9-0.5c0.3-0.1,0.4,0,0.1,0.3c-0.4,0.3-0.5,0.4-0.7,0.9
		c-0.2,0.5,0.3,0.9,0.7,1.1c0.4,0.2,0.7-0.2,1-0.4c0.3-0.2,0.4,0,0.1,0.1c-0.2,0.2-0.6,0.6-0.7,1.1c-0.2,0.4,0.2,1,0.7,1.2
		c0.5,0.2,0.9-0.4,1.2-0.6c0.3-0.2,0.4-0.1,0.1,0.1c-0.2,0.2-0.5,0.7-0.6,1.1c-0.1,0.4,0.2,1,0.9,1.1c0.7,0,0.9-0.4,1.2-0.6
		c0.2-0.1,0.4,0,0.1,0.2c-0.3,0.2-0.8,0.9-0.9,1.3c0,0.1,0,0.3,0,0.4L250.9,66.6L250.9,66.6z M253.1,66.6c0.1-0.1,0.3-0.3,0.4-0.4
		c0.3-0.3,0.6-0.2,0.3,0.1c-0.1,0.1-0.1,0.2-0.2,0.3L253.1,66.6L253.1,66.6z M273.4,66.6c-0.5-0.9-1-1.7-1.3-2.1
		c-0.5-0.8-0.9-1.6-1-1.9c-0.1-0.3-0.1-0.5,0.2-0.2c0.3,0.2,1.9,0.8,2.6,0.7c0.7-0.1,1.2-0.5,1.2-0.6c0-0.1-0.4-0.2-0.6-0.3
		c-0.2-0.1-0.1-0.3,0.2-0.2c0.4,0.1,1.2-0.1,2-0.3c0.8-0.2,0.8-0.7,0.7-0.8c0-0.1-0.3-0.1-0.7-0.2c-0.3-0.1,0-0.2,0.5-0.2
		c0.5,0,0.9-0.2,1.3-0.5c0.4-0.3,0.5-0.7,0.5-0.9c0-0.1-0.3-0.2-0.6-0.2c-0.3,0-0.3-0.2,0-0.2c0.4,0,1.2-0.3,1.5-0.5
		c0.4-0.2,0.6-0.7,0.5-0.8c-0.1-0.1-0.4-0.1-0.7-0.2c-0.4-0.1-0.2-0.2,0.1-0.2c0.3,0,0.5,0,1.2,0c0.7-0.1,1-0.9,1.1-1.2
		c0.1-0.3,0-0.3-0.3-0.3c-0.3,0-0.3-0.1,0-0.2c0.3-0.1,1.2-0.9,1.4-1.3c0.2-0.3,0.1-0.5,0-0.5c0.1-0.3,0.6-0.6,0.9-1
		c0.3-0.4,0.1-0.6-0.1-0.6c-0.2,0-0.2-0.3,0-0.3c0.3,0,0.6,0,1.1-0.2c0.5-0.2,0.7-0.8,0.8-1.1c0.2-0.4,0-0.5-0.2-0.5
		c0.3-0.4,0.3-0.3,1-0.7c0.6-0.4,0.7-0.7,0.8-1.1c0.1-0.3-0.2-0.5-0.4-0.5c0.8-0.5,1-1.6,1-1.8c0.9,0.6-0.2,1.7-0.2,1.7
		c0.5,1.5-1.3,2.4-1.3,2.4c0.1,1.8-1.9,2.2-1.9,2.2c0.1,0.6-0.7,1.4-0.7,1.4c0,1.4-1.3,1.9-1.3,1.9c0.2,1.4-1.2,2-1.2,2
		c-0.4,1.3-1.7,1.7-1.7,1.7c-0.1,1.1-1.8,1.7-1.8,1.7c-0.1,1.4-2.3,1.7-2.3,1.7s-0.4,0.8-1.4,1.2c-1,0.3-2.1-0.3-2.1-0.3
		c0.7,1.2,1,1.4,1.9,2.2c0.9,0.8,1.7,0.9,2.3,1c0.6,0,1-0.2,1-0.3c0-0.1-0.3-0.2-0.7-0.5c-0.4-0.3-0.8-0.8-0.9-1
		c0.4,0.1,1.2,0.8,1.8,1s1.1-0.1,1.4-0.4c0.3-0.3,0.1-0.4-0.2-0.5c-0.3-0.1-1.1-0.9-1.2-1.1c-0.1-0.2-0.1-0.4,0.1-0.1
		c0.2,0.2,1.3,0.9,1.7,1c0.4,0,1-0.3,1.2-0.5c0.2-0.1,0.2-0.3,0-0.3c-0.2-0.1-1.1-0.7-1.2-0.8c0.3,0,0.8,0.5,1.4,0.6
		c0.6,0.1,1-0.5,1.2-0.6c0.2-0.1,0.2-0.3,0-0.4c-0.2,0-1-0.4-1.1-0.5c0.2,0,0.7,0.2,1.1,0.1c0.4,0,0.7-0.4,0.9-0.7
		c0.2-0.3,0.2-0.4,0-0.4c-0.2,0-0.9-0.5-1.1-0.7c-0.2-0.2-0.1-0.3,0.1-0.1c0.2,0.2,0.6,0.4,1.1,0.3c0.5,0,0.9-0.6,1-0.9
		c0.2-0.3-0.2-0.3-0.6-0.4c-0.4-0.1-0.6-0.3-0.7-0.5c0.1,0,0.1,0,0.6,0.1c0.5,0.2,0.4,0.1,0.7,0c0.3-0.1,0.6-0.6,0.7-0.8
		c0.1-0.2,0.2-0.3,0-0.3c-0.2,0-0.9-0.4-1.1-0.5c0.2,0,0.8,0.2,1.1,0.2c0.3,0,0.5-0.4,0.8-0.9c0.3-0.5,0.1-0.6,0.1-0.6
		c-0.6,0.1-0.9-0.2-1-0.3c0.1,0,0.3,0,0.6,0.1c0.3,0,0.7-0.3,0.9-0.5c0.2-0.2,0.4-0.6,0.2-0.6c-0.2,0-0.6-0.1-0.8-0.2
		c0.2,0,0.4,0,0.9-0.1c0.4-0.2,0.5-0.3,0.7-0.6c0.3-0.3,0.4-1.1,0.5-1.5c0-0.4-0.4-0.6-0.7-0.7c-0.3-0.1-0.2-0.1,0.3-0.1
		c0.5,0,1-0.2,1.5-0.8c0.5-0.6,0.2-0.7,0.2-0.7c-0.3,0-0.6-0.1-0.8-0.2c0.1-0.1,0.2-0.1,0.7-0.2c0.4-0.1,0.5-0.1,1-0.7
		c0.6-0.5,0.2-0.9-0.1-1c0.3-0.2,0.2-0.1,0.8-0.3c0.6-0.2,0.8-0.5,0.9-0.9c0.1-0.4-0.2-0.4-0.5-0.4c0.3-0.2,1.7-0.7,2-1
		c0.3-0.3,0.1-0.8,0-0.8c-0.1-0.1-0.4-0.1-0.7-0.1c-0.2,0-0.4-0.3,0.2-0.3c0.6,0.1,1.1-0.3,1.4-0.6c0.2-0.3-0.2-0.9-0.3-1
		c2.2,0.8,0,1.9,0,1.9c0.7,1.5-1.4,2.1-1.4,2.1c0.1,1.2-1.5,1.9-1.5,1.9c0,1-1.1,1.6-1.1,1.6c-0.1,1.2-1.5,2-1.5,2
		c0.3,1.5-0.9,2.6-0.9,2.6c-0.1,0.9-0.8,1.5-0.8,1.5c-0.1,1.3-1.1,1.9-1.1,1.9c0.2,0.6-0.7,1.4-0.7,1.4c0.2,1-0.9,1.8-0.9,1.8
		c0,0.8-0.8,1.4-0.8,1.4c-0.2,1.3-1.3,1.6-1.3,1.6c-0.5,1.1-1.5,1.2-1.5,1.2c-0.7,1.5-1.9,1.2-1.9,1.2c0,0-0.1,0.1-0.1,0.1
		L273.4,66.6L273.4,66.6z M285.8,66.6c0-0.1-0.1-0.1-0.4-0.1c-0.5,0.1-1.6-0.7-1.9-0.9c-0.3-0.2-0.1-0.3,0.1-0.2
		c0.2,0.1,0.9,0.5,1.4,0.6c0.5,0.1,1.2,0.1,1.4-0.4c0.2-0.4,0.4-0.6,0-0.7c-0.4,0-1.6-0.5-1.9-0.7c-0.3-0.2-0.2-0.3,0.1-0.2
		c0.2,0.1,0.9,0.4,1.4,0.5c0.5,0.1,0.7,0,1-0.4c0.3-0.4,0.3-0.6,0.3-0.7c0-0.1-0.2,0.1-0.7-0.1c-0.4-0.1-1.1-0.3-1.3-0.5
		c-0.2-0.1-0.3-0.2,0.1-0.1c0.3,0.1,0.9,0.4,1.3,0.4c0.4,0,0.8,0,1.1-0.4c0.3-0.4,0.5-0.7,0.3-0.8c-0.1-0.2-0.3,0-0.8,0
		c-0.5,0-1-0.2-1.3-0.3c-0.3,0-0.3-0.2,0.1-0.1c0.3,0.1,1.3,0.2,1.8,0c0.5-0.2,0.9-0.5,1-0.9c0.1-0.4,0.1-0.6-0.2-0.5
		c-0.2,0.1-1,0.1-1.3,0c-0.3-0.1-0.4,0-0.5-0.2c0.5-0.1,1.5,0.1,1.9-0.4c0.4-0.5,0.7-0.9,0.5-1.1c-0.2-0.2-0.6-0.1-0.8-0.1
		c-0.2,0-0.3,0.1-0.4,0c0.4-0.1,1-0.3,1.3-0.6c0.3-0.4,0.5-0.7,0.5-0.8c-0.1-0.2-0.2,0-0.7-0.1c-0.5-0.1-0.9-0.1-1.1-0.2
		c0.3-0.1,1-0.1,1.4-0.2c0.4-0.1,1.1-0.8,1.1-1.1c-0.1-0.3,0-0.3-0.3-0.4c-0.3,0-0.6-0.2-0.9-0.2c-0.3-0.1-0.2-0.1,0.1-0.1
		c0.3,0,1.5-0.1,1.8-0.7c0.3-0.6,0.3-0.7-0.1-0.7c-0.4,0-0.5,0-0.8-0.1c-0.3-0.1-0.2-0.3,0.1-0.2c0.2,0.1,0.9,0,1.1-0.1
		c0.2-0.1,0.6-0.6,0.6-0.8c0-0.2-0.2,0-0.6-0.1c-0.3-0.1-0.3-0.1-0.5-0.2c0.2-0.1,0.8,0.1,1.4-0.2c0.6-0.3,0.9-0.7,0.7-0.9
		c-0.2-0.2-0.7-0.4-1-0.5c-0.3-0.1-0.2-0.2,0.1-0.2c0.3,0,1.2,0.3,1.7,0.2c0.5-0.2,1.6-0.9,1.6-1.1c0-0.3-0.4-0.2-0.9-0.3
		c-0.5-0.1-0.6-0.1-0.9-0.3c-0.3-0.1-0.2-0.3,0.1-0.2c0.2,0.1,1.3,0.3,2,0c0.7-0.4,1.3-0.8,1.1-0.9c-0.2-0.2-0.4,0-0.9-0.1
		c-0.5-0.1-0.3,0-0.6-0.2c-0.3-0.2-0.2-0.3,0.1-0.2c0.3,0.1,1.4,0.2,1.8,0c0.4-0.2,1.1-0.7,1-0.9c-0.1-0.2-0.3-0.1-0.8-0.1
		c-0.5,0-1.1-0.1-1.5-0.2c-0.3-0.1-0.2-0.2,0.1-0.2c0.2,0,1.6,0.2,2,0c0.4-0.2,0.9-0.8,0.7-1.3c-0.2-0.5-0.4-0.6-0.9-0.6
		c-0.5,0.1-0.6,0.1-0.9,0c-0.3-0.1-0.2-0.2,0.1-0.2c0.3,0,0.8,0,1-0.2c0.2-0.2,0.3-0.5,0.1-0.8c-0.2-0.3,0-0.3-0.6-0.4
		c-0.6-0.1-0.7-0.1-1-0.1c-0.3,0-0.3-0.1,0.1-0.2c0.4-0.1,1.5-0.2,1.8,0.2c0.3,0.4,0.5,0.8,0.4,1.2c0,0,1,1.4-0.1,2.5
		c0,0,0.2,1.5-1.2,1.9c0,0-0.2,0.9-1.2,1.2c0,0-0.6,1.8-2.3,2c0,0-0.4,1.1-1.2,1.3c0,0,0,0.9-0.7,1.1c0,0,0.1,1.2-0.9,1.7
		c0,0,0.3,1.3-0.7,1.9c0,0,0.1,0.9-0.5,1.4c0,0,0.4,0.8-0.5,1.8c0,0,0.3,1.2-0.8,1.9c0,0,0.3,1-0.7,1.6c0,0-0.1,1.3-0.8,1.7
		c0,0,0,0.9-0.7,1.4c0,0,0,0.1,0,0.3L285.8,66.6L285.8,66.6z M289.4,66.6c-0.3-0.2-0.5-0.4-0.5-0.4c0.2,0,0.5,0.1,1.1,0.4
		L289.4,66.6L289.4,66.6z M293.4,66.6c-0.3-0.2-0.5-0.3-0.8-0.5c-1.1-0.7-2.5-1.8-2.6-1.9c0.2,0,1.9,0.7,2.7,1.3
		c0.7,0.5,1.8,1,2.5,1.1L293.4,66.6L293.4,66.6z M261.6,50.4c0,0,0.2,0.5,0.8,0.4c0,0-0.4-0.3-0.6-0.5L261.6,50.4L261.6,50.4z
		 M263.1,49.9c0.1,0.4-0.2,0.8-0.2,0.8c0.7-0.2,0.6-0.9,0.6-0.9C263.4,49.7,263.1,49.9,263.1,49.9L263.1,49.9z M267.7,50.6
		c0,0,0.2-0.4,0.2-0.9c0-0.5-0.7-1.3-1.4-1.3c-0.7,0-1.7,0.3-1.7,0.3s-0.1,1-0.4,1.6c0,0,1.1-0.5,1.1-0.4c0,0.1-0.6,0.4-1.1,0.7
		c-0.5,0.3-2,1.1-2,2.5c0,0,1-0.3,2.1-0.9c1.1-0.6,1.9-1.1,2.1-1.7c0,0-0.1,0.1-0.6,0.3c-0.4,0.2-2.6,1.6-2.9,1.7
		c0,0-0.1-0.2,0.2-0.5c0.4-0.3,1.4-1.4,2.3-1.7C266.6,50.1,267.1,49.9,267.7,50.6L267.7,50.6z M323.2,43c-0.2-0.8-0.5-1.6-0.7-2.4
		c-0.7,0.3-1.6,0.6-2.1,0.8c-1.2,0.6-3,1.6-3,1.6C318.5,43,321.4,43,323.2,43L323.2,43z M324.1,47c-0.1-0.6-0.2-1.2-0.4-1.8
		c-1.6,0.5-3.7,1.2-3.7,1.2C320.6,46.5,323,46.7,324.1,47L324.1,47z M217.8,43.2l-0.4,1.4l0.4,0c1.3,0,3.5-0.1,3.5-0.1
		C220.2,43.9,218.7,43.4,217.8,43.2L217.8,43.2z M271.5,2.7c-24.9-0.4-46.1,15.8-53.1,38.5l0.8,0c1.8,0,4.3,0.2,4.3,0.2
		c-0.4-0.3-1.8-1-2.3-1.2c-0.5-0.2-1.5-0.7-1.4-1.2c0.2-0.5,1.2-0.7,2-0.7c0.9,0,3.3,0.4,3.3,0.4s-1.8-1-1.7-1.5
		c0.1-0.5,3.9-0.4,7.7,0c3.7,0.5,8.4,1.5,11.9,2.4c3.5,0.9,4.2,1.5,4.7,1.9c0.5,0.5,0.4,2.5,3.5,7.8c3.1,5.3,6.1,7,6.1,7
		s0.3-0.9,0.5-2.5c0.3-1.6,0.5-2.4,0.5-2.6c0-0.1-0.6-0.3,0-0.7c0.5-0.4,1.5-1.1,2.9-1.9c1.4-0.8,2-0.9,2.6-1
		c0.6-0.1,0.8,0.5,0.8,0.5c0.9-0.2,1.7-0.3,1.7-0.3s2.1-0.1,2.1,1.6c0,1.8-0.9,2.2-0.9,2.2c0.1-1-0.3-1-0.3-1
		c-0.8,1.2-2.5,1.9-2.5,1.9c0.1,1,0.4,1.4,1.4,2.8c1,1.4,2.3,2.7,2.8,2.7c0.4,0,2.1-0.6,5.3-2.5c3.2-1.9,5.5-4.2,7-6.4
		c1.5-2.2,3.5-6.1,3.8-6.6c0.3-0.5,0.6-1.1,1.3-1.3c8.8-2.7,16.4-4.6,18.7-5.2c2.3-0.6,5.4-1,5.5-0.6c0.1,0.4-2.2,2-2.2,2
		s3.2-0.8,4.9-1.1c1.7-0.4,5.6-1,5.8-0.2c0.2,0.9-3.3,1.8-4.3,2.3c-0.9,0.5-1.7,1.2-1.7,1.2c1.9-0.4,7-1,8.1-1c0.2,0,0.5,0,0.8,0
		C314.6,18.2,294.9,3.1,271.5,2.7L271.5,2.7z M273.3,59.1c0,0,3.6-2.3,6.1-5c2.5-2.6,4.7-5.8,4.7-5.8s-1.4,3.6-4.6,6.5
		C275.9,58.2,273.3,59.1,273.3,59.1L273.3,59.1z M267.8,60.5c0,0,1.2,0.9,1.6,2.5C269.3,63,268.4,62.3,267.8,60.5L267.8,60.5z
		 M269.2,27.6l-1-0.7l-1,0.7l0.4-1.1l-1-0.7l1.2,0l0.4-1.1l0.4,1.2l1.2,0l-1,0.7L269.2,27.6L269.2,27.6z M283,33.6l-1-0.7l-1,0.7
		l0.4-1.1l-1-0.7l1.2,0l0.4-1.1l0.4,1.2l1.2,0l-1,0.7L283,33.6L283,33.6z M274.1,38.7l-1-0.7l-1,0.7l0.4-1.1l-1-0.7l1.2,0l0.4-1.1
		l0.4,1.2l1.2,0l-1,0.7L274.1,38.7L274.1,38.7z M252.8,37l-1-0.7l-1,0.7l0.4-1.1l-1-0.7l1.2,0l0.4-1.1l0.4,1.2l1.2,0l-1,0.7
		L252.8,37L252.8,37z M262.3,33.3l-1.5-1.1l-1.5,1.1l0.6-1.8l-1.5-1.1l1.9,0l0.6-1.8l0.5,1.8l1.9,0l-1.5,1.1L262.3,33.3L262.3,33.3z
		"/>
	<polygon class="st1" points="301.3,85.2 304.8,85.2 304.8,145.2 301.3,145.2 301.3,85.2 	"/>
	<path class="st2" d="M9.5,130.7h3.7L9,117.5H5.1l-4.4,13.1h3.4l0.8-2.8h3.9L9.5,130.7L9.5,130.7z M8.2,125.4H5.6l1.4-5.2h0
		L8.2,125.4L8.2,125.4z"/>
	<polygon class="st0" points="20.9,130.7 25,130.7 21,123.7 24.7,117.5 20.8,117.5 18,122.9 17.9,122.9 17.9,117.5 14.4,117.5 
		14.4,130.7 17.9,130.7 17.9,124.8 18,124.8 20.9,130.7 	"/>
	<path class="st2" d="M33.9,130.7h3.7l-4.2-13.1h-3.9l-4.4,13.1h3.4l0.8-2.8h3.9L33.9,130.7L33.9,130.7z M32.5,125.4h-2.6l1.4-5.2h0
		L32.5,125.4L32.5,125.4z"/>
	<path class="st2" d="M38.8,130.7h4.5c2.1,0,3.7-0.5,4.8-1.6c1.1-1.1,1.7-2.8,1.7-5c0-2-0.5-3.6-1.6-4.7c-1-1.2-2.5-1.8-4.5-1.8
		h-5.1V130.7L38.8,130.7z M42.3,120.1h0.3c0.6,0,1.2,0.1,1.8,0.3c0.5,0.2,1,0.6,1.3,1.2c0.3,0.6,0.5,1.4,0.5,2.5
		c0,1.3-0.3,2.3-0.8,2.9c-0.5,0.7-1.3,1-2.3,1h-0.8V120.1L42.3,120.1z"/>
	<polygon class="st0" points="51.7,130.7 60,130.7 60,128.1 55.2,128.1 55.2,125.3 59.5,125.3 59.5,122.7 55.2,122.7 55.2,120.1 
		59.7,120.1 59.7,117.5 51.7,117.5 51.7,130.7 	"/>
	<polygon class="st0" points="67.6,130.7 69.8,130.7 72.6,120.7 72.6,120.7 72.6,130.7 75.8,130.7 75.8,117.5 70.7,117.5 
		68.8,125.8 68.8,125.8 67,117.5 61.8,117.5 61.8,130.7 64.9,130.7 64.9,120.7 64.9,120.7 67.6,130.7 	"/>
	<polygon class="st0" points="78.2,130.7 81.7,130.7 81.7,117.5 78.2,117.5 78.2,130.7 	"/>
	<polygon class="st0" points="84.1,130.7 92.4,130.7 92.4,128.1 87.6,128.1 87.6,125.3 91.9,125.3 91.9,122.7 87.6,122.7 
		87.6,120.1 92.1,120.1 92.1,117.5 84.1,117.5 84.1,130.7 	"/>
	<path class="st2" d="M99.1,130.7h4.5c2.1,0,3.7-0.5,4.8-1.6s1.7-2.8,1.7-5c0-2-0.5-3.6-1.6-4.7c-1-1.2-2.5-1.8-4.5-1.8h-5.1V130.7
		L99.1,130.7z M102.6,120.1h0.3c0.6,0,1.2,0.1,1.8,0.3c0.5,0.2,1,0.6,1.3,1.2c0.3,0.6,0.5,1.4,0.5,2.5c0,1.3-0.3,2.3-0.8,2.9
		c-0.5,0.7-1.3,1-2.3,1h-0.8V120.1L102.6,120.1z"/>
	<polygon class="st0" points="112,130.7 120.3,130.7 120.3,128.1 115.5,128.1 115.5,125.3 119.8,125.3 119.8,122.7 115.5,122.7 
		115.5,120.1 120.1,120.1 120.1,117.5 112,117.5 112,130.7 	"/>
	<path class="st2" d="M125.5,123v-3h1c0.5,0,0.9,0.2,1.1,0.4c0.2,0.3,0.4,0.7,0.4,1.1c0,0.4-0.2,0.8-0.4,1c-0.3,0.3-0.6,0.4-1,0.4
		H125.5L125.5,123z M128.3,130.7h3.7l-1.2-4.1c-0.3-0.9-0.5-1.5-0.8-1.8c-0.3-0.3-0.6-0.5-1-0.6v-0.1c0.4-0.1,0.8-0.2,1.2-0.5
		c0.4-0.2,0.7-0.5,1-1c0.3-0.4,0.4-0.9,0.4-1.6c0-1.2-0.4-2.1-1.1-2.7c-0.7-0.6-1.7-0.9-3.1-0.9h-5.3v13.1h3.5v-5.1h0.2
		c0.3,0,0.6,0.1,0.8,0.2c0.3,0.2,0.5,0.6,0.7,1.2L128.3,130.7L128.3,130.7z"/>
	<polygon class="st0" points="146.4,130.7 150.6,130.7 153,117.5 150,117.5 148.5,126.8 148.5,126.8 147,117.5 142.9,117.5 
		141.6,126.8 141.5,126.8 140.1,117.5 136.8,117.5 139.4,130.7 143.5,130.7 145,120.6 145,120.6 146.4,130.7 	"/>
	<polygon class="st0" points="154.3,130.7 157.8,130.7 157.8,117.5 154.3,117.5 154.3,130.7 	"/>
	<path class="st0" d="M160,130.4c0.3,0.1,0.8,0.2,1.4,0.3c0.6,0.1,1.3,0.2,2.1,0.2c1.6,0,2.8-0.4,3.7-1.1c0.9-0.7,1.4-1.8,1.4-3.3
		c0-1-0.2-1.7-0.7-2.2c-0.4-0.5-0.9-0.9-1.6-1.1l-1.6-0.7c-0.6-0.3-1-0.5-1.2-0.7c-0.2-0.2-0.3-0.5-0.3-0.8c0-0.4,0.2-0.7,0.5-0.9
		c0.3-0.2,0.7-0.3,1.2-0.3c0.5,0,1,0.1,1.5,0.2c0.5,0.1,0.9,0.3,1.2,0.4l0.2-2.6c-0.5-0.2-1.1-0.4-1.7-0.4c-0.6-0.1-1.1-0.1-1.6-0.1
		c-1.4,0-2.6,0.3-3.4,1c-0.9,0.7-1.3,1.6-1.3,2.9c0,0.9,0.2,1.7,0.6,2.3c0.4,0.6,1.2,1.1,2.2,1.6l0.8,0.3c0.5,0.2,0.9,0.4,1.2,0.6
		c0.3,0.2,0.4,0.5,0.4,0.9c0,0.4-0.1,0.8-0.4,1c-0.3,0.3-0.7,0.4-1.4,0.4c-0.6,0-1.2-0.1-1.8-0.3c-0.5-0.2-0.9-0.3-1.2-0.5
		L160,130.4L160,130.4z"/>
	<path class="st0" d="M170.5,130.4c0.3,0.1,0.8,0.2,1.4,0.3c0.6,0.1,1.3,0.2,2.1,0.2c1.6,0,2.8-0.4,3.7-1.1c0.9-0.7,1.4-1.8,1.4-3.3
		c0-1-0.2-1.7-0.7-2.2c-0.4-0.5-0.9-0.9-1.6-1.1l-1.6-0.7c-0.6-0.3-1-0.5-1.2-0.7c-0.2-0.2-0.3-0.5-0.3-0.8c0-0.4,0.2-0.7,0.5-0.9
		c0.3-0.2,0.7-0.3,1.2-0.3c0.5,0,1,0.1,1.5,0.2c0.5,0.1,0.9,0.3,1.2,0.4l0.2-2.6c-0.5-0.2-1.1-0.4-1.7-0.4c-0.6-0.1-1.1-0.1-1.6-0.1
		c-1.4,0-2.6,0.3-3.4,1c-0.9,0.7-1.3,1.6-1.3,2.9c0,0.9,0.2,1.7,0.6,2.3c0.4,0.6,1.2,1.1,2.2,1.6l0.8,0.3c0.5,0.2,0.9,0.4,1.2,0.6
		c0.3,0.2,0.4,0.5,0.4,0.9c0,0.4-0.1,0.8-0.4,1c-0.3,0.3-0.7,0.4-1.4,0.4c-0.6,0-1.2-0.1-1.8-0.3c-0.5-0.2-0.9-0.3-1.2-0.5
		L170.5,130.4L170.5,130.4z"/>
	<polygon class="st0" points="181.1,130.7 189.4,130.7 189.4,128.1 184.6,128.1 184.6,125.3 188.9,125.3 188.9,122.7 184.6,122.7 
		184.6,120.1 189.2,120.1 189.2,117.5 181.1,117.5 181.1,130.7 	"/>
	<polygon class="st0" points="197.7,130.7 201.8,130.7 201.8,117.5 198.7,117.5 198.7,126.6 198.7,126.6 195.2,117.5 191.1,117.5 
		191.1,130.7 194.2,130.7 194.2,121.6 194.3,121.6 197.7,130.7 	"/>
	<path class="st0" d="M204,130.4c0.3,0.1,0.8,0.2,1.4,0.3c0.6,0.1,1.3,0.2,2.1,0.2c1.6,0,2.8-0.4,3.7-1.1c0.9-0.7,1.4-1.8,1.4-3.3
		c0-1-0.2-1.7-0.7-2.2c-0.4-0.5-0.9-0.9-1.6-1.1l-1.6-0.7c-0.6-0.3-1-0.5-1.2-0.7c-0.2-0.2-0.3-0.5-0.3-0.8c0-0.4,0.2-0.7,0.5-0.9
		c0.3-0.2,0.7-0.3,1.2-0.3c0.5,0,1,0.1,1.5,0.2c0.5,0.1,0.9,0.3,1.2,0.4l0.2-2.6c-0.5-0.2-1.1-0.4-1.7-0.4c-0.6-0.1-1.1-0.1-1.6-0.1
		c-1.4,0-2.6,0.3-3.4,1c-0.9,0.7-1.3,1.6-1.3,2.9c0,0.9,0.2,1.7,0.6,2.3c0.4,0.6,1.2,1.1,2.2,1.6l0.8,0.3c0.5,0.2,0.9,0.4,1.2,0.6
		c0.3,0.2,0.4,0.5,0.4,0.9c0,0.4-0.1,0.8-0.4,1c-0.3,0.3-0.7,0.4-1.4,0.4c-0.6,0-1.2-0.1-1.8-0.3c-0.5-0.2-0.9-0.3-1.2-0.5
		L204,130.4L204,130.4z"/>
	<path class="st0" d="M223.8,127.4c-0.2,0.1-0.5,0.3-0.9,0.5c-0.4,0.2-1,0.3-1.6,0.3c-1.1,0-2-0.4-2.6-1.1c-0.6-0.7-0.9-1.7-0.9-2.8
		c0-1.3,0.3-2.3,0.8-3c0.5-0.7,1.4-1,2.5-1.1c0.6,0,1.1,0.1,1.5,0.3c0.5,0.2,0.8,0.3,1,0.5l0.2-2.9c-0.2-0.1-0.5-0.2-1.1-0.4
		c-0.5-0.2-1.3-0.2-2.1-0.3c-1.4,0-2.6,0.3-3.6,0.9c-1,0.6-1.7,1.4-2.2,2.4c-0.5,1-0.7,2.2-0.7,3.5c0,1.5,0.3,2.8,0.8,3.8
		c0.6,1,1.3,1.8,2.3,2.3c1,0.5,2.1,0.8,3.4,0.8c0.5,0,1,0,1.6-0.1c0.5-0.1,1.1-0.2,1.7-0.4L223.8,127.4L223.8,127.4z"/>
	<polygon class="st0" points="232,130.7 235.6,130.7 235.6,117.5 232,117.5 232,122.6 229.3,122.6 229.3,117.5 225.8,117.5 
		225.8,130.7 229.3,130.7 229.3,125.3 232,125.3 232,130.7 	"/>
	<path class="st2" d="M245.6,130.7h3.7l-4.2-13.1h-3.9l-4.4,13.1h3.4l0.8-2.8h3.9L245.6,130.7L245.6,130.7z M244.3,125.4h-2.6
		l1.4-5.2h0L244.3,125.4L244.3,125.4z"/>
	<polygon class="st0" points="250.5,130.7 254,130.7 254,125.4 258.1,125.4 258.1,122.8 254,122.8 254,120.1 258.3,120.1 
		258.3,117.5 250.5,117.5 250.5,130.7 	"/>
	<polygon class="st0" points="261.9,130.7 265.4,130.7 265.4,120.2 268.2,120.2 268.2,117.5 259,117.5 259,120.2 261.9,120.2 
		261.9,130.7 	"/>
	<polygon class="st0" points="269.7,130.7 278,130.7 278,128.1 273.1,128.1 273.1,125.3 277.5,125.3 277.5,122.7 273.1,122.7 
		273.1,120.1 277.7,120.1 277.7,117.5 269.7,117.5 269.7,130.7 	"/>
	<polygon class="st0" points="286.2,130.7 290.4,130.7 290.4,117.5 287.3,117.5 287.3,126.6 287.3,126.6 283.8,117.5 279.7,117.5 
		279.7,130.7 282.8,130.7 282.8,121.6 282.9,121.6 286.2,130.7 	"/>
	<path class="st3" d="M99.7,108.9h1.7v-1.3h0c0.2,0.4,0.6,0.7,1.2,1c0.5,0.3,1.2,0.5,2.1,0.5c1,0,1.7-0.3,2.3-0.8
		c0.6-0.5,1-1.1,1.3-1.9c0.3-0.8,0.4-1.6,0.4-2.5c0-0.9-0.1-1.7-0.5-2.4c-0.3-0.7-0.8-1.3-1.4-1.8c-0.6-0.4-1.4-0.7-2.3-0.7
		c-0.8,0-1.5,0.2-2,0.4c-0.5,0.3-0.9,0.6-1.2,1.1h0v-5.8h-1.8V108.9L99.7,108.9z M106.9,104.1c0,0.5-0.1,1-0.2,1.6
		c-0.2,0.6-0.5,1-0.9,1.4c-0.4,0.4-0.9,0.6-1.5,0.6c-0.7,0-1.2-0.2-1.6-0.6c-0.4-0.4-0.7-0.8-0.9-1.4c-0.2-0.5-0.3-1.1-0.3-1.6
		c0-0.6,0.1-1.2,0.3-1.7c0.2-0.5,0.5-1,0.9-1.3c0.4-0.3,0.9-0.5,1.6-0.5c0.6,0,1.1,0.2,1.5,0.5c0.4,0.3,0.7,0.8,0.8,1.3
		C106.9,103,106.9,103.5,106.9,104.1L106.9,104.1z"/>
	<path class="st3" d="M117.5,106.8c-0.2,0.2-0.6,0.4-1.2,0.6c-0.6,0.2-1.1,0.3-1.7,0.3c-0.9,0-1.6-0.3-2.2-0.9
		c-0.6-0.6-0.9-1.3-0.9-2.3h6.8c0-1-0.1-1.9-0.4-2.8c-0.3-0.8-0.7-1.4-1.3-1.9c-0.6-0.5-1.4-0.7-2.5-0.7c-1.4,0-2.4,0.5-3.2,1.4
		c-0.8,0.9-1.2,2-1.2,3.5c0,1.6,0.4,2.8,1.2,3.7c0.8,0.9,2,1.4,3.7,1.4c0.8,0,1.4-0.1,1.8-0.2c0.5-0.1,0.8-0.3,1.2-0.4V106.8
		L117.5,106.8z M111.4,103.2c0-0.4,0.2-0.8,0.3-1.2c0.2-0.4,0.5-0.7,0.8-1c0.4-0.3,0.8-0.4,1.4-0.4c0.8,0,1.3,0.3,1.8,0.8
		c0.4,0.5,0.6,1.1,0.6,1.9H111.4L111.4,103.2z"/>
	<path class="st4" d="M119.7,108.9h1.8v-4.3c0-1.2,0.2-2.2,0.7-2.8c0.5-0.7,1.1-1,1.9-1c0.2,0,0.3,0,0.5,0c0.2,0,0.3,0.1,0.5,0.1
		v-1.6c-0.2,0-0.4-0.1-0.5-0.1c-0.2,0-0.4,0-0.6,0c-0.5,0-1,0.2-1.4,0.5c-0.4,0.3-0.8,0.7-1,1.2h0v-1.5h-1.6V108.9L119.7,108.9z"/>
	<polygon class="st4" points="126.2,108.9 127.9,108.9 127.9,94.9 126.2,94.9 126.2,108.9 	"/>
	<path class="st3" d="M130.4,108.9h1.8v-9.5h-1.8V108.9L130.4,108.9z M132.3,95.3h-2v2h2V95.3L132.3,95.3z"/>
	<path class="st4" d="M134.5,108.9h1.8v-4.4c0-1.2,0.2-2.1,0.7-2.8c0.5-0.7,1.2-1.1,2.2-1.1c0.8,0,1.3,0.3,1.6,0.9
		c0.3,0.6,0.4,1.4,0.4,2.5v4.9h1.8v-5.7c0-1.3-0.3-2.3-0.9-3s-1.5-1.1-2.7-1.1c-0.7,0-1.3,0.2-1.9,0.5c-0.6,0.3-1,0.7-1.3,1.3h0
		v-1.5h-1.7V108.9L134.5,108.9z"/>
	<polygon class="st4" points="144.2,104.6 149,104.6 149,103.2 144.2,103.2 144.2,104.6 	"/>
	<path class="st3" d="M150.3,108.9h1.7v-1.3h0c0.2,0.4,0.6,0.7,1.2,1c0.5,0.3,1.2,0.5,2.1,0.5c1,0,1.7-0.3,2.3-0.8
		c0.6-0.5,1-1.1,1.3-1.9c0.3-0.8,0.4-1.6,0.4-2.5c0-0.9-0.1-1.7-0.5-2.4c-0.3-0.7-0.8-1.3-1.4-1.8c-0.6-0.4-1.4-0.7-2.3-0.7
		c-0.8,0-1.5,0.2-2,0.4c-0.5,0.3-0.9,0.6-1.2,1.1h0v-5.8h-1.8V108.9L150.3,108.9z M157.5,104.1c0,0.5-0.1,1-0.2,1.6
		c-0.2,0.6-0.5,1-0.9,1.4c-0.4,0.4-0.9,0.6-1.5,0.6c-0.7,0-1.2-0.2-1.6-0.6c-0.4-0.4-0.7-0.8-0.9-1.4c-0.2-0.5-0.3-1.1-0.3-1.6
		c0-0.6,0.1-1.2,0.3-1.7c0.2-0.5,0.5-1,0.9-1.3c0.4-0.3,0.9-0.5,1.6-0.5c0.6,0,1.1,0.2,1.5,0.5c0.4,0.3,0.7,0.8,0.8,1.3
		C157.4,103,157.5,103.5,157.5,104.1L157.5,104.1z"/>
	<path class="st4" d="M160.8,108.9h1.8v-4.3c0-1.2,0.2-2.2,0.7-2.8c0.5-0.7,1.1-1,1.9-1c0.2,0,0.3,0,0.5,0c0.2,0,0.3,0.1,0.5,0.1
		v-1.6c-0.2,0-0.4-0.1-0.5-0.1c-0.2,0-0.4,0-0.6,0c-0.5,0-1,0.2-1.4,0.5c-0.4,0.3-0.8,0.7-1,1.2h0v-1.5h-1.6V108.9L160.8,108.9z"/>
	<path class="st3" d="M167.6,101.6c0.4-0.3,0.8-0.5,1.3-0.7c0.5-0.2,1-0.3,1.5-0.3c0.9,0,1.5,0.2,1.8,0.6c0.4,0.4,0.5,1,0.5,1.9
		c-0.3,0-0.6,0-0.9,0c-0.3,0-0.6,0-0.9,0c-0.6,0-1.3,0.1-2,0.3c-0.7,0.2-1.3,0.5-1.7,1c-0.5,0.5-0.7,1.1-0.7,1.9c0,1,0.3,1.8,1,2.3
		c0.6,0.5,1.5,0.7,2.5,0.7c0.8,0,1.4-0.2,1.9-0.5c0.5-0.3,0.8-0.6,1-0.9h0v1.2h1.6c0-0.1,0-0.3-0.1-0.6c0-0.3,0-0.7,0-1.2v-3.9
		c0-1.3-0.3-2.3-0.9-2.9c-0.6-0.7-1.6-1-2.9-1c-0.6,0-1.2,0.1-1.7,0.3c-0.5,0.2-1,0.4-1.4,0.6L167.6,101.6L167.6,101.6z
		 M172.7,105.2c0,0.7-0.2,1.3-0.7,1.8c-0.4,0.5-1.1,0.7-2,0.7c-0.4,0-0.8-0.1-1.2-0.4c-0.4-0.3-0.6-0.6-0.6-1.2c0-0.6,0.2-1,0.6-1.2
		c0.4-0.3,0.9-0.4,1.4-0.5c0.5-0.1,0.9-0.1,1.3-0.1c0.2,0,0.4,0,0.6,0c0.2,0,0.4,0,0.6,0V105.2L172.7,105.2z"/>
	<path class="st4" d="M176.5,108.9h1.8v-4.4c0-1.2,0.2-2.1,0.7-2.8c0.5-0.7,1.2-1.1,2.2-1.1c0.8,0,1.3,0.3,1.6,0.9
		c0.3,0.6,0.4,1.4,0.4,2.5v4.9h1.8v-5.7c0-1.3-0.3-2.3-0.9-3c-0.6-0.7-1.5-1.1-2.7-1.1c-0.7,0-1.3,0.2-1.9,0.5
		c-0.6,0.3-1,0.7-1.3,1.3h0v-1.5h-1.7V108.9L176.5,108.9z"/>
	<path class="st3" d="M193.7,108.9h1.7v-14h-1.8v5.8h0c-0.3-0.4-0.7-0.8-1.2-1.1c-0.5-0.3-1.2-0.4-2-0.4c-0.9,0-1.7,0.2-2.3,0.7
		c-0.6,0.4-1.1,1-1.4,1.8c-0.3,0.7-0.5,1.5-0.5,2.4c0,0.9,0.1,1.7,0.4,2.5c0.3,0.8,0.7,1.4,1.3,1.9c0.6,0.5,1.4,0.7,2.3,0.8
		c0.8,0,1.5-0.2,2.1-0.5c0.5-0.3,0.9-0.7,1.2-1h0V108.9L193.7,108.9z M188.2,104.1c0-0.6,0.1-1.2,0.2-1.7c0.2-0.5,0.5-1,0.8-1.3
		c0.4-0.3,0.9-0.5,1.5-0.5c0.6,0,1.2,0.2,1.6,0.5c0.4,0.3,0.7,0.8,0.9,1.3c0.2,0.5,0.3,1.1,0.3,1.7c0,0.5-0.1,1.1-0.3,1.6
		c-0.2,0.5-0.5,1-0.9,1.4c-0.4,0.4-0.9,0.6-1.6,0.6c-0.6,0-1.1-0.2-1.5-0.6c-0.4-0.4-0.7-0.9-0.9-1.4
		C188.3,105.2,188.2,104.6,188.2,104.1L188.2,104.1z"/>
	<path class="st3" d="M204.8,106.8c-0.2,0.2-0.6,0.4-1.2,0.6c-0.6,0.2-1.1,0.3-1.7,0.3c-0.9,0-1.6-0.3-2.2-0.9
		c-0.6-0.6-0.9-1.3-0.9-2.3h6.8c0-1-0.1-1.9-0.4-2.8c-0.3-0.8-0.7-1.4-1.3-1.9c-0.6-0.5-1.4-0.7-2.5-0.7c-1.4,0-2.4,0.5-3.2,1.4
		c-0.8,0.9-1.2,2-1.2,3.5c0,1.6,0.4,2.8,1.2,3.7c0.8,0.9,2,1.4,3.7,1.4c0.8,0,1.4-0.1,1.8-0.2c0.5-0.1,0.8-0.3,1.2-0.4V106.8
		L204.8,106.8z M198.7,103.2c0-0.4,0.2-0.8,0.3-1.2c0.2-0.4,0.5-0.7,0.8-1c0.4-0.3,0.8-0.4,1.4-0.4c0.8,0,1.3,0.3,1.8,0.8
		c0.4,0.5,0.6,1.1,0.6,1.9H198.7L198.7,103.2z"/>
	<path class="st4" d="M206.9,108.9h1.8v-4.4c0-1.2,0.2-2.1,0.7-2.8c0.5-0.7,1.2-1.1,2.2-1.1c0.8,0,1.3,0.3,1.6,0.9
		c0.3,0.6,0.4,1.4,0.4,2.5v4.9h1.8v-5.7c0-1.3-0.3-2.3-0.9-3c-0.6-0.7-1.5-1.1-2.7-1.1c-0.7,0-1.3,0.2-1.9,0.5
		c-0.6,0.3-1,0.7-1.3,1.3h0v-1.5h-1.7V108.9L206.9,108.9z"/>
	<path class="st3" d="M217.4,108.9h1.7v-1.3h0c0.2,0.4,0.6,0.7,1.2,1c0.5,0.3,1.2,0.5,2.1,0.5c1,0,1.7-0.3,2.3-0.8
		c0.6-0.5,1-1.1,1.3-1.9c0.3-0.8,0.4-1.6,0.4-2.5c0-0.9-0.1-1.7-0.5-2.4c-0.3-0.7-0.8-1.3-1.4-1.8c-0.6-0.4-1.4-0.7-2.3-0.7
		c-0.8,0-1.5,0.2-2,0.4c-0.5,0.3-0.9,0.6-1.2,1.1h0v-5.8h-1.8V108.9L217.4,108.9z M224.6,104.1c0,0.5-0.1,1-0.2,1.6
		c-0.2,0.6-0.5,1-0.9,1.4c-0.4,0.4-0.9,0.6-1.5,0.6c-0.7,0-1.2-0.2-1.6-0.6c-0.4-0.4-0.7-0.8-0.9-1.4c-0.2-0.5-0.3-1.1-0.3-1.6
		c0-0.6,0.1-1.2,0.3-1.7c0.2-0.5,0.5-1,0.9-1.3c0.4-0.3,0.9-0.5,1.6-0.5c0.6,0,1.1,0.2,1.5,0.5c0.4,0.3,0.7,0.8,0.8,1.3
		C224.5,103,224.6,103.5,224.6,104.1L224.6,104.1z"/>
	<path class="st4" d="M236.3,99.4h-1.8v4.4c0,1.2-0.2,2.1-0.7,2.8c-0.5,0.7-1.2,1.1-2.2,1.1c-0.8,0-1.3-0.3-1.6-0.9
		c-0.3-0.6-0.4-1.4-0.4-2.5v-4.9h-1.8v5.7c0,1.3,0.3,2.3,0.9,3c0.6,0.7,1.5,1.1,2.7,1.1c0.7,0,1.3-0.2,1.9-0.5
		c0.6-0.3,1-0.7,1.3-1.3h0v1.5h1.7V99.4L236.3,99.4z"/>
	<path class="st4" d="M238.4,108.9h1.8v-4.3c0-1.2,0.2-2.2,0.7-2.8c0.5-0.7,1.1-1,1.9-1c0.2,0,0.3,0,0.5,0c0.2,0,0.3,0.1,0.5,0.1
		v-1.6c-0.2,0-0.4-0.1-0.5-0.1c-0.2,0-0.4,0-0.6,0c-0.5,0-1,0.2-1.4,0.5c-0.4,0.3-0.8,0.7-1,1.2h0v-1.5h-1.6V108.9L238.4,108.9z"/>
	<path class="st3" d="M253.1,99.4h-1.6v1.4h0c-0.3-0.5-0.6-0.9-1.1-1.2c-0.5-0.3-1.2-0.4-2-0.4c-1,0-1.8,0.3-2.4,0.8
		c-0.6,0.5-1.1,1.1-1.4,1.9c-0.3,0.8-0.5,1.6-0.5,2.4c0,0.8,0.1,1.6,0.4,2.3c0.3,0.7,0.8,1.3,1.4,1.7c0.6,0.4,1.4,0.7,2.3,0.7
		c0.6,0,1.2-0.1,1.8-0.4c0.6-0.2,1-0.6,1.4-1.1h0v0.9c0,1-0.3,1.8-0.8,2.4c-0.5,0.6-1.2,0.9-2.2,0.9c-0.6,0-1.2-0.1-1.7-0.2
		c-0.5-0.1-1.1-0.4-1.7-0.7l-0.2,1.6c0.7,0.3,1.4,0.4,1.9,0.5c0.5,0.1,1,0.1,1.5,0.1c1.7,0,2.9-0.4,3.7-1.2c0.8-0.8,1.2-1.9,1.2-3.4
		V99.4L253.1,99.4z M248.6,107.5c-0.8,0-1.5-0.4-1.9-1c-0.5-0.6-0.7-1.4-0.7-2.4c0-0.6,0.1-1.1,0.3-1.6c0.2-0.5,0.5-1,0.9-1.3
		c0.4-0.4,0.9-0.5,1.5-0.6c0.9,0,1.6,0.4,2.1,1.1c0.5,0.7,0.7,1.6,0.7,2.6c0,0.9-0.3,1.7-0.8,2.3
		C250.1,107.2,249.4,107.5,248.6,107.5L248.6,107.5z"/>
	<path class="st3" d="M255.4,108.9h1.8v-9.5h-1.8V108.9L255.4,108.9z M257.3,95.3h-2v2h2V95.3L257.3,95.3z"/>
	<path class="st4" d="M258.6,108.6c0.4,0.2,0.8,0.3,1.3,0.4c0.4,0.1,0.9,0.1,1.3,0.1c0.6,0,1.1-0.1,1.6-0.3c0.5-0.2,0.9-0.5,1.2-1
		c0.3-0.4,0.5-1,0.5-1.7c0-0.7-0.2-1.3-0.6-1.7c-0.4-0.4-0.9-0.7-1.4-0.9c-0.5-0.2-1-0.5-1.4-0.7c-0.4-0.3-0.6-0.6-0.6-1.1
		c0-0.4,0.2-0.7,0.5-0.9c0.3-0.2,0.7-0.3,1.2-0.3c0.2,0,0.5,0.1,0.9,0.2c0.4,0.1,0.7,0.2,0.9,0.3l0.1-1.5c-0.3-0.1-0.7-0.2-1-0.3
		c-0.4-0.1-0.7-0.1-1.1-0.1c-1,0-1.8,0.2-2.4,0.7c-0.6,0.5-1,1.2-1,2.2c0,0.7,0.2,1.2,0.6,1.5s0.9,0.7,1.4,0.9
		c0.5,0.2,1,0.5,1.4,0.8s0.6,0.6,0.6,1c0,0.5-0.2,0.9-0.6,1.1c-0.4,0.2-0.8,0.3-1.2,0.3c-0.3,0-0.6-0.1-1-0.2
		c-0.4-0.1-0.8-0.3-1.2-0.5L258.6,108.6L258.6,108.6z"/>
	<path class="st4" d="M272,99.5c-0.3-0.1-0.6-0.2-1-0.3c-0.4-0.1-0.8-0.1-1.1-0.1c-1.5,0-2.6,0.5-3.5,1.4c-0.9,0.9-1.3,2.1-1.3,3.6
		c0,0.9,0.2,1.8,0.6,2.5c0.4,0.7,1,1.3,1.7,1.8c0.7,0.4,1.6,0.7,2.5,0.7c0.3,0,0.7,0,1.1-0.1c0.4-0.1,0.8-0.2,1.1-0.3l-0.1-1.6
		c-0.3,0.2-0.6,0.3-0.9,0.4c-0.3,0.1-0.7,0.1-1,0.1c-0.8,0-1.4-0.2-1.8-0.5c-0.5-0.4-0.8-0.8-1-1.3c-0.2-0.5-0.3-1.1-0.3-1.7
		c0-0.6,0.1-1.2,0.4-1.7c0.2-0.5,0.6-1,1-1.3c0.5-0.3,1-0.5,1.7-0.5c0.3,0,0.6,0,0.9,0.1c0.3,0.1,0.7,0.2,1,0.3L272,99.5L272,99.5z"
		/>
	<path class="st4" d="M273.1,108.9h1.8v-4.4c0-1.2,0.2-2.1,0.7-2.8c0.5-0.7,1.2-1.1,2.2-1.1c0.8,0,1.3,0.3,1.6,0.9
		c0.3,0.6,0.4,1.4,0.4,2.5v4.9h1.8v-5.7c0-1.3-0.3-2.3-0.9-3c-0.6-0.7-1.5-1.1-2.7-1.1c-0.7,0-1.3,0.1-1.8,0.4
		c-0.5,0.3-0.9,0.7-1.3,1.2h0v-5.8h-1.8V108.9L273.1,108.9z"/>
	<path class="st3" d="M290.9,106.8c-0.2,0.2-0.6,0.4-1.2,0.6c-0.6,0.2-1.1,0.3-1.7,0.3c-0.9,0-1.6-0.3-2.2-0.9
		c-0.6-0.6-0.9-1.3-0.9-2.3h6.8c0-1-0.1-1.9-0.4-2.8c-0.3-0.8-0.7-1.4-1.3-1.9c-0.6-0.5-1.4-0.7-2.5-0.7c-1.4,0-2.4,0.5-3.2,1.4
		c-0.8,0.9-1.2,2-1.2,3.5c0,1.6,0.4,2.8,1.2,3.7c0.8,0.9,2,1.4,3.7,1.4c0.8,0,1.4-0.1,1.8-0.2c0.5-0.1,0.8-0.3,1.2-0.4V106.8
		L290.9,106.8z M284.9,103.2c0-0.4,0.2-0.8,0.3-1.2c0.2-0.4,0.5-0.7,0.8-1c0.4-0.3,0.8-0.4,1.4-0.4c0.8,0,1.3,0.3,1.8,0.8
		c0.4,0.5,0.6,1.1,0.6,1.9H284.9L284.9,103.2z"/>
</g>
</svg>
